<svg width="616" height="199" viewBox="0 0 616 199" fill="none" xmlns="http://www.w3.org/2000/svg">
<path fill-rule="evenodd" clip-rule="evenodd" d="M232.078 149.733C232.199 147.665 231.618 145.786 230.351 144.145C229.155 142.474 227.474 141.221 225.368 140.362C223.316 139.451 221.103 139 218.741 139C215.942 139 213.297 139.562 210.819 140.692L210.81 140.696C208.367 141.835 206.385 143.471 204.891 145.602C203.375 147.765 202.625 150.247 202.625 153.009C202.625 155.837 203.437 158.338 205.082 160.459L205.092 160.471C206.669 162.447 208.682 164.151 211.11 165.589C213.478 166.992 216.922 168.784 221.426 170.962C224.705 172.58 226.895 174.14 228.122 175.607L228.135 175.623C229.358 177.03 230.003 178.849 230.003 181.172C230.003 183.365 229.472 185.306 228.425 187.026C227.372 188.703 225.939 190.024 224.103 190.995C222.263 191.915 220.218 192.383 217.948 192.383C214.951 192.383 212.062 191.526 209.265 189.775C206.571 188.005 204.782 185.645 203.858 182.669C203.765 182.372 203.554 182.127 203.274 181.992C202.994 181.857 202.671 181.845 202.382 181.959L198.335 183.55C197.804 183.759 197.515 184.335 197.664 184.886C198.407 187.636 199.863 190.085 202 192.228L202.01 192.238C204.175 194.352 206.674 195.994 209.498 197.162C212.318 198.38 215.137 199 217.948 199C221.24 199 224.347 198.271 227.256 196.813L227.271 196.805C230.184 195.29 232.525 193.201 234.274 190.543C236.096 187.803 237 184.694 237 181.252C237 177.8 236.036 174.793 234.07 172.294C232.185 169.781 229.071 167.415 224.846 165.16C224.287 164.825 223.702 164.519 223.092 164.241C222.522 163.981 221.979 163.722 221.463 163.463C221.452 163.457 221.44 163.452 221.429 163.447C218.916 162.292 216.835 161.249 215.181 160.317C213.646 159.371 212.314 158.231 211.18 156.897C210.128 155.658 209.622 154.295 209.622 152.77C209.622 150.807 210.422 149.155 212.139 147.758C213.935 146.338 216.066 145.617 218.582 145.617C220.361 145.617 221.974 146.024 223.441 146.831C223.454 146.838 223.466 146.845 223.479 146.851C224.9 147.563 225.4 148.423 225.4 149.429C225.4 150.024 225.865 150.516 226.458 150.548L230.902 150.786C231.516 150.819 232.042 150.349 232.078 149.733Z" fill="#F5F5F5"/>
<path d="M133.815 140.225C133.603 139.954 133.279 139.796 132.935 139.796H131.507C130.89 139.796 130.389 140.297 130.389 140.916V196.05C130.389 196.669 130.89 197.17 131.507 197.17H136.268C136.886 197.17 137.386 196.669 137.386 196.05V157.544C137.386 157.231 137.373 156.877 137.347 156.483C137.723 156.993 138.129 157.525 138.565 158.079L138.58 158.097C143.035 163.521 148.573 169.976 155.192 177.461C155.4 177.696 155.697 177.833 156.01 177.838C156.324 177.843 156.625 177.716 156.84 177.487C159.623 174.537 163.084 170.452 167.219 165.243C170.226 161.456 172.885 158.002 175.196 154.882C175.058 156.455 174.988 157.716 174.988 158.658V196.05C174.988 196.669 175.488 197.17 176.106 197.17H180.867C181.484 197.17 181.985 196.669 181.985 196.05V140.916C181.985 140.297 181.484 139.796 180.867 139.796H179.439C179.099 139.796 178.778 139.951 178.566 140.216L155.958 168.548L133.815 140.225Z" fill="#F5F5F5"/>
<path d="M81.5087 140.512C80.8914 140.512 80.391 141.013 80.391 141.632V196.05C80.391 196.669 80.8914 197.17 81.5087 197.17H113.807C114.424 197.17 114.925 196.669 114.925 196.05V191.595C114.925 190.976 114.424 190.474 113.807 190.474H87.3878V141.632C87.3878 141.013 86.8874 140.512 86.2701 140.512H81.5087Z" fill="#F5F5F5"/>
<path d="M53.6749 140.512C53.0576 140.512 52.5572 141.013 52.5572 141.632V196.05C52.5572 196.669 53.0576 197.17 53.6749 197.17H58.5157C59.133 197.17 59.6334 196.669 59.6334 196.05V141.632C59.6334 141.013 59.133 140.512 58.5157 140.512H53.6749Z" fill="#F5F5F5"/>
<path d="M1.1177 140.512C0.500413 140.512 0 141.013 0 141.632V196.05C0 196.669 0.500413 197.17 1.1177 197.17H5.95849C6.57578 197.17 7.07619 196.669 7.07619 196.05V171.314H28.734C29.3512 171.314 29.8517 170.812 29.8517 170.194V165.659C29.8517 165.04 29.3512 164.538 28.734 164.538H7.07619V147.288H35.8761C36.4934 147.288 36.9938 146.786 36.9938 146.167V141.632C36.9938 141.013 36.4934 140.512 35.8761 140.512H1.1177Z" fill="#F5F5F5"/>
<path d="M310.143 9.82653C310.143 9.75271 310.136 9.68054 310.122 9.61069V9.49979C310.122 4.5624 306.126 0.559858 301.198 0.559858C296.269 0.559858 292.273 4.5624 292.273 9.49979V11.1091C292.27 11.141 292.268 11.1725 292.267 11.1996C292.264 11.2606 292.261 11.3364 292.259 11.4219C292.254 11.5946 292.25 11.8362 292.247 12.1402C292.24 12.7498 292.235 13.6295 292.232 14.7537C292.225 17.0032 292.227 20.2427 292.233 24.283C292.246 32.364 292.281 39.1848 292.326 52.1803V52.1816L292.281 81.0192H292.273V92.7529C292.273 97.6903 296.269 101.693 301.198 101.693C306.126 101.693 310.122 97.6903 310.122 92.7529V88.4574C310.136 88.3876 310.143 88.3154 310.143 88.2415V9.82653Z" fill="#F5F5F5"/>
<path d="M600.667 19.378C600.067 19.7701 599.416 20.1765 598.71 20.5979L598.709 20.5988C593.391 23.7626 587.529 27.2552 582.188 30.4369L581.989 30.5559C575.809 34.2378 570.348 37.4913 567.272 39.3162C561.561 42.7312 557.95 44.6246 555.109 46.2701L555.107 46.2711C553.666 47.1022 552.481 47.859 551.694 48.4199L551.662 48.4429C551.934 48.6254 552.249 48.8351 552.598 49.067C553.756 49.8347 555.29 50.8409 556.925 51.9031C557.872 52.5099 559.112 53.3072 560.523 54.2137L560.554 54.2336L560.557 54.2356L560.56 54.2372L560.563 54.2392L560.569 54.2436C564.107 56.5169 559.776 53.8812 563.493 56.2482L563.495 56.2495C568.766 59.6216 575.013 63.6604 577.454 65.2605C579.882 66.8527 588.643 72.4822 596.924 77.761L596.928 77.7632C598.755 78.9379 600.603 80.1693 602.39 81.3687L612.436 87.7243C616.247 90.3405 617.11 95.2745 614.498 99.0931C611.887 102.912 606.3 103.369 602.953 101.134L595.069 95.5594L580.678 86.5258L580.676 86.5242C578.238 84.9848 575.661 83.3565 573.193 81.796L573.095 81.7342L573.093 81.7333L573.092 81.7323L573.089 81.7308L573.052 81.7073L573.051 81.7066C568.175 78.6247 563.741 75.8217 561.64 74.5061L561.634 74.5024C558.489 72.5058 554.591 70.0212 552.996 69.0001L552.984 68.9924C551.447 67.9805 547.872 65.7255 545.035 63.9495L545.029 63.9453L544.741 63.7623C541.95 61.9871 546.838 65.0072 544.538 63.5992L544.525 63.5914C543.537 62.9682 542.42 62.2688 541.159 61.4794L541.152 61.4754C539.515 60.4506 537.638 59.2754 535.494 57.9231L528.249 62.228L528.247 62.2296C526.079 63.5367 524.058 64.7648 522.536 65.7041C521.774 66.1742 521.141 66.5698 520.677 66.8658C520.445 67.0141 520.261 67.1345 520.126 67.2252L520.107 67.2381C520.094 67.314 520.079 67.424 520.064 67.5775C520.003 68.2034 519.956 69.3292 519.922 71.3994C519.856 75.5202 519.845 72.0532 519.845 86.6067V92.7529C519.845 97.6903 515.849 101.693 510.92 101.693C505.992 101.693 501.996 97.6903 501.996 92.7529V9.49979C501.996 4.5624 505.992 0.559858 510.92 0.559858C515.849 0.559858 519.845 4.5624 519.845 9.49979V21.2335H519.836L519.801 32.2522V32.2558C519.801 38.8368 519.845 40.3476 519.911 44.6812C519.945 46.8494 519.983 48.6002 520.024 49.8061L520.031 49.9847L520.1 49.9465C520.99 49.4544 522.174 48.7732 523.427 48.0245L523.447 48.0129C526.005 46.555 533.654 42.0371 540.478 37.9977C545.267 35.1629 547.736 33.9728 552.153 31.3706L552.214 31.3346C554.063 30.246 555.663 29.3035 556.836 28.6111C558.423 27.6681 560.571 26.3957 562.918 25.0053L562.959 24.9813C566.569 22.8431 570.644 20.4288 573.88 18.5003L573.886 18.4967C575.719 17.4194 577.784 16.2072 580.113 14.8409L580.164 14.8108C583.912 12.6119 588.339 10.0143 593.57 6.93696L603.037 1.06509C606.455 -1.02526 610.917 0.0558532 613.004 3.47983C615.09 6.9038 614.011 11.374 610.593 13.4644L600.667 19.378Z" fill="#F5F5F5"/>
<path d="M349.492 20.7522C351.251 18.8999 353.953 16.4613 355.523 15.3051C357.081 14.1571 360.005 12.357 362.018 11.2366C364.043 10.1097 367.315 8.53699 369.321 7.7595C371.307 6.94642 374.306 5.915 376.072 5.41603C377.804 4.92666 380.485 4.21007 382.11 3.84823C383.74 3.48535 387.267 2.85993 389.935 2.45896C392.624 2.05501 397.351 1.56329 400.45 1.42782C403.557 1.24806 410.274 1.24931 415.369 1.38245L415.378 1.3827C420.461 1.55979 426.234 1.9157 428.12 2.19224C429.948 2.46012 433.144 2.99366 435.242 3.39589C437.34 3.75405 440.156 4.37902 441.546 4.79524C442.901 5.15783 445.436 5.91542 447.138 6.49876C448.857 7.08784 451.902 8.29903 453.881 9.2001C455.882 10.1114 459.12 11.9131 461.124 13.2806C463.144 14.6158 466.259 17.2386 468.046 19.1648C469.865 21.0796 472.266 24.2061 473.423 26.2004L473.427 26.2076C473.879 26.9987 474.355 27.9007 474.781 28.7691C475.415 29.9347 475.828 30.7539 475.828 30.7539C478.383 35.3333 478.012 40.5483 472.992 42.4658C467.141 44.7008 462.952 39.672 460.721 36.3196C460.721 36.3196 458.154 33.4338 456.259 30.7539C455.774 30.2295 455.018 29.2803 454.766 28.9822C454.702 28.9064 454.642 28.8357 454.585 28.7691C454.216 28.3373 453.979 28.0887 453.162 27.5178C453.108 27.4802 453.057 27.4378 453.011 27.3913C451.481 25.8587 448.941 24.4425 447.334 23.4684C445.704 22.4802 441.927 21.1701 440.395 20.5736C438.856 19.974 435.63 18.9684 433.237 18.4018L433.219 18.3973C430.837 17.79 426.497 16.9985 423.602 16.603L423.595 16.602C420.266 16.1257 415.15 15.9035 409.362 15.9035H409.354C403.493 15.8594 398.505 16.1251 395.127 16.6023L395.106 16.6051C392.242 16.9528 387.821 17.8286 385.28 18.4428C382.761 19.0958 378.974 20.3612 376.815 21.2684C374.618 22.2373 371.795 23.632 370.528 24.3936L370.519 24.3989L370.504 24.4076C369.314 25.0834 366.612 27.3435 364.544 29.4152C361.971 31.9927 360.376 34.0294 359.343 36.0163L359.341 36.0206C358.493 37.6346 357.327 40.5749 356.817 42.4475L356.816 42.4517C356.055 45.2034 355.838 46.9128 355.838 51.6899C355.838 55.9273 356.061 58.3822 356.555 60.2789L356.558 60.2899C356.93 61.7814 358.044 64.6284 359.003 66.6379C360.189 69.0554 361.583 71.0474 363.547 73.1432C365.186 74.8721 367.556 76.941 368.813 77.824C370.11 78.6897 372.453 80.0794 373.995 80.8521C375.567 81.6394 377.795 82.645 378.996 83.118L379.009 83.1231C380.132 83.5814 382.861 84.4089 385.068 84.9839C387.225 85.5457 391.426 86.3362 394.459 86.7768C398.157 87.2556 402.885 87.5206 409.362 87.5206C415.893 87.5206 420.574 87.2992 424.486 86.7769C427.605 86.3367 432.029 85.5016 434.187 84.9395L434.192 84.9382C436.423 84.3687 439.467 83.4079 440.906 82.8143L440.917 82.81C442.411 82.2112 444.892 80.9919 446.457 80.1207C447.886 79.3253 447.892 79.343 451.796 76.5493C453.297 74.8918 455.143 73.7555 458.49 69.2856C461.836 64.8156 464.067 59.7869 470.837 61.4972C475.781 63.1394 477.164 70.2629 474.665 74.8728L474.66 74.8792C473.823 76.5936 472.507 78.8351 471.459 80.2882L471.45 80.3003C470.272 81.8887 467.681 84.1507 466.299 85.4892C464.925 86.8193 462.374 88.855 460.721 89.9592C456.259 92.9391 454.892 93.4373 452.912 94.4291C450.908 95.4328 449.254 96.2923 446.921 97.1014L446.902 97.1076C444.556 97.8761 440.309 98.9953 437.483 99.5794C434.671 100.161 430.58 100.873 428.357 101.23L428.341 101.232C425.499 101.645 419.989 102.252 409.963 102.252H409.406C397.602 102.207 393.968 101.645 389.928 101.008L389.918 101.007C387.25 100.561 383.295 99.8047 381.098 99.3111C378.917 98.8553 375.293 97.8233 373.011 97.0612L372.986 97.0525C370.764 96.2512 367.276 94.9083 365.286 94.0022L365.267 93.9934C363.291 93.0486 360.281 91.4296 358.504 90.2885C356.732 89.1506 354.086 87.1728 352.52 85.9179C352.511 85.9105 352.502 85.9031 352.493 85.8955C350.933 84.5623 348.406 81.9408 346.895 79.9712C345.35 78.0573 343.319 74.9414 342.389 73.0364C341.44 71.1779 340.268 68.4269 339.761 66.9024C339.254 65.38 338.49 62.3129 338.126 60.0865C337.715 57.8372 337.401 54.0517 337.401 51.6899C337.401 49.3344 337.67 45.761 338.039 43.7277C338.402 41.7255 339.212 38.5275 339.847 36.5735L339.849 36.5661C340.479 34.6737 341.469 32.235 342.031 31.1063C342.55 30.0215 343.724 28.0359 344.621 26.6854C345.521 25.2666 347.692 22.6005 349.492 20.7522Z" fill="#F5F5F5"/>
<path d="M2.78887 97.7816C0 94.9879 0 91.3733 0 91.0767V10.6173C0 10.311 0.557773 7.26479 2.78887 5.0298C5.01996 2.79482 6.69328 2.23607 8.92437 2.2361C11.1555 2.23613 113.228 2.2361 113.228 2.2361C117.233 2.2361 120.479 5.48816 120.479 9.49979C120.479 13.5114 117.233 16.7635 113.228 16.7635H112.674L17.5071 17.0972V43.2593L91.4748 43.6317V43.5833H103.188C103.627 43.5833 104.056 43.6223 104.474 43.6971L104.511 43.6973C104.685 43.6982 104.85 43.7389 104.996 43.811C108.126 44.6157 110.439 47.4608 110.439 50.847C110.439 54.8586 107.193 58.1107 103.188 58.1107H98.729L98.7259 58.1107H17.2857V85.4956L113.228 86.048H113.23C117.234 86.049 120.479 89.3007 120.479 93.3117C120.479 97.3233 117.233 100.575 113.228 100.575H111.559L111.556 100.575L8.92437 100.711C8.62828 100.712 5.57773 100.575 2.78887 97.7816Z" fill="#F5F5F5"/>
<path fill-rule="evenodd" clip-rule="evenodd" d="M160.639 92.7529V83.7705V65.3744L203.482 65.2291C218.439 78.8336 225.006 84.6058 229.994 89.1455L230.168 89.3037C232.384 91.3209 233.827 92.6337 234.713 93.4391L239.891 98.1835C239.995 98.2783 240.114 98.3518 240.243 98.4015L243.994 101.819C247.413 104.934 252.704 104.682 255.813 101.258C258.922 97.8332 258.671 92.5325 255.253 89.4182L250.924 85.475C250.495 85.0191 250.025 84.5594 249.511 84.0983C248.56 83.2442 247.621 82.4207 246.705 81.6309L246.587 81.5237L246.584 81.527C244.648 79.8606 242.817 78.346 241.196 77.013C240.923 76.7885 240.656 76.5695 240.396 76.3562C238.336 74.6636 236.708 73.3266 235.698 72.3722L234.403 71.1721C232.139 69.0734 229.253 66.3971 227.404 64.7302C229.855 64.6032 231.476 64.8156 234.389 64.5518C237.088 64.1461 241.287 63.2005 243.674 62.3742C246.187 61.5491 249.371 60.0481 251.232 58.8367L251.243 58.8295C253.031 57.635 255.359 55.6722 256.535 54.4007L256.548 54.3858C257.724 53.0669 259.368 50.6389 260.293 48.8342C261.209 47.0877 262.307 44.3461 262.732 42.6462C262.734 42.6367 262.736 42.6272 262.738 42.6176C263.096 41.0054 263.595 38.2913 263.735 36.4832C263.92 34.5195 263.827 31.6835 263.461 29.3439C263.142 27.2013 262.42 24.1682 261.866 22.5054C261.301 20.8052 260.015 18.2324 258.991 16.6944C257.96 15.1458 255.997 12.9076 254.618 11.6183L254.603 11.6046C253.222 10.3597 250.898 8.66809 249.35 7.82072C247.86 6.98203 245.411 5.94 243.921 5.39699C242.41 4.8468 239.894 4.12751 238.282 3.72349C236.862 3.3505 234.648 3.16655 227.918 3.04558C221.122 2.92342 209.6 2.86797 189.435 2.80145C189.435 2.80145 153.945 2.62403 152.83 2.62403C151.714 2.62403 147.374 2.84766 145.021 6.14729C142.668 9.44693 142.62 13.1135 142.621 13.411L142.79 92.7529V81.0192L142.783 88.6342L142.787 90.8377L142.79 92.7549C142.791 97.6914 146.786 101.693 151.714 101.693C156.643 101.693 160.639 97.6903 160.639 92.7529ZM240.839 46.1185C241.789 45.2495 242.998 43.7816 243.509 42.9157C244.005 42.0754 244.724 40.1131 245.063 38.5845C245.065 38.5749 245.067 38.5654 245.07 38.5559C245.452 37.0256 245.745 34.8119 245.745 33.726C245.745 32.5808 245.492 30.6927 245.171 29.6079C245.166 29.5925 245.162 29.5771 245.158 29.5615C244.86 28.3681 244.307 26.7566 243.948 25.9986C243.603 25.2689 242.604 23.7573 241.726 22.752L241.718 22.7435C240.793 21.6616 239.214 20.5457 237.295 19.6054C235.646 18.8009 232.901 17.8569 231.272 17.5221L231.263 17.5203C230.037 17.2585 227.978 17.0904 222.516 16.9958C217.087 16.9017 208.385 16.8795 193.948 16.8795H160.747V51.0153C191.596 50.9931 208.838 50.9595 218.622 50.8664C223.575 50.8193 226.603 50.757 228.513 50.6741C230.448 50.59 231.152 50.4864 231.518 50.3885C231.529 50.3855 231.541 50.3826 231.552 50.38C232.852 50.0762 234.552 49.5957 235.237 49.3814C235.908 49.1712 237.113 48.7099 237.817 48.318L237.837 48.3072C238.492 47.9596 239.921 46.9544 240.839 46.1185Z" fill="#F5F5F5"/>
</svg>
