<svg width="114" height="36" viewBox="0 0 114 36" fill="none" xmlns="http://www.w3.org/2000/svg">
<path fill-rule="evenodd" clip-rule="evenodd" d="M85.9469 24.4144C85.9554 24.2693 85.9145 24.1375 85.8254 24.0224C85.7413 23.9053 85.6232 23.8174 85.4751 23.7571C85.3308 23.6932 85.1752 23.6616 85.0091 23.6616C84.8123 23.6616 84.6264 23.7011 84.4521 23.7803L84.4515 23.7805C84.2797 23.8605 84.1404 23.9752 84.0353 24.1247C83.9287 24.2764 83.876 24.4505 83.876 24.6441C83.876 24.8425 83.933 25.0179 84.0488 25.1667L84.0494 25.1675C84.1603 25.3061 84.3018 25.4255 84.4726 25.5264C84.639 25.6248 84.8812 25.7505 85.1979 25.9033C85.4285 26.0167 85.5824 26.1262 85.6687 26.2291L85.6697 26.2302C85.7556 26.3288 85.801 26.4564 85.801 26.6194C85.801 26.7731 85.7636 26.9093 85.69 27.0299C85.616 27.1475 85.5153 27.2402 85.3862 27.3083C85.2568 27.3728 85.113 27.4056 84.9533 27.4056C84.7426 27.4056 84.5395 27.3455 84.3429 27.2227C84.1534 27.0985 84.0276 26.933 83.9626 26.7243C83.9561 26.7035 83.9413 26.6863 83.9216 26.6768C83.9019 26.6674 83.8792 26.6666 83.8589 26.6745L83.5743 26.7861C83.537 26.8008 83.5167 26.8411 83.5272 26.8798C83.5794 27.0727 83.6818 27.2445 83.832 27.3947L83.8328 27.3954C83.985 27.5437 84.1606 27.6589 84.3593 27.7408C84.5575 27.8262 84.7557 27.8697 84.9533 27.8697C85.1848 27.8697 85.4033 27.8186 85.6078 27.7163L85.6089 27.7158C85.8137 27.6095 85.9783 27.463 86.1013 27.2766C86.2294 27.0844 86.2929 26.8664 86.2929 26.6249C86.2929 26.3828 86.2252 26.1719 86.0869 25.9967C85.9544 25.8204 85.7354 25.6545 85.4384 25.4963C85.3991 25.4728 85.358 25.4514 85.3151 25.4319C85.275 25.4136 85.2368 25.3955 85.2005 25.3773C85.1997 25.3769 85.1989 25.3765 85.1981 25.3762C85.0214 25.2952 84.8751 25.222 84.7588 25.1567C84.6509 25.0903 84.5573 25.0104 84.4775 24.9168C84.4035 24.8299 84.3679 24.7343 84.3679 24.6274C84.3679 24.4897 84.4242 24.3739 84.5449 24.2759C84.6712 24.1763 84.821 24.1257 84.998 24.1257C85.123 24.1257 85.2364 24.1543 85.3396 24.2109C85.3405 24.2113 85.3414 24.2118 85.3423 24.2122C85.4421 24.2622 85.4774 24.3225 85.4774 24.393C85.4774 24.4348 85.51 24.4693 85.5517 24.4715L85.8642 24.4883C85.9074 24.4906 85.9443 24.4576 85.9469 24.4144Z" fill="#4D5C7E"/>
<path d="M79.0378 23.7475C79.0229 23.7285 79.0001 23.7174 78.976 23.7174H78.8755C78.8321 23.7174 78.7969 23.7526 78.7969 23.796V27.6628C78.7969 27.7062 78.8321 27.7414 78.8755 27.7414H79.2103C79.2537 27.7414 79.2889 27.7062 79.2889 27.6628V24.9622C79.2889 24.9402 79.288 24.9154 79.2862 24.8878C79.3126 24.9236 79.3412 24.9609 79.3718 24.9997L79.3728 25.001C79.6861 25.3814 80.0755 25.8341 80.5409 26.359C80.5555 26.3755 80.5764 26.3851 80.5984 26.3855C80.6204 26.3858 80.6416 26.3769 80.6568 26.3609C80.8524 26.154 81.0958 25.8675 81.3865 25.5021C81.5979 25.2365 81.7849 24.9943 81.9474 24.7755C81.9377 24.8858 81.9328 24.9742 81.9328 25.0403V27.6628C81.9328 27.7062 81.9679 27.7414 82.0113 27.7414H82.3461C82.3895 27.7414 82.4247 27.7062 82.4247 27.6628V23.796C82.4247 23.7526 82.3895 23.7174 82.3461 23.7174H82.2457C82.2218 23.7174 82.1992 23.7283 82.1843 23.7469L80.5947 25.7339L79.0378 23.7475Z" fill="#4D5C7E"/>
<path d="M75.3601 23.7676C75.3167 23.7676 75.2815 23.8028 75.2815 23.8462V27.6628C75.2815 27.7062 75.3167 27.7414 75.3601 27.7414H77.631C77.6744 27.7414 77.7096 27.7062 77.7096 27.6628V27.3503C77.7096 27.3069 77.6744 27.2717 77.631 27.2717H75.7734V23.8462C75.7734 23.8028 75.7382 23.7676 75.6948 23.7676H75.3601Z" fill="#4D5C7E"/>
<path d="M73.403 23.7676C73.3596 23.7676 73.3244 23.8028 73.3244 23.8462V27.6628C73.3244 27.7062 73.3596 27.7414 73.403 27.7414H73.7434C73.7868 27.7414 73.822 27.7062 73.822 27.6628V23.8462C73.822 23.8028 73.7868 23.7676 73.7434 23.7676H73.403Z" fill="#4D5C7E"/>
<path d="M69.7076 23.7676C69.6642 23.7676 69.629 23.8028 69.629 23.8462V27.6628C69.629 27.7062 69.6642 27.7414 69.7076 27.7414H70.048C70.0914 27.7414 70.1266 27.7062 70.1266 27.6628V25.9279H71.6494C71.6928 25.9279 71.728 25.8928 71.728 25.8494V25.5313C71.728 25.4879 71.6928 25.4527 71.6494 25.4527H70.1266V24.2429H72.1515C72.1949 24.2429 72.2301 24.2077 72.2301 24.1643V23.8462C72.2301 23.8028 72.1949 23.7676 72.1515 23.7676H69.7076Z" fill="#4D5C7E"/>
<path d="M91.4779 14.5226C91.4779 14.5174 91.4774 14.5123 91.4765 14.5074V14.4996C91.4765 14.1524 91.195 13.8709 90.8478 13.8709C90.5006 13.8709 90.2191 14.1524 90.2191 14.4996V14.6128C90.2189 14.615 90.2187 14.6173 90.2186 14.6192C90.2184 14.6234 90.2182 14.6288 90.218 14.6348C90.2177 14.6469 90.2174 14.6639 90.2172 14.6853C90.2167 14.7282 90.2164 14.79 90.2161 14.8691C90.2157 15.0273 90.2158 15.2551 90.2162 15.5393C90.2172 16.1075 90.2197 16.5872 90.2228 17.5011V17.5012L90.2196 19.5292H90.2191V20.3544C90.2191 20.7016 90.5006 20.9831 90.8478 20.9831C91.195 20.9831 91.4765 20.7016 91.4765 20.3544V20.0523C91.4774 20.0474 91.4779 20.0423 91.4779 20.0372V14.5226Z" fill="url(#paint0_linear_449_517)"/>
<path d="M111.945 15.1943C111.902 15.2219 111.857 15.2505 111.807 15.2801L111.807 15.2802C111.432 15.5027 111.019 15.7483 110.643 15.972L110.629 15.9804C110.194 16.2393 109.809 16.4681 109.592 16.5965C109.19 16.8366 108.935 16.9698 108.735 17.0855L108.735 17.0856C108.634 17.144 108.55 17.1972 108.495 17.2367L108.492 17.2383C108.512 17.2511 108.534 17.2659 108.558 17.2822C108.64 17.3362 108.748 17.4069 108.863 17.4816C108.93 17.5243 109.017 17.5804 109.117 17.6441L109.119 17.6455L109.119 17.6457L109.119 17.6458L109.12 17.6459L109.12 17.6462C109.369 17.8061 109.064 17.6208 109.326 17.7872L109.326 17.7873C109.697 18.0245 110.138 18.3085 110.309 18.421C110.481 18.533 111.098 18.9289 111.681 19.3001L111.681 19.3003C111.81 19.3829 111.94 19.4695 112.066 19.5538L112.774 20.0008C113.042 20.1848 113.103 20.5318 112.919 20.8003C112.735 21.0688 112.342 21.101 112.106 20.9438L111.55 20.5518L110.537 19.9165L110.536 19.9164C110.365 19.8081 110.183 19.6936 110.009 19.5839L110.002 19.5795L110.002 19.5795L110.002 19.5794L110.002 19.5793L109.999 19.5776L109.999 19.5776C109.656 19.3609 109.343 19.1637 109.195 19.0712L109.195 19.0709C108.973 18.9305 108.699 18.7558 108.586 18.684L108.586 18.6835C108.477 18.6123 108.225 18.4537 108.026 18.3288L108.025 18.3285L108.005 18.3156C107.808 18.1908 108.153 18.4032 107.991 18.3042L107.99 18.3036C107.92 18.2598 107.841 18.2106 107.753 18.1551L107.752 18.1548C107.637 18.0827 107.504 18.0001 107.353 17.905L106.843 18.2077L106.843 18.2079C106.69 18.2998 106.548 18.3861 106.441 18.4522C106.387 18.4853 106.342 18.5131 106.31 18.5339C106.293 18.5443 106.28 18.5528 106.271 18.5592L106.269 18.5601C106.269 18.5654 106.268 18.5732 106.266 18.584C106.262 18.628 106.259 18.7071 106.256 18.8527C106.252 19.1425 106.251 18.8987 106.251 19.9222V20.3544C106.251 20.7016 105.97 20.9831 105.622 20.9831C105.275 20.9831 104.994 20.7016 104.994 20.3544V14.4996C104.994 14.1524 105.275 13.8709 105.622 13.8709C105.97 13.8709 106.251 14.1524 106.251 14.4996V15.3248H106.25L106.248 16.0997V16.0999C106.248 16.5628 106.251 16.669 106.256 16.9738C106.258 17.1262 106.261 17.2494 106.264 17.3342L106.264 17.3467L106.269 17.344C106.332 17.3094 106.415 17.2615 106.503 17.2089L106.505 17.2081C106.685 17.1055 107.224 16.7878 107.705 16.5037C108.042 16.3044 108.216 16.2207 108.527 16.0377L108.531 16.0352C108.662 15.9586 108.774 15.8923 108.857 15.8436C108.969 15.7773 109.12 15.6878 109.285 15.59L109.288 15.5884C109.543 15.438 109.83 15.2682 110.058 15.1326L110.058 15.1323C110.187 15.0566 110.333 14.9713 110.497 14.8752L110.5 14.8731C110.764 14.7185 111.076 14.5358 111.445 14.3194L112.112 13.9064C112.352 13.7594 112.667 13.8355 112.814 14.0763C112.961 14.3171 112.885 14.6314 112.644 14.7784L111.945 15.1943Z" fill="url(#paint1_linear_449_517)"/>
<path d="M94.25 15.2909C94.374 15.1607 94.5643 14.9892 94.6749 14.9079C94.7847 14.8271 94.9906 14.7006 95.1324 14.6218C95.2751 14.5425 95.5056 14.4319 95.6469 14.3772C95.7868 14.3201 95.9981 14.2475 96.1225 14.2124C96.2445 14.178 96.4334 14.1276 96.5479 14.1022C96.6627 14.0767 96.9112 14.0327 97.0992 14.0045C97.2886 13.9761 97.6216 13.9415 97.8399 13.932C98.0588 13.9193 98.532 13.9194 98.8909 13.9288L98.8916 13.9288C99.2496 13.9412 99.6563 13.9663 99.7892 13.9857C99.918 14.0046 100.143 14.0421 100.291 14.0704C100.439 14.0955 100.637 14.1395 100.735 14.1688C100.831 14.1943 101.009 14.2475 101.129 14.2886C101.25 14.33 101.465 14.4152 101.604 14.4785C101.745 14.5426 101.973 14.6693 102.114 14.7655C102.257 14.8594 102.476 15.0439 102.602 15.1793C102.73 15.314 102.899 15.5338 102.981 15.6741L102.981 15.6746C103.013 15.7302 103.046 15.7937 103.076 15.8547C103.121 15.9367 103.15 15.9943 103.15 15.9943C103.33 16.3164 103.304 16.6831 102.95 16.818C102.538 16.9751 102.243 16.6215 102.086 16.3857C102.086 16.3857 101.905 16.1828 101.772 15.9943C101.737 15.9574 101.684 15.8907 101.666 15.8697C101.662 15.8644 101.658 15.8594 101.654 15.8547C101.628 15.8244 101.611 15.8069 101.553 15.7667C101.55 15.7641 101.546 15.7611 101.543 15.7578C101.435 15.6501 101.256 15.5505 101.143 15.482C101.028 15.4125 100.762 15.3203 100.654 15.2784C100.546 15.2362 100.318 15.1655 100.15 15.1257L100.148 15.1253C99.9806 15.0826 99.6749 15.027 99.4709 14.9992L99.4704 14.9991C99.2359 14.9656 98.8755 14.95 98.4677 14.95H98.4671C98.0543 14.9469 97.7029 14.9655 97.4649 14.9991L97.4634 14.9993C97.2617 15.0238 96.9502 15.0853 96.7712 15.1285C96.5938 15.1745 96.3269 15.2634 96.1749 15.3273C96.0201 15.3954 95.8212 15.4935 95.732 15.547L95.7313 15.5474L95.7303 15.548C95.6464 15.5955 95.4561 15.7545 95.3104 15.9002C95.1291 16.0814 95.0168 16.2247 94.944 16.3644L94.9438 16.3647C94.8841 16.4782 94.802 16.685 94.7661 16.8167L94.766 16.817C94.7124 17.0105 94.6971 17.1307 94.6971 17.4666C94.6971 17.7646 94.7128 17.9373 94.7476 18.0707L94.7478 18.0715C94.774 18.1763 94.8525 18.3766 94.92 18.5179C95.0036 18.6879 95.1018 18.828 95.2401 18.9754C95.3556 19.0969 95.5226 19.2424 95.6111 19.3045C95.7025 19.3654 95.8675 19.4632 95.9762 19.5175C96.087 19.5729 96.2439 19.6436 96.3285 19.6768L96.3295 19.6772C96.4085 19.7094 96.6008 19.7676 96.7563 19.8081C96.9083 19.8476 97.2042 19.9032 97.4178 19.9341C97.6783 19.9678 98.0114 19.9865 98.4677 19.9865C98.9279 19.9865 99.2576 19.9709 99.5332 19.9342C99.7529 19.9032 100.065 19.8445 100.217 19.8049L100.217 19.8048C100.374 19.7648 100.589 19.6972 100.69 19.6555L100.691 19.6552C100.796 19.6131 100.971 19.5273 101.081 19.4661C101.182 19.4101 101.182 19.4114 101.457 19.2149C101.563 19.0983 101.693 19.0184 101.929 18.7041C102.164 18.3897 102.322 18.0361 102.799 18.1564C103.147 18.2718 103.244 18.7728 103.068 19.097L103.068 19.0974C103.009 19.218 102.916 19.3756 102.842 19.4778L102.842 19.4787C102.759 19.5904 102.576 19.7495 102.479 19.8436C102.382 19.9371 102.202 20.0803 102.086 20.1579C101.772 20.3675 101.675 20.4025 101.536 20.4723C101.395 20.5429 101.278 20.6033 101.114 20.6602L101.112 20.6607C100.947 20.7147 100.648 20.7934 100.449 20.8345C100.251 20.8754 99.9625 20.9255 99.8059 20.9505L99.8047 20.9507C99.6045 20.9798 99.2164 21.0224 98.5101 21.0224H98.4708C97.6392 21.0193 97.3832 20.9798 97.0986 20.935L97.0979 20.9349C96.91 20.9035 96.6313 20.8503 96.4766 20.8156C96.323 20.7836 96.0677 20.711 95.9069 20.6574L95.9051 20.6568C95.7486 20.6004 95.5029 20.506 95.3627 20.4423L95.3614 20.4417C95.2221 20.3752 95.0101 20.2614 94.8849 20.1811C94.7601 20.1011 94.5737 19.962 94.4633 19.8737C94.4627 19.8732 94.4621 19.8727 94.4614 19.8722C94.3515 19.7784 94.1735 19.5941 94.0671 19.4555C93.9582 19.3209 93.8151 19.1018 93.7496 18.9678C93.6828 18.8371 93.6002 18.6437 93.5645 18.5365C93.5288 18.4294 93.4749 18.2137 93.4493 18.0571C93.4203 17.899 93.3982 17.6327 93.3982 17.4666C93.3982 17.301 93.4172 17.0497 93.4432 16.9067C93.4688 16.7659 93.5258 16.541 93.5705 16.4036L93.5707 16.4031C93.6151 16.27 93.6848 16.0985 93.7244 16.0191C93.7609 15.9428 93.8436 15.8032 93.9069 15.7082C93.9703 15.6084 94.1232 15.4209 94.25 15.2909Z" fill="url(#paint2_linear_449_517)"/>
<path d="M69.8255 20.7081C69.629 20.5116 69.629 20.2574 69.629 20.2365V14.5782C69.629 14.5567 69.6683 14.3424 69.8255 14.1853C69.9827 14.0281 70.1006 13.9888 70.2577 13.9888C70.4149 13.9888 77.6057 13.9888 77.6057 13.9888C77.8878 13.9888 78.1165 14.2175 78.1165 14.4996C78.1165 14.7817 77.8878 15.0104 77.6057 15.0104H77.5667L70.8624 15.0339V16.8738L76.0732 16.9V16.8966H76.8984C76.9293 16.8966 76.9596 16.8993 76.989 16.9046L76.9916 16.9046C77.0039 16.9046 77.0155 16.9075 77.0258 16.9126C77.2463 16.9692 77.4092 17.1692 77.4092 17.4074C77.4092 17.6895 77.1805 17.9182 76.8984 17.9182H76.5843L76.5841 17.9182H70.8468V19.844L77.6057 19.8829H77.6058C77.8879 19.883 78.1165 20.1116 78.1165 20.3937C78.1165 20.6758 77.8878 20.9045 77.6057 20.9045H77.4881L77.4879 20.9045L70.2577 20.9141C70.2369 20.9141 70.022 20.9045 69.8255 20.7081Z" fill="url(#paint3_linear_449_517)"/>
<path fill-rule="evenodd" clip-rule="evenodd" d="M80.9457 20.3544V19.7227V18.429L83.9639 18.4188C85.0176 19.3755 85.4802 19.7815 85.8316 20.1007L85.8439 20.1119C86 20.2537 86.1017 20.346 86.164 20.4027L86.5289 20.7363C86.5362 20.743 86.5446 20.7482 86.5536 20.7517L86.8179 20.992C87.0588 21.211 87.4315 21.1933 87.6505 20.9525C87.8696 20.7117 87.8519 20.3389 87.6111 20.1199L87.3061 19.8426C87.2759 19.8105 87.2428 19.7782 87.2066 19.7458C87.1396 19.6857 87.0734 19.6278 87.0089 19.5723L87.0006 19.5647L87.0004 19.565C86.864 19.4478 86.735 19.3413 86.6208 19.2475C86.6015 19.2317 86.5828 19.2163 86.5645 19.2013C86.4193 19.0823 86.3046 18.9883 86.2335 18.9211L86.1422 18.8367C85.9828 18.6892 85.7794 18.5009 85.6492 18.3837C85.8219 18.3748 85.936 18.3897 86.1412 18.3712C86.3314 18.3426 86.6272 18.2761 86.7953 18.218C86.9724 18.16 87.1967 18.0544 87.3278 17.9692L87.3286 17.9687C87.4546 17.8847 87.6186 17.7467 87.7014 17.6573L87.7023 17.6562C87.7851 17.5635 87.901 17.3927 87.9661 17.2658C88.0307 17.143 88.108 16.9502 88.1379 16.8307C88.1381 16.83 88.1383 16.8293 88.1384 16.8286C88.1636 16.7153 88.1988 16.5244 88.2086 16.3972C88.2217 16.2591 88.2151 16.0597 88.1893 15.8952C88.1668 15.7445 88.116 15.5312 88.077 15.4142C88.0371 15.2947 87.9465 15.1137 87.8744 15.0056C87.8018 14.8967 87.6635 14.7393 87.5663 14.6486L87.5653 14.6476C87.468 14.5601 87.3043 14.4411 87.1952 14.3815C87.0902 14.3226 86.9178 14.2493 86.8127 14.2111C86.7063 14.1724 86.5291 14.1218 86.4155 14.0934C86.3154 14.0672 86.1595 14.0542 85.6854 14.0457C85.2066 14.0371 84.3949 14.0332 82.9743 14.0286C82.9743 14.0286 80.4742 14.0161 80.3956 14.0161C80.317 14.0161 80.0112 14.0318 79.8455 14.2639C79.6797 14.4959 79.6763 14.7538 79.6764 14.7747L79.6883 20.3544V19.5292L79.6878 20.0648L79.688 20.2197L79.6883 20.3546C79.6884 20.7017 79.9698 20.9831 80.317 20.9831C80.6642 20.9831 80.9457 20.7016 80.9457 20.3544ZM86.5957 17.0748C86.6626 17.0137 86.7477 16.9105 86.7837 16.8496C86.8186 16.7905 86.8693 16.6525 86.8932 16.545C86.8933 16.5443 86.8935 16.5437 86.8937 16.543C86.9206 16.4354 86.9412 16.2797 86.9412 16.2033C86.9412 16.1228 86.9234 15.99 86.9008 15.9137C86.9005 15.9126 86.9002 15.9116 86.8999 15.9105C86.8789 15.8265 86.8399 15.7132 86.8147 15.6599C86.7904 15.6086 86.72 15.5023 86.6581 15.4316L86.6576 15.431C86.5924 15.3549 86.4812 15.2764 86.3459 15.2103C86.2298 15.1537 86.0364 15.0873 85.9216 15.0638L85.921 15.0637C85.8346 15.0452 85.6896 15.0334 85.3048 15.0268C84.9223 15.0202 84.3093 15.0186 83.2922 15.0186H80.9534V17.4192C83.1266 17.4176 84.3413 17.4153 85.0305 17.4087C85.3794 17.4054 85.5927 17.401 85.7273 17.3952C85.8636 17.3893 85.9132 17.382 85.939 17.3751C85.9398 17.3749 85.9406 17.3747 85.9414 17.3745C86.0329 17.3532 86.1527 17.3194 86.201 17.3043C86.2483 17.2895 86.3331 17.2571 86.3827 17.2295L86.3841 17.2288C86.4303 17.2043 86.531 17.1336 86.5957 17.0748Z" fill="url(#paint4_linear_449_517)"/>
<path fill-rule="evenodd" clip-rule="evenodd" d="M5.77432 0H15.0751C15.5672 0 15.9661 0.398927 15.9661 0.891028V4.075C15.9661 4.5671 15.5672 4.96603 15.0751 4.96603H5.77432C5.28222 4.96603 4.8833 4.5671 4.8833 4.075V0.891028C4.8833 0.398927 5.28222 0 5.77432 0ZM49.1895 22.6941H55.9609V25.6371C55.9609 26.4572 56.6259 27.1222 57.446 27.1222C58.2662 27.1222 58.9311 26.4572 58.9311 25.6371V10.8737C58.9311 8.42024 56.9292 6.41837 54.4758 6.41837C52.8869 6.41837 51.2981 6.41788 49.7093 6.41739C48.1205 6.4169 46.5316 6.41641 44.9428 6.41641C44.1226 6.41641 43.4577 7.08138 43.4577 7.90151C43.4577 8.72164 44.1226 9.38662 44.9428 9.38662L54.4758 9.38858C55.2895 9.38858 55.9609 10.06 55.9609 10.8737V19.7239H49.1895C48.3694 19.7239 47.7044 20.3889 47.7044 21.209C47.7044 22.0292 48.3694 22.6941 49.1895 22.6941ZM57.446 28.5779C56.6259 28.5779 55.9609 29.2429 55.9609 30.063V30.0632V31.5446C55.9609 32.3583 55.2895 33.0297 54.4758 33.0297H4.45532C3.6416 33.0297 2.97021 32.3583 2.97021 31.5446V22.6943H17.0811C17.9013 22.6943 18.5662 22.0293 18.5662 21.2092C18.5662 20.3891 17.9013 19.7241 17.0811 19.7241H2.97021V10.8739C2.97021 10.0601 3.6416 9.38876 4.45532 9.38876H27.8413C28.3258 9.38876 28.8133 9.37703 29.3037 9.36523C32.603 9.28584 36.0369 9.20321 39.6128 12.6671C41.2515 14.2821 42.265 16.5156 42.265 18.9847C42.265 21.4538 41.2515 23.6872 39.6128 25.3022C37.9674 26.9239 35.6896 27.927 33.1699 27.927C30.6502 27.927 28.3724 26.9239 26.7269 25.3022C25.0883 23.6872 24.0747 21.4538 24.0747 18.9847C24.0747 18.2012 24.1789 17.4255 24.3823 16.6768C24.5893 15.9145 24.8907 15.1901 25.281 14.5231C25.6943 13.8182 25.4579 12.9117 24.753 12.4984C24.0481 12.0852 23.1416 12.3216 22.7283 13.0264C22.1916 13.9438 21.7853 14.91 21.5165 15.8994C21.2441 16.9021 21.1043 17.9392 21.1043 18.9847C21.1043 22.2746 22.4592 25.255 24.6499 27.414C26.8336 29.5662 29.8461 30.8974 33.1697 30.8974C36.4933 30.8974 39.5058 29.5662 41.6895 27.414C43.88 25.255 45.2351 22.2746 45.2351 18.9847C45.2351 15.6947 43.8802 12.7143 41.6895 10.5554C38.8395 7.61204 36.0289 6.4018 31.9885 6.4018C27.4011 6.4018 22.812 6.40594 18.2228 6.41008C13.6333 6.41422 9.04368 6.41837 4.45532 6.41837C2.00187 6.41837 0 8.42024 0 10.8737V21.209V31.5444C0 33.9978 2.00187 35.9997 4.45532 35.9997H54.4758C56.9294 35.9997 58.9311 33.9975 58.9311 31.5444V30.063C58.9311 29.2429 58.2662 28.5779 57.446 28.5779Z" fill="#3B1F13"/>
<defs>
<linearGradient id="paint0_linear_449_517" x1="113.025" y1="21.1922" x2="60.9276" y2="9.41877" gradientUnits="userSpaceOnUse">
<stop stop-color="#9D5022"/>
<stop offset="1" stop-color="#371C0C"/>
</linearGradient>
<linearGradient id="paint1_linear_449_517" x1="113.025" y1="21.1922" x2="60.9276" y2="9.41877" gradientUnits="userSpaceOnUse">
<stop stop-color="#9D5022"/>
<stop offset="1" stop-color="#371C0C"/>
</linearGradient>
<linearGradient id="paint2_linear_449_517" x1="113.025" y1="21.1922" x2="60.9276" y2="9.41877" gradientUnits="userSpaceOnUse">
<stop stop-color="#9D5022"/>
<stop offset="1" stop-color="#371C0C"/>
</linearGradient>
<linearGradient id="paint3_linear_449_517" x1="113.025" y1="21.1922" x2="60.9276" y2="9.41877" gradientUnits="userSpaceOnUse">
<stop stop-color="#9D5022"/>
<stop offset="1" stop-color="#371C0C"/>
</linearGradient>
<linearGradient id="paint4_linear_449_517" x1="113.025" y1="21.1922" x2="60.9276" y2="9.41877" gradientUnits="userSpaceOnUse">
<stop stop-color="#9D5022"/>
<stop offset="1" stop-color="#371C0C"/>
</linearGradient>
</defs>
</svg>
