<svg width="28" height="28" viewBox="0 0 28 28" fill="none" xmlns="http://www.w3.org/2000/svg">
<path fill-rule="evenodd" clip-rule="evenodd" d="M14.125 27.65C21.7604 27.65 27.95 21.4603 27.95 13.825C27.95 6.18966 21.7604 0 14.125 0C6.48971 0 0.300049 6.18966 0.300049 13.825C0.300049 21.4603 6.48971 27.65 14.125 27.65Z" fill="#9D5022"/>
<path d="M9.72689 7.73709C9.63799 7.76105 9.50465 7.80419 9.43057 7.83055C9.35648 7.85691 9.21079 7.9312 9.10955 7.99591C9.0083 8.06061 8.86014 8.17325 8.78112 8.24754C8.70457 8.32422 8.58357 8.46801 8.5169 8.56867C8.44775 8.67172 8.36873 8.8155 8.34157 8.8874C8.31441 8.95929 8.27243 9.07912 8.2502 9.15101C8.21069 9.27084 8.20822 9.65667 8.20328 13.7714C8.19588 18.1187 8.19835 18.2624 8.24279 18.4422C8.26996 18.5452 8.31194 18.689 8.34157 18.7609C8.36873 18.8328 8.44528 18.9742 8.51196 19.0725C8.57863 19.1707 8.69716 19.3169 8.77865 19.3936C8.85767 19.4727 9.0083 19.5877 9.10955 19.6524C9.21079 19.7171 9.35648 19.7914 9.43057 19.8178C9.50465 19.8441 9.64787 19.8873 9.74418 19.9136C9.9195 19.9568 10.0578 19.9592 14.5175 19.9592C18.9772 19.9592 19.1155 19.9568 19.2908 19.9136C19.3871 19.8873 19.5303 19.8441 19.6044 19.8178C19.6785 19.7914 19.8242 19.7171 19.9254 19.6524C20.0267 19.5877 20.1773 19.4727 20.2563 19.3936C20.3378 19.3169 20.4563 19.1707 20.523 19.0725C20.5897 18.9742 20.6662 18.8328 20.6934 18.7609C20.7206 18.689 20.7601 18.5692 20.7823 18.4973C20.8021 18.4254 20.8243 18.2672 20.8342 18.1498C20.8465 17.9461 20.844 17.9269 20.7823 17.8191C20.7453 17.7568 20.6712 17.6777 20.6119 17.6394C20.5255 17.5842 20.4835 17.5747 20.3452 17.5747C20.2119 17.5747 20.1625 17.5866 20.0835 17.637C20.0316 17.6705 19.9625 17.7352 19.9328 17.7808C19.8933 17.8383 19.8686 17.9269 19.8513 18.0779C19.8316 18.2409 19.8044 18.3343 19.7427 18.4614C19.6884 18.5668 19.6143 18.6674 19.5377 18.7369C19.4735 18.7945 19.3476 18.8759 19.2587 18.9167L19.0982 18.9886L16.4436 19.0006V15.5017C17.6215 15.5017 17.703 15.4945 17.7894 15.4562C17.8437 15.4322 17.9129 15.3867 17.9425 15.3555C17.9721 15.3244 18.0117 15.2596 18.0314 15.2141C18.0512 15.1686 18.0882 14.9793 18.1104 14.7947C18.1475 14.5072 18.1475 14.4424 18.1203 14.3514C18.1006 14.2891 18.0487 14.2076 17.9993 14.1597C17.9524 14.1141 17.8684 14.0614 17.8141 14.047C17.7474 14.0255 17.5079 14.0159 17.0782 14.0159H16.4436C16.4559 12.2784 16.4584 12.2257 16.5078 12.1227C16.535 12.0627 16.5967 11.9741 16.6436 11.9237C16.6905 11.871 16.7893 11.8015 16.8634 11.768C16.9918 11.7057 17.0239 11.7033 17.4807 11.6913C17.9425 11.6793 17.9672 11.6769 18.0586 11.6194C18.1129 11.5858 18.1845 11.5163 18.2191 11.466C18.2808 11.3773 18.2833 11.351 18.2907 11.0107C18.2981 10.7279 18.2907 10.6272 18.2611 10.553C18.2413 10.5002 18.1919 10.4283 18.1549 10.3924C18.1178 10.3564 18.0438 10.3109 17.9919 10.2917C17.94 10.2702 17.7425 10.2414 17.5227 10.2246C17.2437 10.2031 17.093 10.2031 16.9375 10.2222C16.8214 10.2366 16.6165 10.2845 16.4806 10.3277C16.3349 10.3756 16.1522 10.4571 16.0362 10.529C15.9275 10.5937 15.7793 10.6967 15.7077 10.7567C15.6336 10.8166 15.5028 10.9508 15.4163 11.0562C15.3274 11.1617 15.2064 11.3438 15.1472 11.4636C15.0854 11.581 15.0114 11.7656 14.9817 11.871C14.9299 12.0508 14.9274 12.1179 14.92 13.0381L14.9126 14.0159L13.6359 14.0279C13.4878 14.1237 13.4161 14.1932 13.3816 14.2459C13.3223 14.337 13.3198 14.3514 13.3198 14.7588C13.3198 15.1662 13.3223 15.1806 13.3816 15.2716C13.4161 15.3244 13.4878 15.3939 13.5396 15.4274L13.6359 15.4897L14.9126 15.5017V19.0006L9.93679 18.9886C9.68738 18.8759 9.56144 18.7945 9.49724 18.7369C9.41822 18.6674 9.34414 18.5668 9.28734 18.4518L9.19597 18.272V9.37868C9.31204 9.13663 9.39599 9.01441 9.45526 8.9521C9.52687 8.87542 9.63059 8.80352 9.74912 8.7484L9.93432 8.65973H19.1007C19.4044 8.80352 19.5081 8.87542 19.5797 8.9521C19.639 9.01441 19.7229 9.13663 19.7649 9.22291L19.839 9.37868L19.8637 15.8037C19.9625 15.9498 20.0341 16.0193 20.0884 16.0529C20.165 16.1008 20.2168 16.1128 20.3452 16.1128C20.4736 16.1128 20.5255 16.1008 20.6045 16.0529C20.6564 16.0193 20.7329 15.945 20.77 15.8851L20.8391 15.7773C20.8391 9.51767 20.8366 9.37149 20.7922 9.19894C20.765 9.10069 20.723 8.95929 20.6934 8.8874C20.6662 8.8155 20.5897 8.67411 20.523 8.57586C20.4563 8.4776 20.3403 8.33381 20.2637 8.25712C20.1847 8.18283 20.0365 8.0654 19.9304 8.0007C19.8266 7.9336 19.6785 7.85691 19.6044 7.83055C19.5303 7.80419 19.3871 7.76105 19.2883 7.73469C19.1155 7.69155 18.9797 7.68916 14.4977 7.69155C10.1245 7.69395 9.87999 7.69635 9.72689 7.73709Z" fill="#F5F5F5"/>
</svg>
