<svg width="29" height="28" viewBox="0 0 29 28" fill="none" xmlns="http://www.w3.org/2000/svg">
<path fill-rule="evenodd" clip-rule="evenodd" d="M14.475 27.65C22.1104 27.65 28.3 21.4603 28.3 13.825C28.3 6.18966 22.1104 0 14.475 0C6.83969 0 0.650024 6.18966 0.650024 13.825C0.650024 21.4603 6.83969 27.65 14.475 27.65Z" fill="#9D5022"/>
<path fill-rule="evenodd" clip-rule="evenodd" d="M14.0035 7.10986C14.8404 7.10986 15.7119 7.12258 15.9439 7.1353C16.1735 7.15057 16.5463 7.17346 16.7709 7.18618C16.9956 7.20145 17.2894 7.23706 17.4252 7.26505C17.5609 7.29303 17.7708 7.35154 17.8942 7.39224C18.0152 7.43549 18.2102 7.51436 18.3263 7.57032C18.4423 7.62629 18.6423 7.74586 18.7706 7.8349C18.899 7.92394 19.094 8.07912 19.2002 8.18342C19.3064 8.28518 19.4742 8.47852 19.5705 8.61081C19.6668 8.7431 19.805 8.96697 19.8742 9.10689C19.9433 9.24681 20.0297 9.44015 20.0667 9.53936C20.1013 9.63603 20.1581 9.82683 20.1902 9.95912C20.2223 10.0914 20.2667 10.3102 20.2864 10.4425C20.3087 10.5748 20.3408 10.9131 20.363 11.1929C20.3901 11.5771 20.4 12.1444 20.4 13.4952C20.4 14.9809 20.3951 15.304 20.3654 15.3778C20.3482 15.4261 20.2988 15.505 20.2618 15.5533C20.2223 15.6017 20.1457 15.6627 20.0914 15.6856C20.0371 15.7111 19.9458 15.734 19.889 15.734C19.8297 15.734 19.7458 15.7161 19.7038 15.6932C19.6594 15.6704 19.5903 15.622 19.5532 15.5839C19.5137 15.5482 19.4644 15.4821 19.4446 15.4414C19.41 15.3753 19.4051 15.1921 19.41 13.9532C19.4125 13.1773 19.4026 12.1927 19.3903 11.7653C19.3755 11.3176 19.3508 10.8699 19.3261 10.7096C19.3039 10.5544 19.2594 10.3204 19.2249 10.1881C19.1903 10.0558 19.1286 9.8599 19.0842 9.7556C19.0422 9.6513 18.9509 9.47831 18.8842 9.374C18.8175 9.2697 18.6842 9.09925 18.5879 8.9975C18.4917 8.89319 18.3189 8.74564 18.2028 8.66678C18.0868 8.58791 17.9041 8.48361 17.7955 8.43782C17.6869 8.39203 17.514 8.33097 17.4128 8.30299C17.3116 8.27755 17.1437 8.24448 17.0425 8.22921C16.9413 8.21649 16.608 8.19105 16.3019 8.17325C15.9489 8.15289 15.1169 8.14272 14.0306 8.14272C12.7074 8.14272 12.1717 8.15289 11.6853 8.18597C11.3051 8.21141 10.9719 8.24957 10.8459 8.27755C10.7299 8.30553 10.5472 8.3615 10.4386 8.40729C10.33 8.45308 10.1744 8.5294 10.093 8.57774C10.0115 8.62862 9.88313 8.71766 9.80907 8.77617C9.73501 8.83468 9.60663 8.95679 9.52517 9.04583C9.4437 9.13741 9.33754 9.27225 9.28817 9.34856C9.23879 9.42488 9.16967 9.547 9.1351 9.61568C9.10301 9.68437 9.04129 9.83955 8.99932 9.95912C8.95982 10.0787 8.90304 10.3 8.87342 10.4552C8.84626 10.6078 8.80923 10.8724 8.79688 11.0403C8.78207 11.2082 8.76479 12.0732 8.75738 12.961C8.74751 13.943 8.75245 14.9122 8.76973 15.4287C8.78454 15.8968 8.8117 16.3954 8.83145 16.5353C8.8512 16.6752 8.88576 16.8686 8.90798 16.9678C8.9302 17.0645 8.9771 17.2247 9.01167 17.3239C9.04623 17.4206 9.10301 17.5605 9.13757 17.6292C9.16967 17.6979 9.24373 17.8251 9.29804 17.9091C9.35482 17.993 9.46098 18.1304 9.53504 18.2118C9.61157 18.2932 9.75723 18.4255 9.85845 18.5043C9.95967 18.5832 10.1275 18.6901 10.2288 18.7409C10.33 18.7918 10.483 18.858 10.5694 18.8859C10.6534 18.9165 10.7966 18.9572 10.8879 18.9775C10.9817 18.9979 11.3397 19.0335 11.6853 19.0589C12.1717 19.092 12.7049 19.1022 14.0183 19.1022C15.1169 19.1047 15.9242 19.092 16.2895 19.0717C16.6006 19.0538 16.9413 19.0284 17.0425 19.0131C17.1437 19.0004 17.2993 18.9699 17.3881 18.9495C17.477 18.9266 17.6325 18.8732 17.7338 18.8325C17.835 18.7918 18.0053 18.7028 18.1139 18.6392C18.2201 18.573 18.3979 18.4331 18.5089 18.3263C18.6176 18.2194 18.7657 18.049 18.8348 17.9447C18.9039 17.8404 19.0076 17.6648 19.0619 17.5529C19.1187 17.441 19.1953 17.3265 19.2323 17.296C19.2693 17.268 19.3459 17.2273 19.4002 17.2095C19.4569 17.1917 19.5458 17.184 19.61 17.1917C19.6742 17.1993 19.7631 17.2374 19.8174 17.2781C19.8717 17.3163 19.9408 17.4003 19.9729 17.4639C20.0099 17.5376 20.0297 17.6216 20.0297 17.6979C20.0297 17.7946 20.0001 17.8785 19.8964 18.0922C19.8223 18.2449 19.6939 18.4636 19.61 18.5832C19.5236 18.7028 19.3533 18.9012 19.2298 19.0259C19.1064 19.1505 18.899 19.3235 18.7706 19.4125C18.6423 19.499 18.4423 19.6186 18.3263 19.6746C18.2102 19.7305 18.0152 19.8094 17.8942 19.8527C17.7708 19.8934 17.5609 19.9519 17.4252 19.9799C17.2894 20.0078 17.0129 20.0435 16.808 20.0562C16.6055 20.0689 16.1809 20.0943 15.8699 20.1121C15.5045 20.1299 14.7639 20.1376 13.7838 20.1299C12.9493 20.1223 12.0482 20.1045 11.7841 20.0892C11.5199 20.0714 11.1965 20.046 11.0681 20.0333C10.9398 20.018 10.72 19.9799 10.5818 19.9442C10.4411 19.9086 10.2238 19.8399 10.1004 19.7916C9.97448 19.7407 9.76957 19.644 9.6486 19.5728C9.52517 19.5041 9.34988 19.3871 9.2536 19.3133C9.15979 19.2421 9.0166 19.1174 8.93513 19.0411C8.85613 18.9648 8.72035 18.8096 8.63642 18.6977C8.55248 18.5858 8.45126 18.4433 8.41423 18.3797C8.37473 18.3161 8.29573 18.166 8.23648 18.0413C8.1797 17.9192 8.09823 17.7208 8.05873 17.5961C8.01676 17.474 7.96245 17.2705 7.93529 17.1459C7.90813 17.0187 7.86863 16.7795 7.84642 16.6116C7.82667 16.4437 7.79704 16.0418 7.7847 15.7212C7.77235 15.3981 7.76001 14.3755 7.76001 13.4444C7.76001 12.5133 7.77235 11.5695 7.7847 11.3456C7.79951 11.1217 7.82913 10.8012 7.84888 10.6333C7.86863 10.4654 7.90813 10.2237 7.93529 10.099C7.96245 9.97184 8.01676 9.77087 8.05873 9.64621C8.09823 9.5241 8.18217 9.31804 8.24388 9.18829C8.3056 9.06109 8.41917 8.85758 8.4957 8.73801C8.57223 8.61844 8.7401 8.41238 8.87095 8.28009C8.99932 8.14781 9.1746 7.98754 9.25854 7.92394C9.34495 7.86034 9.50542 7.75603 9.61651 7.68735C9.73007 7.6212 9.93251 7.52199 10.0683 7.46602C10.2041 7.4126 10.4312 7.33882 10.5744 7.30321C10.7176 7.26759 10.9274 7.22689 11.0434 7.21417C11.1595 7.1989 11.5249 7.17601 11.8581 7.1582C12.1914 7.14294 12.4679 7.12513 12.4729 7.12004C12.4778 7.11495 13.1666 7.10986 14.0035 7.10986ZM17.5363 9.43506C17.6375 9.44269 17.7436 9.47068 17.8202 9.51138C17.8893 9.54445 17.9806 9.61568 18.0275 9.67165C18.0744 9.72507 18.1362 9.8192 18.1633 9.8828C18.2004 9.96675 18.2152 10.0507 18.2152 10.1881C18.2152 10.3255 18.2004 10.4094 18.1633 10.4934C18.1362 10.557 18.0744 10.6511 18.0275 10.7045C17.9806 10.7605 17.8819 10.8342 17.8078 10.8699C17.6967 10.9258 17.6375 10.9386 17.4869 10.9386C17.3363 10.9386 17.277 10.9258 17.1659 10.8699C17.0919 10.8342 16.9931 10.7605 16.9462 10.7045C16.8993 10.6511 16.8401 10.557 16.8129 10.4934C16.7858 10.4298 16.7586 10.328 16.7537 10.2644C16.7463 10.2008 16.7512 10.0914 16.7685 10.0227C16.7833 9.95149 16.8277 9.84464 16.8648 9.78104C16.9018 9.71744 16.9759 9.63095 17.0302 9.59024C17.082 9.547 17.1832 9.49357 17.2499 9.46813C17.3412 9.43506 17.4202 9.42743 17.5363 9.43506ZM14.0306 10.445C14.159 10.445 14.3713 10.4603 14.4997 10.4806C14.6281 10.501 14.8182 10.5417 14.9194 10.5697C15.0206 10.5977 15.2379 10.6892 15.4008 10.7706C15.5637 10.8546 15.7859 10.9894 15.8945 11.0734C16.0032 11.1573 16.176 11.3151 16.2772 11.4245C16.3809 11.5364 16.5241 11.717 16.5981 11.8289C16.6697 11.9409 16.7833 12.1469 16.8475 12.2869C16.9117 12.4268 16.9882 12.6278 17.0178 12.7321C17.045 12.8364 17.0845 13.0322 17.1042 13.1645C17.124 13.2968 17.1413 13.5029 17.1413 13.6224C17.1413 13.742 17.124 13.9481 17.1042 14.0804C17.0845 14.2127 17.045 14.4085 17.0178 14.5128C16.9882 14.6171 16.9117 14.8181 16.8475 14.958C16.7833 15.098 16.6747 15.2989 16.6055 15.4032C16.5389 15.5075 16.3932 15.6907 16.2871 15.8077C16.1809 15.9247 16.0032 16.0876 15.8945 16.1715C15.7859 16.2555 15.5637 16.3903 15.4008 16.4742C15.2379 16.5557 15.0206 16.6472 14.9194 16.6752C14.8182 16.7032 14.6281 16.7439 14.4997 16.7643C14.3713 16.7846 14.1714 16.8024 14.0553 16.8024C13.9393 16.8024 13.7393 16.7846 13.6109 16.7643C13.4826 16.7439 13.2925 16.7032 13.1913 16.6752C13.09 16.6447 12.895 16.5658 12.7592 16.4997C12.6234 16.4335 12.4235 16.3191 12.3149 16.2427C12.2062 16.169 12.0112 15.9985 11.8804 15.8637C11.7495 15.7289 11.5841 15.5279 11.5125 15.416C11.4384 15.304 11.3274 15.098 11.2632 14.958C11.199 14.8181 11.1224 14.6171 11.0928 14.5128C11.0657 14.4085 11.0262 14.2127 11.0064 14.0804C10.9867 13.9481 10.9694 13.742 10.9694 13.6224C10.9694 13.5029 10.9867 13.2968 11.0064 13.1645C11.0262 13.0322 11.0657 12.8364 11.0928 12.7321C11.12 12.6278 11.2089 12.4039 11.2879 12.236C11.3693 12.0681 11.5002 11.8391 11.5816 11.7272C11.6631 11.6152 11.8162 11.4372 11.9223 11.3329C12.0309 11.226 12.2062 11.0785 12.3149 11.0022C12.4235 10.9284 12.6234 10.8114 12.7592 10.7452C12.895 10.6765 13.095 10.5977 13.2036 10.5671C13.3122 10.5366 13.49 10.4959 13.5986 10.4806C13.7072 10.4628 13.9023 10.4476 14.0306 10.445ZM13.4258 11.5644C13.3295 11.5949 13.1987 11.6483 13.1295 11.6814C13.0629 11.717 12.9394 11.7933 12.858 11.8518C12.7765 11.9078 12.6481 12.0172 12.5741 12.0961C12.4975 12.1724 12.3914 12.3047 12.3371 12.3886C12.2803 12.4726 12.2112 12.5921 12.1791 12.6557C12.147 12.7193 12.0951 12.8491 12.0655 12.9483C12.0334 13.045 11.9939 13.218 11.9791 13.3299C11.9618 13.4444 11.9569 13.6352 11.9643 13.7624C11.9717 13.887 12.0087 14.0905 12.0433 14.2127C12.0779 14.3373 12.1346 14.4976 12.1692 14.5688C12.2062 14.6426 12.2803 14.7723 12.3371 14.8563C12.3914 14.9402 12.4975 15.0725 12.5741 15.1488C12.6481 15.2277 12.7765 15.3371 12.858 15.3931C12.9394 15.4516 13.0654 15.5279 13.1369 15.566C13.2061 15.6017 13.3616 15.6627 13.4826 15.7009C13.6727 15.7594 13.7369 15.767 14.0553 15.767C14.3738 15.767 14.438 15.7594 14.6305 15.7009C14.749 15.6627 14.9046 15.6017 14.9762 15.566C15.0453 15.5279 15.1712 15.4516 15.2527 15.3931C15.3341 15.3371 15.4625 15.2277 15.5366 15.1488C15.6131 15.0725 15.7193 14.9402 15.7736 14.8563C15.8304 14.7723 15.9044 14.6426 15.9414 14.5688C15.976 14.4976 16.0353 14.3373 16.0723 14.2127C16.1291 14.0168 16.1365 13.9506 16.1365 13.6224C16.1365 13.2943 16.1291 13.2281 16.0723 13.0297C16.0353 12.9076 15.976 12.7473 15.9414 12.6735C15.9044 12.6023 15.8304 12.4726 15.7736 12.3886C15.7193 12.3047 15.6131 12.1724 15.5366 12.0961C15.4625 12.0172 15.3341 11.9078 15.2527 11.8518C15.1712 11.7933 15.0453 11.717 14.9762 11.6788C14.9046 11.6432 14.749 11.5822 14.6305 11.5466C14.4676 11.4982 14.3417 11.4804 14.1294 11.4728C13.9739 11.4677 13.7912 11.4728 13.722 11.4855C13.6554 11.4982 13.5196 11.5338 13.4258 11.5644Z" fill="#F5F5F5"/>
</svg>
