<svg width="16" height="17" viewBox="0 0 16 17" fill="none" xmlns="http://www.w3.org/2000/svg">
<path fill-rule="evenodd" clip-rule="evenodd" d="M7.90312 0C8.9625 0 10.0656 0.0161011 10.3594 0.0322023C10.65 0.0515236 11.1219 0.0805057 11.4062 0.0966068C11.6906 0.115928 12.0625 0.161011 12.2344 0.196434C12.4062 0.231856 12.6719 0.305921 12.8281 0.357445C12.9813 0.412189 13.2281 0.512016 13.375 0.582861C13.5219 0.653706 13.775 0.805057 13.9375 0.917764C14.1 1.03047 14.3469 1.22691 14.4812 1.35894C14.6156 1.48774 14.8281 1.73248 14.95 1.89993C15.0719 2.06739 15.2469 2.35077 15.3344 2.52788C15.4219 2.70499 15.5312 2.94973 15.5781 3.07532C15.6219 3.19768 15.6938 3.4392 15.7344 3.60665C15.775 3.77411 15.8312 4.05104 15.8562 4.2185C15.8844 4.38595 15.925 4.81424 15.9531 5.16846C15.9875 5.65472 16 6.37283 16 8.08277C16 9.96338 15.9938 10.3723 15.9563 10.4657C15.9344 10.5269 15.8719 10.6267 15.825 10.6879C15.775 10.7491 15.6781 10.8264 15.6094 10.8554C15.5406 10.8876 15.425 10.9166 15.3531 10.9166C15.2781 10.9166 15.1719 10.894 15.1187 10.865C15.0625 10.8361 14.975 10.7749 14.9281 10.7266C14.8781 10.6815 14.8156 10.5978 14.7906 10.5462C14.7469 10.4625 14.7406 10.2307 14.7469 8.66241C14.75 7.68024 14.7375 6.43401 14.7219 5.89301C14.7031 5.32625 14.6719 4.75949 14.6406 4.55662C14.6125 4.36019 14.5562 4.06393 14.5125 3.89647C14.4687 3.72902 14.3906 3.48106 14.3344 3.34904C14.2813 3.21701 14.1656 2.99803 14.0813 2.866C13.9969 2.73397 13.8281 2.51822 13.7063 2.38941C13.5844 2.25738 13.3656 2.07061 13.2188 1.97078C13.0719 1.87095 12.8406 1.73892 12.7031 1.68096C12.5656 1.62299 12.3469 1.54571 12.2188 1.51029C12.0906 1.47808 11.8781 1.43622 11.75 1.4169C11.6219 1.4008 11.2 1.3686 10.8125 1.34605C10.3656 1.32029 9.3125 1.30741 7.9375 1.30741C6.2625 1.30741 5.58438 1.32029 4.96875 1.36216C4.4875 1.39436 4.06562 1.44266 3.90625 1.47808C3.75938 1.51351 3.52813 1.58435 3.39062 1.64232C3.25312 1.70028 3.05625 1.79689 2.95312 1.85807C2.85 1.92248 2.6875 2.03518 2.59375 2.10925C2.5 2.18331 2.3375 2.33788 2.23438 2.45059C2.13125 2.56652 1.99688 2.73719 1.93438 2.8338C1.87188 2.93041 1.78438 3.08498 1.74063 3.17192C1.7 3.25887 1.62188 3.4553 1.56875 3.60665C1.51875 3.758 1.44687 4.03816 1.40937 4.2346C1.375 4.42781 1.32812 4.76271 1.3125 4.97525C1.29375 5.18778 1.27188 6.28266 1.2625 7.40652C1.25 8.64953 1.25625 9.87643 1.27813 10.5301C1.29688 11.1227 1.33125 11.7538 1.35625 11.9309C1.38125 12.1081 1.425 12.3528 1.45312 12.4784C1.48125 12.6007 1.54063 12.8036 1.58438 12.9292C1.62813 13.0516 1.7 13.2287 1.74375 13.3156C1.78437 13.4026 1.87812 13.5636 1.94687 13.6699C2.01875 13.7761 2.15313 13.95 2.24688 14.0531C2.34375 14.1561 2.52813 14.3236 2.65625 14.4234C2.78437 14.5232 2.99688 14.6585 3.125 14.7229C3.25312 14.7873 3.44688 14.871 3.55625 14.9064C3.6625 14.9451 3.84375 14.9966 3.95937 15.0224C4.07812 15.0481 4.53125 15.0932 4.96875 15.1254C5.58438 15.1673 6.25937 15.1801 7.92188 15.1801C9.3125 15.1834 10.3344 15.1673 10.7969 15.1415C11.1906 15.119 11.6219 15.0868 11.75 15.0674C11.8781 15.0513 12.075 15.0127 12.1875 14.9869C12.3 14.958 12.4969 14.8903 12.625 14.8388C12.7531 14.7873 12.9687 14.6746 13.1062 14.5941C13.2406 14.5103 13.4656 14.3332 13.6062 14.198C13.7437 14.0627 13.9313 13.847 14.0188 13.7149C14.1063 13.5829 14.2375 13.3607 14.3062 13.219C14.3781 13.0773 14.475 12.9324 14.5219 12.8938C14.5688 12.8584 14.6656 12.8068 14.7344 12.7843C14.8062 12.7618 14.9188 12.7521 15 12.7618C15.0812 12.7714 15.1937 12.8197 15.2625 12.8712C15.3312 12.9195 15.4188 13.0258 15.4594 13.1063C15.5063 13.1997 15.5312 13.306 15.5312 13.4026C15.5312 13.525 15.4938 13.6312 15.3625 13.9017C15.2688 14.0949 15.1063 14.3719 15 14.5232C14.8906 14.6746 14.675 14.9257 14.5188 15.0835C14.3625 15.2413 14.1 15.4603 13.9375 15.573C13.775 15.6825 13.5219 15.8339 13.375 15.9047C13.2281 15.9755 12.9813 16.0754 12.8281 16.1301C12.6719 16.1816 12.4062 16.2557 12.2344 16.2911C12.0625 16.3265 11.7125 16.3716 11.4531 16.3877C11.1969 16.4038 10.6594 16.436 10.2656 16.4586C9.80312 16.4811 8.86563 16.4908 7.625 16.4811C6.56875 16.4715 5.42812 16.4489 5.09375 16.4296C4.75938 16.4071 4.35 16.3749 4.1875 16.3587C4.025 16.3394 3.74688 16.2911 3.57188 16.246C3.39375 16.201 3.11875 16.114 2.9625 16.0528C2.80313 15.9884 2.54375 15.8661 2.39062 15.7759C2.23438 15.6889 2.0125 15.5408 1.89062 15.4474C1.77188 15.3573 1.59062 15.1995 1.4875 15.1029C1.3875 15.0063 1.21563 14.8098 1.10938 14.6681C1.00312 14.5264 0.875 14.3461 0.828125 14.2656C0.778125 14.1851 0.678125 13.9951 0.603125 13.8373C0.53125 13.6827 0.428125 13.4316 0.378125 13.2738C0.325 13.1192 0.25625 12.8616 0.221875 12.7038C0.1875 12.5428 0.1375 12.2401 0.109375 12.0275C0.084375 11.815 0.046875 11.3062 0.03125 10.9005C0.015625 10.4915 0 9.19697 0 8.01836C0 6.83976 0.015625 5.64506 0.03125 5.36168C0.05 5.0783 0.0875 4.67255 0.1125 4.46001C0.1375 4.24748 0.1875 3.94156 0.221875 3.78377C0.25625 3.62275 0.325 3.36836 0.378125 3.21057C0.428125 3.05599 0.534375 2.79516 0.6125 2.63092C0.690625 2.46991 0.834375 2.2123 0.93125 2.06094C1.02812 1.90959 1.24062 1.64876 1.40625 1.4813C1.56875 1.31385 1.79063 1.11098 1.89688 1.03047C2.00625 0.949967 2.20937 0.817937 2.35 0.730991C2.49375 0.647265 2.75 0.521677 2.92188 0.450832C3.09375 0.383207 3.38125 0.28982 3.5625 0.244737C3.74375 0.199654 4.00938 0.14813 4.15625 0.132029C4.30312 0.112708 4.76562 0.0837259 5.1875 0.0611843C5.60938 0.0418629 5.95937 0.0193214 5.96562 0.0128809C5.97187 0.00644045 6.84375 0 7.90312 0ZM12.375 2.94329C12.5031 2.95295 12.6375 2.98837 12.7344 3.03989C12.8219 3.08176 12.9375 3.17192 12.9969 3.24277C13.0562 3.31039 13.1344 3.42954 13.1687 3.51005C13.2156 3.61631 13.2344 3.72258 13.2344 3.89647C13.2344 4.07037 13.2156 4.17663 13.1687 4.2829C13.1344 4.36341 13.0562 4.48256 12.9969 4.55018C12.9375 4.62102 12.8125 4.71441 12.7188 4.75949C12.5781 4.83034 12.5031 4.84644 12.3125 4.84644C12.1219 4.84644 12.0469 4.83034 11.9062 4.75949C11.8125 4.71441 11.6875 4.62102 11.6281 4.55018C11.5688 4.48256 11.4938 4.36341 11.4594 4.2829C11.425 4.2024 11.3906 4.07359 11.3844 3.99308C11.375 3.91257 11.3812 3.77411 11.4031 3.68716C11.4219 3.59699 11.4781 3.46174 11.525 3.38124C11.5719 3.30073 11.6656 3.19124 11.7344 3.13972C11.8 3.08498 11.9281 3.01735 12.0125 2.98515C12.1281 2.94329 12.2281 2.93363 12.375 2.94329ZM7.9375 4.22172C8.1 4.22172 8.36875 4.24104 8.53125 4.2668C8.69375 4.29256 8.93438 4.34409 9.0625 4.37951C9.19062 4.41493 9.46563 4.53086 9.67188 4.63391C9.87812 4.74017 10.1594 4.91085 10.2969 5.01711C10.4344 5.12338 10.6531 5.32303 10.7812 5.4615C10.9125 5.60319 11.0938 5.83183 11.1875 5.97352C11.2781 6.11521 11.4219 6.37605 11.5031 6.55316C11.5844 6.73027 11.6812 6.98467 11.7188 7.1167C11.7531 7.24873 11.8031 7.49669 11.8281 7.66414C11.8531 7.83159 11.875 8.09243 11.875 8.24378C11.875 8.39513 11.8531 8.65597 11.8281 8.82342C11.8031 8.99087 11.7531 9.23883 11.7188 9.37086C11.6812 9.50289 11.5844 9.75729 11.5031 9.9344C11.4219 10.1115 11.2844 10.3659 11.1969 10.4979C11.1125 10.63 10.9281 10.8618 10.7937 11.01C10.6594 11.1581 10.4344 11.3642 10.2969 11.4704C10.1594 11.5767 9.87812 11.7474 9.67188 11.8537C9.46563 11.9567 9.19062 12.0726 9.0625 12.1081C8.93438 12.1435 8.69375 12.195 8.53125 12.2208C8.36875 12.2465 8.11562 12.2691 7.96875 12.2691C7.82188 12.2691 7.56875 12.2465 7.40625 12.2208C7.24375 12.195 7.00312 12.1435 6.875 12.1081C6.74688 12.0694 6.5 11.9696 6.32812 11.8859C6.15625 11.8021 5.90313 11.6572 5.76562 11.5606C5.62812 11.4672 5.38125 11.2515 5.21562 11.0808C5.05 10.9101 4.84063 10.6557 4.75 10.514C4.65625 10.3723 4.51562 10.1115 4.43437 9.9344C4.35312 9.75729 4.25625 9.50289 4.21875 9.37086C4.18437 9.23883 4.13438 8.99087 4.10938 8.82342C4.08437 8.65597 4.0625 8.39513 4.0625 8.24378C4.0625 8.09243 4.08437 7.83159 4.10938 7.66414C4.13438 7.49669 4.18437 7.24873 4.21875 7.1167C4.25313 6.98467 4.36562 6.70129 4.46562 6.48876C4.56875 6.27622 4.73438 5.9864 4.8375 5.84471C4.94063 5.70302 5.13438 5.4776 5.26875 5.34558C5.40625 5.21033 5.62812 5.02355 5.76562 4.92695C5.90313 4.83356 6.15625 4.68543 6.32812 4.6017C6.5 4.51476 6.75312 4.41493 6.89062 4.37629C7.02813 4.33764 7.25312 4.28612 7.39062 4.2668C7.52813 4.24426 7.775 4.22494 7.9375 4.22172ZM7.17188 5.63862C7.05 5.67726 6.88437 5.74488 6.79688 5.78675C6.7125 5.83183 6.55625 5.92844 6.45312 6.0025C6.35 6.07335 6.1875 6.21182 6.09375 6.31164C5.99688 6.40825 5.8625 6.5757 5.79375 6.68197C5.72187 6.78824 5.63437 6.93959 5.59375 7.02009C5.55313 7.1006 5.4875 7.26483 5.45 7.39042C5.40937 7.51279 5.35937 7.73176 5.34062 7.87345C5.31875 8.01836 5.3125 8.25988 5.32188 8.42089C5.33125 8.57868 5.37813 8.8363 5.42188 8.99087C5.46562 9.14866 5.5375 9.35154 5.58125 9.4417C5.62813 9.53509 5.72187 9.69932 5.79375 9.80559C5.8625 9.91186 5.99688 10.0793 6.09375 10.1759C6.1875 10.2757 6.35 10.4142 6.45312 10.4851C6.55625 10.5591 6.71563 10.6557 6.80625 10.704C6.89375 10.7491 7.09063 10.8264 7.24375 10.8747C7.48438 10.9488 7.56563 10.9584 7.96875 10.9584C8.37187 10.9584 8.45312 10.9488 8.69687 10.8747C8.84687 10.8264 9.04375 10.7491 9.13437 10.704C9.22187 10.6557 9.38125 10.5591 9.48438 10.4851C9.5875 10.4142 9.75 10.2757 9.84375 10.1759C9.94062 10.0793 10.075 9.91186 10.1438 9.80559C10.2156 9.69932 10.3094 9.53509 10.3562 9.4417C10.4 9.35154 10.475 9.14866 10.5219 8.99087C10.5938 8.74291 10.6031 8.65919 10.6031 8.24378C10.6031 7.82837 10.5938 7.74464 10.5219 7.49347C10.475 7.3389 10.4 7.13602 10.3562 7.04263C10.3094 6.95247 10.2156 6.78824 10.1438 6.68197C10.075 6.5757 9.94062 6.40825 9.84375 6.31164C9.75 6.21182 9.5875 6.07335 9.48438 6.0025C9.38125 5.92844 9.22187 5.83183 9.13437 5.78353C9.04375 5.73844 8.84687 5.66116 8.69687 5.61607C8.49062 5.55489 8.33125 5.53235 8.0625 5.52269C7.86562 5.51625 7.63437 5.52269 7.54688 5.53879C7.4625 5.55489 7.29062 5.59997 7.17188 5.63862Z" fill="#F5F5F5"/>
</svg>
