<svg width="28" height="28" viewBox="0 0 28 28" fill="none" xmlns="http://www.w3.org/2000/svg">
<path fill-rule="evenodd" clip-rule="evenodd" d="M13.825 27.65C21.4603 27.65 27.65 21.4603 27.65 13.825C27.65 6.18966 21.4603 0 13.825 0C6.18966 0 0 6.18966 0 13.825C0 21.4603 6.18966 27.65 13.825 27.65Z" fill="#9D5022"/>
<path fill-rule="evenodd" clip-rule="evenodd" d="M13.393 7.11022C13.7756 7.10773 13.9608 7.11769 14.22 7.1575C14.4027 7.18488 14.6421 7.2247 14.7508 7.24709C14.8594 7.26949 15.0692 7.32424 15.2198 7.36904C15.368 7.41134 15.6247 7.50093 15.7876 7.56564C15.9506 7.63283 16.1999 7.7473 16.3431 7.82196C16.4863 7.89911 16.7233 8.04096 16.8739 8.13802C17.022 8.23756 17.2565 8.40927 17.3923 8.51877C17.5281 8.62827 17.7775 8.86469 17.9478 9.03889C18.1181 9.21558 18.3305 9.45449 18.4193 9.57145C18.5107 9.68842 18.6563 9.89497 18.7452 10.0318C18.8316 10.1687 18.955 10.3753 19.0168 10.4922C19.0785 10.6092 19.1846 10.8332 19.2513 10.99C19.318 11.1467 19.4118 11.3981 19.4611 11.5499C19.508 11.6992 19.5698 11.9331 19.5994 12.0675C19.6265 12.1994 19.6735 12.4632 19.7006 12.6499C19.7352 12.8838 19.75 13.1252 19.75 13.4039C19.75 13.6304 19.7327 13.9489 19.713 14.1132C19.6907 14.2774 19.6512 14.5288 19.6241 14.6731C19.5945 14.8174 19.5352 15.0613 19.4883 15.2156C19.4414 15.3674 19.3599 15.6088 19.3031 15.7482C19.2488 15.89 19.1303 16.1439 19.0415 16.3156C18.955 16.4873 18.8242 16.7162 18.7526 16.8257C18.6835 16.9352 18.5921 17.0497 18.5526 17.0771C18.5107 17.107 18.4292 17.1443 18.3675 17.1617C18.2811 17.1841 18.2292 17.1841 18.133 17.1592C18.0465 17.1368 17.9799 17.097 17.9083 17.0273C17.8342 16.9527 17.7997 16.8929 17.7799 16.8009C17.7651 16.7312 17.7602 16.6366 17.7725 16.5893C17.7824 16.542 17.8515 16.4002 17.928 16.2783C18.0046 16.1538 18.1255 15.9423 18.1947 15.8054C18.2638 15.6685 18.3625 15.4446 18.4144 15.3077C18.4662 15.1708 18.5403 14.9518 18.5749 14.8224C18.6094 14.693 18.6613 14.4516 18.6884 14.2874C18.718 14.1231 18.7452 13.827 18.7551 13.6279C18.7625 13.4188 18.7575 13.1426 18.7403 12.9684C18.7255 12.8042 18.686 12.5404 18.6539 12.3836C18.6218 12.2268 18.5477 11.9506 18.4885 11.7739C18.4292 11.5947 18.3082 11.2985 18.2169 11.1144C18.1255 10.9302 17.975 10.664 17.8811 10.5246C17.7898 10.3852 17.617 10.1563 17.501 10.0144C17.3849 9.87258 17.1874 9.66353 17.0615 9.54657C16.9356 9.4296 16.7307 9.25789 16.6073 9.16581C16.4814 9.07124 16.2863 8.93686 16.1703 8.86718C16.0543 8.7975 15.837 8.68302 15.6889 8.61085C15.5383 8.53868 15.2815 8.43416 15.1137 8.37941C14.9483 8.32217 14.6767 8.25 14.5088 8.21765C14.3434 8.18281 14.0842 8.14299 13.9361 8.13055C13.7855 8.11562 13.5584 8.10318 13.43 8.10318C13.3016 8.10318 13.0794 8.11313 12.9362 8.12806C12.793 8.14299 12.561 8.17783 12.4178 8.20521C12.2746 8.23258 12.0574 8.28484 11.9364 8.31968C11.813 8.35453 11.6056 8.42421 11.4723 8.47896C11.3414 8.53122 11.1415 8.62329 11.0279 8.67804C10.9168 8.73528 10.7415 8.83234 10.6403 8.89455C10.5391 8.95677 10.349 9.08618 10.2206 9.18323C10.0922 9.28029 9.87745 9.46693 9.74167 9.59634C9.60589 9.72575 9.41333 9.9323 9.31211 10.0567C9.21089 10.1787 9.0603 10.3803 8.97883 10.5047C8.89736 10.6266 8.77145 10.8406 8.69986 10.9775C8.62827 11.1144 8.52458 11.3409 8.47027 11.4827C8.41349 11.6221 8.33695 11.851 8.29745 11.9929C8.25795 12.1322 8.20858 12.3413 8.18636 12.4582C8.16661 12.5752 8.13452 12.8042 8.1197 12.9684C8.10242 13.1426 8.09749 13.4139 8.10489 13.6154C8.11477 13.8071 8.13699 14.0709 8.1592 14.2003C8.18142 14.3297 8.2308 14.5586 8.26783 14.7104C8.30733 14.8597 8.38139 15.0962 8.43077 15.233C8.48261 15.3699 8.60358 15.6437 8.7048 15.8427C8.84799 16.1289 8.88502 16.226 8.88749 16.3156C8.88749 16.3778 8.7838 16.8954 8.66036 17.4653C8.53445 18.0352 8.4357 18.5105 8.44311 18.518C8.45052 18.5255 8.92699 18.4259 9.50467 18.294C10.0824 18.1621 10.6033 18.0526 10.665 18.0526C10.7489 18.0526 10.8477 18.0875 11.0847 18.2044C11.255 18.2866 11.5439 18.4035 11.7265 18.4657C11.9092 18.528 12.1981 18.6051 12.3684 18.6399C12.5388 18.6748 12.8103 18.7171 12.9733 18.732C13.1411 18.7494 13.4176 18.7544 13.6151 18.747C13.8052 18.7395 14.0768 18.7146 14.22 18.6922C14.3632 18.6698 14.5681 18.63 14.6767 18.6026C14.7853 18.5752 15.0125 18.508 15.1828 18.4508C15.3556 18.3911 15.6667 18.2542 15.8913 18.1397C16.237 17.963 16.311 17.9332 16.4172 17.9332C16.4888 17.9332 16.5776 17.9531 16.632 17.9805C16.6838 18.0053 16.7505 18.0551 16.7801 18.0875C16.8097 18.1173 16.8517 18.187 16.8714 18.2393C16.8936 18.2891 16.9109 18.3737 16.9109 18.4259C16.9109 18.4757 16.8887 18.5628 16.864 18.6175C16.8393 18.6723 16.7825 18.7519 16.7356 18.7917C16.6887 18.8341 16.506 18.9411 16.3308 19.0331C16.153 19.1227 15.8963 19.2447 15.7555 19.2994C15.6173 19.3567 15.3951 19.4338 15.2618 19.4736C15.131 19.5134 14.9137 19.5682 14.7804 19.5981C14.6495 19.6279 14.3879 19.6727 14.2002 19.7001C13.9632 19.7349 13.7312 19.7499 13.43 19.7499C13.1263 19.7499 12.8943 19.7349 12.6523 19.7001C12.4622 19.6727 12.1783 19.6205 12.0228 19.5856C11.8673 19.5508 11.6105 19.4786 11.455 19.4263C11.2995 19.3741 11.0649 19.2845 10.9365 19.2273C10.8082 19.17 10.6749 19.1128 10.6403 19.0978C10.5909 19.0755 10.3194 19.1302 9.19608 19.389C8.08267 19.6429 7.79136 19.7026 7.70249 19.6901C7.64077 19.6802 7.55189 19.6478 7.50499 19.618C7.45808 19.5856 7.39389 19.5209 7.36427 19.4736C7.33464 19.4263 7.30255 19.3392 7.29267 19.277C7.28033 19.1874 7.33711 18.8963 7.88024 16.4276L7.79383 16.2534C7.74692 16.1563 7.66299 15.9722 7.60867 15.8427C7.55436 15.7133 7.47536 15.4993 7.43092 15.3699C7.38895 15.2405 7.3223 14.9991 7.2828 14.8349C7.2433 14.6706 7.18899 14.3794 7.15936 14.1878C7.1248 13.9464 7.10999 13.715 7.10999 13.4288C7.10999 13.2023 7.12727 12.8838 7.14702 12.7195C7.16924 12.5553 7.20874 12.3139 7.23342 12.1845C7.26058 12.0551 7.31489 11.8311 7.35439 11.6868C7.39636 11.5424 7.47536 11.3085 7.53214 11.1642C7.58645 11.0198 7.70002 10.7685 7.78149 10.6042C7.86295 10.44 8.02095 10.1662 8.13452 9.99452C8.24808 9.8228 8.41595 9.58888 8.50977 9.47191C8.60111 9.35495 8.79861 9.13595 8.9492 8.98663C9.0998 8.83483 9.32692 8.62827 9.4553 8.52375C9.58367 8.41923 9.78858 8.26742 9.91202 8.1853C10.033 8.10069 10.2453 7.97128 10.3811 7.89662C10.5169 7.81947 10.7563 7.70251 10.9119 7.63532C11.0674 7.56812 11.334 7.46609 11.5044 7.41134C11.6747 7.35659 11.929 7.28691 12.0722 7.25705C12.2154 7.2247 12.4598 7.1799 12.6153 7.1575C12.8005 7.13013 13.0695 7.11271 13.393 7.11022ZM11.5957 10.6465C11.8228 10.654 11.8525 10.659 11.9117 10.7162C11.9487 10.7511 12.0105 10.8456 12.0475 10.9277C12.0845 11.0099 12.2055 11.306 12.319 11.5872C12.477 11.9854 12.519 12.1148 12.5067 12.1721C12.4993 12.2119 12.4598 12.2965 12.4203 12.3587C12.3832 12.4209 12.2771 12.5528 12.1857 12.6524C12.0771 12.7718 12.0228 12.8514 12.0228 12.8937C12.0228 12.9311 12.1067 13.0829 12.2252 13.2621C12.3734 13.4835 12.5116 13.6503 12.7387 13.8792C12.9412 14.0858 13.1263 14.2451 13.2819 14.3471C13.4102 14.4342 13.6374 14.5661 13.788 14.6383C13.9361 14.7129 14.099 14.7776 14.1459 14.7876C14.215 14.8 14.2471 14.7901 14.3039 14.7428C14.3434 14.7129 14.4866 14.5462 14.6224 14.3745C14.7582 14.2028 14.894 14.051 14.9285 14.0385C14.973 14.0211 15.0174 14.0236 15.1038 14.0559C15.168 14.0783 15.4716 14.2227 15.7802 14.372C16.2049 14.581 16.353 14.6656 16.3851 14.7179C16.4172 14.7726 16.4246 14.8199 16.4098 14.9593C16.4024 15.0539 16.3727 15.2057 16.3456 15.2953C16.3184 15.3848 16.2592 15.5068 16.2147 15.5665C16.1703 15.6262 16.0666 15.7258 15.9851 15.788C15.9037 15.8502 15.758 15.9373 15.6642 15.9821C15.5679 16.0269 15.4099 16.0767 15.3062 16.0941C15.2001 16.109 15.0371 16.1165 14.9236 16.1065C14.815 16.0991 14.5878 16.0543 14.4175 16.007C14.2471 15.9597 13.9706 15.8701 13.8003 15.8054C13.63 15.7407 13.3979 15.6387 13.2819 15.5814C13.1658 15.5242 12.9708 15.4072 12.8498 15.3251C12.7264 15.243 12.5215 15.0862 12.3931 14.9767C12.2647 14.8697 12.0549 14.6681 11.9265 14.5337C11.7981 14.3994 11.613 14.1853 11.5167 14.0634C11.418 13.939 11.2624 13.7274 11.1661 13.5906C11.0723 13.4537 10.9464 13.2571 10.8872 13.1551C10.8279 13.053 10.7489 12.8888 10.7094 12.7942C10.6699 12.6971 10.6205 12.5528 10.5983 12.4707C10.5687 12.3687 10.5564 12.2218 10.5564 12.0103C10.5564 11.7341 10.5638 11.6768 10.6255 11.5001C10.6625 11.3906 10.7193 11.2562 10.7514 11.2015C10.786 11.1467 10.8699 11.0298 10.944 10.9402C11.0328 10.8307 11.1192 10.756 11.2106 10.7087C11.334 10.644 11.3612 10.6391 11.5957 10.6465Z" fill="#F5F5F5"/>
</svg>
