<svg width="35" height="35" viewBox="0 0 35 35" fill="none" xmlns="http://www.w3.org/2000/svg">
<path fill-rule="evenodd" clip-rule="evenodd" d="M17.4999 35C27.1649 35 34.9999 27.165 34.9999 17.5C34.9999 7.83502 27.1649 0 17.4999 0C7.8349 0 -0.00012207 7.83502 -0.00012207 17.5C-0.00012207 27.165 7.8349 35 17.4999 35Z" fill="#9D5022"/>
<path d="M24.5844 10.1254C24.7896 10.3059 24.8063 10.6148 24.6215 10.8154L20.1215 15.7009C19.9368 15.9014 19.6207 15.9177 19.4154 15.7372C19.2101 15.5567 19.1935 15.2478 19.3782 15.0472L23.8782 10.1617C24.063 9.96118 24.3791 9.94492 24.5844 10.1254Z" fill="#F5F5F5"/>
<path d="M15.5737 20.1316C15.7841 20.3063 15.8097 20.6146 15.6308 20.8202L11.3808 25.7057C11.202 25.9113 10.8865 25.9363 10.6761 25.7616C10.4657 25.5868 10.4401 25.2785 10.6189 25.0729L14.8689 20.1874C15.0478 19.9818 15.3633 19.9568 15.5737 20.1316Z" fill="#F5F5F5"/>
<path fill-rule="evenodd" clip-rule="evenodd" d="M13.8749 10C14.0391 10 14.1929 10.0788 14.2862 10.2108L24.9112 25.2337C25.0169 25.3831 25.029 25.5775 24.9427 25.7384C24.8563 25.8992 24.6858 26 24.4999 26H21.1249C20.9607 26 20.8069 25.9212 20.7135 25.7892L10.0885 10.7663C9.98286 10.6169 9.97074 10.4225 10.0571 10.2616C10.1434 10.1008 10.314 10 10.4999 10H13.8749ZM13.6126 10.9771H11.4532L21.3871 25.0229H23.5466L13.6126 10.9771Z" fill="#F5F5F5"/>
</svg>
