<svg width="29" height="28" viewBox="0 0 29 28" fill="none" xmlns="http://www.w3.org/2000/svg">
<path fill-rule="evenodd" clip-rule="evenodd" d="M14.775 27.65C22.4103 27.65 28.6 21.4603 28.6 13.825C28.6 6.18966 22.4103 0 14.775 0C7.13961 0 0.949951 6.18966 0.949951 13.825C0.949951 21.4603 7.13961 27.65 14.775 27.65Z" fill="#9D5022"/>
<path d="M20.2398 8.00014C20.4001 8.14441 20.4131 8.3913 20.2688 8.5516L16.7545 12.4564C16.6103 12.6167 16.3634 12.6297 16.2031 12.4854C16.0428 12.3411 16.0298 12.0942 16.174 11.9339L19.6883 8.02917C19.8326 7.86887 20.0795 7.85588 20.2398 8.00014Z" fill="#F5F5F5"/>
<path d="M13.2029 15.9976C13.3672 16.1373 13.3872 16.3837 13.2475 16.5481L9.92845 20.4528C9.78878 20.6171 9.54235 20.6371 9.37804 20.4975C9.21372 20.3578 9.19374 20.1114 9.33341 19.947L12.6525 16.0423C12.7921 15.878 13.0386 15.858 13.2029 15.9976Z" fill="#F5F5F5"/>
<path fill-rule="evenodd" clip-rule="evenodd" d="M11.8762 7.89991C12.0044 7.89991 12.1245 7.96288 12.1974 8.06839L20.495 20.0756C20.5776 20.195 20.587 20.3504 20.5196 20.4789C20.4522 20.6075 20.319 20.688 20.1738 20.688H17.5381C17.4098 20.688 17.2898 20.6251 17.2169 20.5195L8.91922 8.51237C8.83668 8.39294 8.82722 8.23758 8.89465 8.10901C8.96209 7.98045 9.09528 7.89991 9.24045 7.89991H11.8762ZM11.6714 8.68086H9.98494L17.7429 19.9071H19.4293L11.6714 8.68086Z" fill="#F5F5F5"/>
</svg>
