<svg width="83" height="52" viewBox="0 0 83 52" fill="none" xmlns="http://www.w3.org/2000/svg">
<path fill-rule="evenodd" clip-rule="evenodd" d="M8.04138 0.932098H20.9942C21.6795 0.932098 22.2351 1.48767 22.2351 2.173V6.60719C22.2351 7.29252 21.6795 7.84809 20.9942 7.84809H8.04138C7.35605 7.84809 6.80048 7.29252 6.80048 6.60719V2.173C6.80048 1.48767 7.35605 0.932098 8.04138 0.932098ZM68.5042 32.5378H77.9345V36.6363C77.9345 37.7785 78.8606 38.7046 80.0027 38.7046C81.1449 38.7046 82.071 37.7785 82.071 36.6363V16.0759C82.071 12.6591 79.283 9.87119 75.8662 9.87119C73.6535 9.87119 71.4408 9.87051 69.2281 9.86983C67.0154 9.86914 64.8027 9.86846 62.59 9.86846C61.4478 9.86846 60.5217 10.7945 60.5217 11.9367C60.5217 13.0789 61.4478 14.005 62.59 14.005L75.8662 14.0077C76.9995 14.0077 77.9345 14.9427 77.9345 16.0759V28.4013H68.5042C67.362 28.4013 66.4359 29.3274 66.4359 30.4696C66.4359 31.6117 67.362 32.5378 68.5042 32.5378ZM80.0027 40.7319C78.8606 40.7319 77.9345 41.658 77.9345 42.8001V42.8004V44.8634C77.9345 45.9967 76.9995 46.9317 75.8662 46.9317H6.20474C5.07151 46.9317 4.13649 45.9967 4.13649 44.8634V32.5381H23.7882C24.9303 32.5381 25.8564 31.612 25.8564 30.4698C25.8564 29.3276 24.9303 28.4016 23.7882 28.4016H4.13649V16.0762C4.13649 14.9429 5.07151 14.0079 6.20474 14.0079H38.7735C39.4482 14.0079 40.1271 13.9916 40.81 13.9752C45.4049 13.8646 50.1871 13.7495 55.1671 18.5736C57.4492 20.8227 58.8608 23.9331 58.8608 27.3718C58.8608 30.8104 57.4492 33.9209 55.1671 36.17C52.8756 38.4285 49.7034 39.8254 46.1943 39.8254C42.6852 39.8254 39.513 38.4285 37.2215 36.17C34.9394 33.9209 33.5278 30.8104 33.5278 27.3718C33.5278 26.2807 33.673 25.2003 33.9563 24.1576C34.2445 23.0961 34.6643 22.0872 35.2078 21.1584C35.7834 20.1767 35.4542 18.9142 34.4725 18.3387C33.4909 17.7631 32.2284 18.0923 31.6528 19.074C30.9054 20.3516 30.3395 21.6972 29.9651 23.075C29.5858 24.4715 29.3911 25.9158 29.3911 27.3718C29.3911 31.9536 31.278 36.1042 34.3289 39.1109C37.3701 42.1082 41.5654 43.9622 46.1941 43.9622C50.8228 43.9622 55.018 42.1082 58.0593 39.1109C61.1099 36.1042 62.9971 31.9536 62.9971 27.3718C62.9971 22.79 61.1102 18.6393 58.0593 15.6326C54.0902 11.5336 50.176 9.84812 44.549 9.84812C38.1603 9.84812 31.7694 9.85389 25.3782 9.85965C18.9866 9.86542 12.5948 9.87119 6.20474 9.87119C2.78793 9.87119 0 12.6591 0 16.0759V30.4696V44.8632C0 48.28 2.78793 51.0679 6.20474 51.0679H75.8662C79.2833 51.0679 82.071 48.2795 82.071 44.8632V42.8001C82.071 41.658 81.1449 40.7319 80.0027 40.7319Z" fill="#3B1F13"/>
<mask id="mask0_166_2" style="mask-type:alpha" maskUnits="userSpaceOnUse" x="0" y="0" width="83" height="52">
<path fill-rule="evenodd" clip-rule="evenodd" d="M8.02657 0.932098H20.9794C21.6647 0.932098 22.2202 1.48767 22.2202 2.173V6.60719C22.2202 7.29252 21.6647 7.84809 20.9794 7.84809H8.02657C7.34124 7.84809 6.78568 7.29252 6.78568 6.60719V2.173C6.78568 1.48767 7.34124 0.932098 8.02657 0.932098ZM68.5042 32.5378H77.9345V36.6363C77.9345 37.7785 78.8606 38.7046 80.0027 38.7046C81.1449 38.7046 82.071 37.7785 82.071 36.6363V16.0759C82.071 12.6591 79.283 9.87119 75.8662 9.87119C73.6535 9.87119 71.4408 9.87051 69.2281 9.86983C67.0154 9.86914 64.8027 9.86846 62.59 9.86846C61.4478 9.86846 60.5217 10.7945 60.5217 11.9367C60.5217 13.0789 61.4478 14.005 62.59 14.005L75.8662 14.0077C76.9995 14.0077 77.9345 14.9427 77.9345 16.0759V28.4013H68.5042C67.362 28.4013 66.4359 29.3274 66.4359 30.4696C66.4359 31.6117 67.362 32.5378 68.5042 32.5378ZM80.0027 40.7319C78.8606 40.7319 77.9345 41.658 77.9345 42.8001V42.8004V44.8634C77.9345 45.9967 76.9995 46.9317 75.8662 46.9317H6.20474C5.07151 46.9317 4.13649 45.9967 4.13649 44.8634V32.5381H23.7882C24.9303 32.5381 25.8564 31.612 25.8564 30.4698C25.8564 29.3276 24.9303 28.4016 23.7882 28.4016H4.13649V16.0762C4.13649 14.9429 5.07151 14.0079 6.20474 14.0079H38.7735C39.4482 14.0079 40.1271 13.9916 40.81 13.9752C45.4049 13.8646 50.1871 13.7495 55.1671 18.5736C57.4492 20.8227 58.8608 23.9331 58.8608 27.3718C58.8608 30.8104 57.4492 33.9209 55.1671 36.17C52.8756 38.4285 49.7034 39.8254 46.1943 39.8254C42.6852 39.8254 39.513 38.4285 37.2215 36.17C34.9394 33.9209 33.5278 30.8104 33.5278 27.3718C33.5278 26.2807 33.673 25.2003 33.9563 24.1576C34.2445 23.0961 34.6643 22.0872 35.2078 21.1584C35.7834 20.1767 35.4542 18.9142 34.4725 18.3387C33.4909 17.7631 32.2284 18.0923 31.6528 19.074C30.9054 20.3516 30.3395 21.6972 29.9651 23.075C29.5858 24.4715 29.3911 25.9158 29.3911 27.3718C29.3911 31.9536 31.278 36.1042 34.3289 39.1109C37.3701 42.1082 41.5654 43.9622 46.1941 43.9622C50.8228 43.9622 55.018 42.1082 58.0593 39.1109C61.1099 36.1042 62.9971 31.9536 62.9971 27.3718C62.9971 22.79 61.1102 18.6393 58.0593 15.6326C54.0902 11.5336 50.176 9.84812 44.549 9.84812C38.1603 9.84812 31.7694 9.85389 25.3782 9.85965C18.9866 9.86542 12.5948 9.87119 6.20474 9.87119C2.78793 9.87119 0 12.6591 0 16.0759V30.4696V44.8632C0 48.28 2.78793 51.0679 6.20474 51.0679H75.8662C79.2833 51.0679 82.071 48.2795 82.071 44.8632V42.8001C82.071 41.658 81.1449 40.7319 80.0027 40.7319Z" fill="#3B1F13"/>
</mask>
<g mask="url(#mask0_166_2)">
<path d="M59.7574 6.95163H89.3078V39.7855H64.9561V22.9855L59.7574 14.8865V6.95163Z" fill="url(#paint0_linear_166_2)"/>
<rect x="-2.73598" y="8.48389" width="28.6749" height="44.7635" fill="url(#paint1_linear_166_2)"/>
<rect x="25.9388" y="8.48389" width="14.228" height="7.3329" fill="url(#paint2_linear_166_2)"/>
<rect x="25.2818" y="45.9146" width="13.243" height="7.3329" fill="url(#paint3_linear_166_2)"/>
</g>
<defs>
<linearGradient id="paint0_linear_166_2" x1="60" y1="8.9321" x2="84" y2="37.4321" gradientUnits="userSpaceOnUse">
<stop stop-color="#9D5022"/>
<stop offset="0.866196" stop-color="#3B1F13"/>
</linearGradient>
<linearGradient id="paint1_linear_166_2" x1="-2.73598" y1="8.48389" x2="33.5917" y2="45.7966" gradientUnits="userSpaceOnUse">
<stop stop-color="#9D5022"/>
<stop offset="1" stop-color="#3B1F13"/>
</linearGradient>
<linearGradient id="paint2_linear_166_2" x1="25.9388" y1="11.822" x2="40.1668" y2="11.822" gradientUnits="userSpaceOnUse">
<stop stop-color="#723A1B"/>
<stop offset="1" stop-color="#3B1F13"/>
</linearGradient>
<linearGradient id="paint3_linear_166_2" x1="25.2818" y1="45.9146" x2="39.4456" y2="50.215" gradientUnits="userSpaceOnUse">
<stop stop-color="#442314"/>
<stop offset="1" stop-color="#3B1F13"/>
</linearGradient>
</defs>
</svg>
