<svg width="192" height="62" viewBox="0 0 192 62" fill="none" xmlns="http://www.w3.org/2000/svg">
<path fill-rule="evenodd" clip-rule="evenodd" d="M146.001 41.4741C146.016 41.2277 145.946 41.0038 145.795 40.8082C145.652 40.6092 145.451 40.4599 145.2 40.3576C144.955 40.249 144.69 40.1953 144.408 40.1953C144.074 40.1953 143.758 40.2623 143.462 40.3968L143.461 40.3973C143.169 40.5331 142.933 40.728 142.754 40.9819C142.573 41.2396 142.483 41.5353 142.483 41.8643C142.483 42.2013 142.58 42.4993 142.777 42.752L142.778 42.7534C142.966 42.9888 143.207 43.1918 143.497 43.3631C143.78 43.5303 144.191 43.7438 144.729 44.0033C145.121 44.196 145.382 44.382 145.529 44.5567L145.53 44.5586C145.676 44.7262 145.754 44.9429 145.754 45.2197C145.754 45.4809 145.69 45.7122 145.565 45.9172C145.439 46.1169 145.268 46.2744 145.049 46.39C144.829 46.4997 144.585 46.5554 144.314 46.5554C143.956 46.5554 143.611 46.4532 143.277 46.2447C142.955 46.0337 142.741 45.7526 142.631 45.398C142.62 45.3627 142.594 45.3334 142.561 45.3174C142.528 45.3014 142.489 45.2999 142.454 45.3135L141.971 45.503C141.908 45.5279 141.873 45.5965 141.891 45.6622C141.98 45.9898 142.154 46.2816 142.409 46.5369L142.41 46.5381C142.669 46.79 142.967 46.9856 143.304 47.1247C143.641 47.2699 143.978 47.3437 144.314 47.3437C144.707 47.3437 145.078 47.2569 145.425 47.0832L145.427 47.0823C145.775 46.9017 146.055 46.6528 146.264 46.3362C146.481 46.0097 146.589 45.6393 146.589 45.2292C146.589 44.8179 146.474 44.4597 146.239 44.162C146.014 43.8625 145.642 43.5806 145.138 43.312C145.071 43.2721 145.001 43.2356 144.928 43.2025C144.86 43.1715 144.795 43.1406 144.734 43.1098C144.732 43.1092 144.731 43.1085 144.729 43.1079C144.429 42.9703 144.181 42.846 143.983 42.735C143.8 42.6223 143.641 42.4865 143.505 42.3275C143.38 42.1799 143.319 42.0176 143.319 41.8359C143.319 41.602 143.415 41.4052 143.62 41.2387C143.834 41.0695 144.089 40.9836 144.389 40.9836C144.602 40.9836 144.795 41.0322 144.97 41.1283C144.971 41.1291 144.973 41.1299 144.974 41.1307C145.144 41.2155 145.204 41.3179 145.204 41.4378C145.204 41.5088 145.259 41.5673 145.33 41.5711L145.861 41.5995C145.934 41.6035 145.997 41.5474 146.001 41.4741Z" fill="#4D5C7E"/>
<path d="M134.265 40.3413C134.239 40.309 134.201 40.2901 134.16 40.2901H133.989C133.915 40.2901 133.855 40.3499 133.855 40.4236V46.9923C133.855 47.066 133.915 47.1258 133.989 47.1258H134.558C134.631 47.1258 134.691 47.066 134.691 46.9923V42.4046C134.691 42.3673 134.69 42.3252 134.687 42.2783C134.731 42.3391 134.78 42.4024 134.832 42.4684L134.834 42.4706C135.366 43.1167 136.027 43.8858 136.818 44.7775C136.843 44.8056 136.878 44.8219 136.916 44.8225C136.953 44.8231 136.989 44.8079 137.015 44.7807C137.347 44.4292 137.761 43.9425 138.255 43.3219C138.614 42.8707 138.931 42.4592 139.207 42.0875C139.191 42.2749 139.182 42.4251 139.182 42.5373V46.9923C139.182 47.066 139.242 47.1258 139.316 47.1258H139.885C139.958 47.1258 140.018 47.066 140.018 46.9923V40.4236C140.018 40.3499 139.958 40.2901 139.885 40.2901H139.714C139.673 40.2901 139.635 40.3086 139.61 40.3402L136.909 43.7156L134.265 40.3413Z" fill="#4D5C7E"/>
<path d="M128.017 40.3754C127.943 40.3754 127.884 40.4352 127.884 40.5089V46.9922C127.884 47.066 127.943 47.1257 128.017 47.1257H131.875C131.949 47.1257 132.008 47.066 132.008 46.9922V46.4614C132.008 46.3877 131.949 46.3279 131.875 46.3279H128.719V40.5089C128.719 40.4352 128.66 40.3754 128.586 40.3754H128.017Z" fill="#4D5C7E"/>
<path d="M124.693 40.3754C124.619 40.3754 124.559 40.4352 124.559 40.5089V46.9922C124.559 47.066 124.619 47.1257 124.693 47.1257H125.271C125.345 47.1257 125.404 47.066 125.404 46.9922V40.5089C125.404 40.4352 125.345 40.3754 125.271 40.3754H124.693Z" fill="#4D5C7E"/>
<path d="M118.415 40.3754C118.341 40.3754 118.282 40.4352 118.282 40.5089V46.9922C118.282 47.066 118.341 47.1257 118.415 47.1257H118.993C119.067 47.1257 119.127 47.066 119.127 46.9922V44.0452H121.714C121.787 44.0452 121.847 43.9854 121.847 43.9117V43.3714C121.847 43.2977 121.787 43.2379 121.714 43.2379H119.127V41.1827H122.567C122.64 41.1827 122.7 41.1229 122.7 41.0492V40.5089C122.7 40.4352 122.64 40.3754 122.567 40.3754H118.415Z" fill="#4D5C7E"/>
<path d="M155.397 24.67C155.397 24.6612 155.396 24.6526 155.395 24.6442V24.631C155.395 24.0411 154.917 23.563 154.327 23.563C153.737 23.563 153.259 24.0411 153.259 24.631V24.8232C153.258 24.827 153.258 24.8308 153.258 24.8341C153.258 24.8413 153.257 24.8504 153.257 24.8606C153.256 24.8812 153.256 24.9101 153.256 24.9464C153.255 25.0192 153.254 25.1243 153.254 25.2586C153.253 25.5274 153.253 25.9144 153.254 26.3971C153.256 27.3624 153.26 28.1773 153.265 29.7298V29.7299L153.26 33.175H153.259V34.5768C153.259 35.1666 153.737 35.6448 154.327 35.6448C154.917 35.6448 155.395 35.1666 155.395 34.5768V34.0636C155.396 34.0553 155.397 34.0466 155.397 34.0378V24.67Z" fill="url(#paint0_linear_166_104)"/>
<path d="M190.165 25.8111C190.093 25.8579 190.015 25.9065 189.931 25.9568L189.931 25.9569C189.294 26.3349 188.593 26.7521 187.954 27.1322L187.93 27.1464C187.19 27.5863 186.537 27.975 186.169 28.193C185.485 28.601 185.053 28.8272 184.713 29.0237L184.713 29.0238C184.54 29.1231 184.399 29.2136 184.304 29.2806L184.3 29.2833C184.333 29.3051 184.371 29.3302 184.413 29.3579C184.551 29.4496 184.735 29.5698 184.93 29.6967C185.044 29.7692 185.192 29.8644 185.361 29.9727L185.365 29.9751L185.365 29.9753L185.365 29.9755L185.366 29.9758L185.366 29.9763C185.79 30.2479 185.272 29.933 185.716 30.2158L185.717 30.2159C186.347 30.6188 187.095 31.1013 187.387 31.2924C187.678 31.4826 188.726 32.1551 189.717 32.7858L189.718 32.786C189.936 32.9264 190.157 33.0735 190.371 33.2168L191.573 33.976C192.03 34.2886 192.133 34.878 191.82 35.3342C191.508 35.7904 190.839 35.845 190.439 35.578L189.495 34.912L187.773 33.8329L187.773 33.8327C187.481 33.6488 187.173 33.4542 186.877 33.2678L186.865 33.2604L186.865 33.2603L186.865 33.2602L186.865 33.26L186.86 33.2572L186.86 33.2571C186.277 32.889 185.746 32.5541 185.495 32.3969L185.494 32.3965C185.118 32.158 184.651 31.8611 184.46 31.7392L184.459 31.7382C184.275 31.6173 183.847 31.348 183.507 31.1358L183.507 31.1353L183.472 31.1134C183.138 30.9014 183.723 31.2622 183.448 31.0939L183.446 31.093C183.328 31.0186 183.194 30.935 183.044 30.8407L183.043 30.8402C182.847 30.7178 182.622 30.5774 182.366 30.4158L181.499 30.9301L181.498 30.9303C181.239 31.0865 180.997 31.2332 180.815 31.3454C180.724 31.4016 180.648 31.4488 180.593 31.4842C180.565 31.5019 180.543 31.5163 180.527 31.5271L180.524 31.5287C180.523 31.5377 180.521 31.5509 180.519 31.5692C180.512 31.644 180.506 31.7785 180.502 32.0258C180.494 32.5181 180.493 32.1039 180.493 33.8425V34.5768C180.493 35.1666 180.015 35.6448 179.425 35.6448C178.835 35.6448 178.357 35.1666 178.357 34.5768V24.631C178.357 24.0411 178.835 23.563 179.425 23.563C180.015 23.563 180.493 24.0411 180.493 24.631V26.0327H180.492L180.488 27.3491V27.3495C180.488 28.1357 180.493 28.3162 180.501 28.8339C180.505 29.0929 180.509 29.3021 180.514 29.4462L180.515 29.4675L180.523 29.4629C180.63 29.4041 180.772 29.3228 180.922 29.2333L180.924 29.2319C181.23 29.0578 182.146 28.518 182.962 28.0355C183.535 27.6968 183.831 27.5546 184.359 27.2438L184.367 27.2395C184.588 27.1094 184.779 26.9968 184.92 26.9141C185.11 26.8014 185.367 26.6494 185.648 26.4833L185.652 26.4805C186.084 26.225 186.572 25.9366 186.959 25.7062L186.96 25.7058C187.179 25.5771 187.427 25.4323 187.705 25.2691L187.711 25.2655C188.16 25.0028 188.69 24.6925 189.316 24.3248L190.449 23.6233C190.858 23.3736 191.392 23.5028 191.641 23.9118C191.891 24.3209 191.762 24.8549 191.353 25.1046L190.165 25.8111Z" fill="url(#paint1_linear_166_104)"/>
<path d="M160.106 25.9752C160.317 25.754 160.64 25.4626 160.828 25.3245C161.015 25.1874 161.364 24.9723 161.605 24.8385C161.848 24.7038 162.239 24.516 162.479 24.4231C162.717 24.3259 163.076 24.2027 163.287 24.1431C163.494 24.0847 163.815 23.999 164.01 23.9558C164.205 23.9125 164.627 23.8378 164.946 23.7899C165.268 23.7416 165.834 23.6829 166.205 23.6667C166.576 23.6452 167.38 23.6453 167.99 23.6612L167.991 23.6613C168.599 23.6824 169.29 23.725 169.516 23.758C169.735 23.79 170.117 23.8537 170.368 23.9018C170.619 23.9446 170.956 24.0192 171.123 24.069C171.285 24.1123 171.588 24.2028 171.792 24.2725C171.998 24.3428 172.362 24.4875 172.599 24.5952C172.838 24.704 173.226 24.9193 173.466 25.0827C173.707 25.2422 174.08 25.5555 174.294 25.7856C174.512 26.0144 174.799 26.3879 174.937 26.6261L174.938 26.627C174.992 26.7215 175.049 26.8292 175.1 26.933C175.176 27.0722 175.225 27.1701 175.225 27.1701C175.531 27.7172 175.487 28.3402 174.886 28.5692C174.186 28.8362 173.684 28.2355 173.417 27.835C173.417 27.835 173.11 27.4903 172.883 27.1701C172.825 27.1074 172.735 26.994 172.705 26.9584C172.697 26.9494 172.69 26.9409 172.683 26.933C172.639 26.8814 172.611 26.8517 172.513 26.7835C172.506 26.779 172.5 26.7739 172.495 26.7684C172.312 26.5853 172.008 26.4161 171.815 26.2997C171.62 26.1817 171.168 26.0252 170.985 25.9539C170.801 25.8823 170.415 25.7621 170.128 25.6945L170.126 25.6939C169.841 25.6214 169.322 25.5268 168.975 25.4796L168.974 25.4794C168.576 25.4225 167.964 25.396 167.271 25.396H167.27C166.569 25.3907 165.972 25.4225 165.568 25.4795L165.565 25.4798C165.222 25.5214 164.693 25.626 164.389 25.6994C164.088 25.7774 163.634 25.9285 163.376 26.0369C163.113 26.1527 162.775 26.3193 162.624 26.4103L162.623 26.4109L162.621 26.4119C162.478 26.4927 162.155 26.7627 161.908 27.0102C161.6 27.3181 161.409 27.5614 161.285 27.7988L161.285 27.7993C161.183 27.9921 161.044 28.3434 160.983 28.5671L160.983 28.5676C160.892 28.8963 160.866 29.1005 160.866 29.6712C160.866 30.1774 160.892 30.4707 160.951 30.6973L160.952 30.6986C160.996 30.8768 161.13 31.2169 161.244 31.457C161.386 31.7458 161.553 31.9837 161.788 32.2341C161.984 32.4406 162.268 32.6878 162.418 32.7933C162.574 32.8967 162.854 33.0627 163.039 33.1551C163.227 33.2491 163.493 33.3692 163.637 33.4257L163.639 33.4264C163.773 33.4811 164.1 33.58 164.364 33.6487C164.622 33.7158 165.125 33.8102 165.488 33.8628C165.93 33.92 166.496 33.9517 167.271 33.9517C168.053 33.9517 168.613 33.9252 169.081 33.8628C169.454 33.8103 169.984 33.7105 170.242 33.6434L170.243 33.6432C170.509 33.5752 170.874 33.4604 171.046 33.3895L171.047 33.389C171.226 33.3174 171.523 33.1718 171.71 33.0677C171.881 32.9726 171.882 32.9748 172.349 32.641C172.529 32.443 172.75 32.3073 173.15 31.7733C173.551 31.2393 173.818 30.6385 174.628 30.8428C175.22 31.039 175.385 31.89 175.086 32.4407L175.085 32.4415C174.985 32.6463 174.828 32.9141 174.702 33.0877L174.701 33.0891C174.56 33.2789 174.25 33.5491 174.085 33.709C173.92 33.8679 173.615 34.1111 173.417 34.243C172.883 34.599 172.72 34.6585 172.483 34.777C172.243 34.8969 172.045 34.9996 171.766 35.0963L171.764 35.097C171.483 35.1888 170.975 35.3225 170.636 35.3923C170.3 35.4617 169.81 35.5469 169.544 35.5894L169.542 35.5897C169.202 35.6391 168.543 35.7115 167.343 35.7115H167.276C165.864 35.7062 165.429 35.6391 164.945 35.563L164.944 35.5628C164.625 35.5096 164.152 35.4192 163.889 35.3602C163.628 35.3058 163.194 35.1825 162.921 35.0915L162.918 35.0904C162.652 34.9947 162.235 34.8343 161.996 34.726L161.994 34.725C161.758 34.6121 161.397 34.4187 161.185 34.2824C160.973 34.1464 160.656 33.9102 160.469 33.7602C160.468 33.7594 160.466 33.7585 160.465 33.7576C160.279 33.5983 159.976 33.2851 159.795 33.0498C159.611 32.8212 159.367 32.4489 159.256 32.2213C159.143 31.9993 159.002 31.6707 158.942 31.4886C158.881 31.3067 158.79 30.9403 158.746 30.6743C158.697 30.4056 158.659 29.9534 158.659 29.6712C158.659 29.3898 158.691 28.9629 158.736 28.72C158.779 28.4808 158.876 28.0988 158.952 27.8653L158.952 27.8644C159.028 27.6384 159.146 27.347 159.213 27.2122C159.275 27.0826 159.416 26.8454 159.523 26.6841C159.631 26.5146 159.891 26.196 160.106 25.9752Z" fill="url(#paint2_linear_166_104)"/>
<path d="M118.615 35.1775C118.282 34.8438 118.282 34.412 118.282 34.3765V24.7645C118.282 24.7279 118.348 24.364 118.615 24.097C118.882 23.83 119.083 23.7632 119.35 23.7632C119.617 23.7632 131.832 23.7632 131.832 23.7632C132.311 23.7632 132.7 24.1517 132.7 24.631C132.7 25.1102 132.311 25.4987 131.832 25.4987H131.766L120.377 25.5386V28.664L129.229 28.7085V28.7027H130.63C130.683 28.7027 130.734 28.7074 130.784 28.7163L130.789 28.7164C130.81 28.7165 130.829 28.7213 130.847 28.7299C131.221 28.8261 131.498 29.166 131.498 29.5705C131.498 30.0498 131.11 30.4383 130.63 30.4383H130.097L130.096 30.4383H120.35V33.7098L131.832 33.7758H131.832C132.311 33.7759 132.7 34.1644 132.7 34.6435C132.7 35.1228 132.311 35.5113 131.832 35.5113H131.632L131.632 35.5113L119.35 35.5275C119.314 35.5276 118.949 35.5113 118.615 35.1775Z" fill="url(#paint3_linear_166_104)"/>
<path fill-rule="evenodd" clip-rule="evenodd" d="M137.506 34.5768V33.5037V31.306L142.633 31.2887C144.423 32.9139 145.209 33.6035 145.806 34.1458L145.826 34.1647C146.092 34.4057 146.264 34.5625 146.37 34.6587L146.99 35.2255C147.002 35.2369 147.017 35.2456 147.032 35.2516L147.481 35.6599C147.89 36.0319 148.523 36.0019 148.895 35.5928C149.268 35.1837 149.237 34.5504 148.828 34.1784L148.31 33.7073C148.259 33.6529 148.203 33.5979 148.141 33.5429C148.027 33.4408 147.915 33.3424 147.805 33.2481L147.791 33.2353L147.791 33.2357C147.559 33.0366 147.34 32.8557 147.146 32.6964C147.113 32.6696 147.082 32.6434 147.05 32.6179C146.804 32.4157 146.609 32.256 146.488 32.142L146.333 31.9986C146.062 31.7479 145.717 31.4282 145.496 31.2291C145.789 31.2139 145.983 31.2393 146.332 31.2077C146.655 31.1593 147.157 31.0463 147.443 30.9476C147.744 30.849 148.125 30.6697 148.347 30.525L148.349 30.5241C148.563 30.3814 148.841 30.1469 148.982 29.9951L148.983 29.9933C149.124 29.8357 149.321 29.5456 149.432 29.33C149.541 29.1214 149.673 28.7939 149.723 28.5908C149.724 28.5897 149.724 28.5885 149.724 28.5874C149.767 28.3948 149.827 28.0705 149.843 27.8545C149.866 27.6199 149.854 27.2811 149.811 27.0016C149.773 26.7457 149.686 26.3833 149.62 26.1847C149.552 25.9816 149.398 25.6742 149.276 25.4905C149.152 25.3055 148.917 25.0381 148.752 24.8841L148.751 24.8824C148.585 24.7337 148.307 24.5316 148.122 24.4304C147.944 24.3302 147.651 24.2057 147.472 24.1408C147.292 24.0751 146.99 23.9892 146.797 23.9409C146.627 23.8964 146.363 23.8744 145.557 23.8599C144.744 23.8453 143.365 23.8387 140.952 23.8308C140.952 23.8308 136.705 23.8096 136.571 23.8096C136.438 23.8096 135.918 23.8363 135.637 24.2305C135.355 24.6247 135.349 25.0627 135.349 25.0982L135.37 34.5768V33.175L135.369 34.0847L135.369 34.348L135.37 34.577C135.37 35.1667 135.848 35.6448 136.438 35.6448C137.028 35.6448 137.506 35.1666 137.506 34.5768ZM147.103 29.0056C147.217 28.9018 147.362 28.7264 147.423 28.623C147.482 28.5226 147.568 28.2882 147.609 28.1056C147.609 28.1044 147.609 28.1033 147.61 28.1022C147.655 27.9193 147.691 27.6549 147.691 27.5252C147.691 27.3883 147.66 27.1628 147.622 27.0332C147.621 27.0314 147.621 27.0295 147.62 27.0276C147.585 26.8851 147.518 26.6926 147.476 26.602C147.434 26.5148 147.315 26.3342 147.21 26.2142L147.209 26.2131C147.098 26.0839 146.909 25.9506 146.679 25.8382C146.482 25.7421 146.153 25.6294 145.958 25.5894L145.957 25.5892C145.811 25.5579 145.564 25.5378 144.911 25.5265C144.261 25.5153 143.22 25.5126 141.492 25.5126H137.519V29.5906C141.21 29.588 143.274 29.5839 144.445 29.5728C145.037 29.5672 145.4 29.5598 145.628 29.5498C145.86 29.5398 145.944 29.5274 145.988 29.5157C145.989 29.5154 145.991 29.515 145.992 29.5147C146.148 29.4784 146.351 29.421 146.433 29.3954C146.513 29.3703 146.658 29.3152 146.742 29.2684L146.744 29.2671C146.823 29.2256 146.994 29.1055 147.103 29.0056Z" fill="url(#paint4_linear_166_104)"/>
<path fill-rule="evenodd" clip-rule="evenodd" d="M9.80909 0H25.6087C26.4446 0 27.1223 0.677674 27.1223 1.51363V6.92237C27.1223 7.75833 26.4446 8.436 25.6087 8.436H9.80909C8.97314 8.436 8.29547 7.75833 8.29547 6.92237V1.51363C8.29547 0.677674 8.97314 0 9.80909 0ZM83.5602 38.5521H95.0631V43.5514C95.0631 44.9446 96.1927 46.0742 97.5859 46.0742C98.9791 46.0742 100.109 44.9446 100.109 43.5514V18.4722C100.109 14.3044 96.7081 10.9038 92.5403 10.9038C89.8412 10.9038 87.1422 10.9029 84.4432 10.9021C81.7442 10.9013 79.0452 10.9004 76.3461 10.9004C74.9529 10.9004 73.8233 12.0301 73.8233 13.4233C73.8233 14.8164 74.9529 15.9461 76.3461 15.9461L92.5403 15.9494C93.9226 15.9494 95.0631 17.0899 95.0631 18.4722V33.5065H83.5602C82.167 33.5065 81.0374 34.6361 81.0374 36.0293C81.0374 37.4225 82.167 38.5521 83.5602 38.5521ZM97.5859 48.5471C96.1927 48.5471 95.0631 49.6768 95.0631 51.0699V51.0702V53.5867C95.0631 54.969 93.9226 56.1095 92.5403 56.1095H7.56843C6.18614 56.1095 5.04562 54.969 5.04562 53.5867V38.5524H29.0164C30.4096 38.5524 31.5392 37.4228 31.5392 36.0296C31.5392 34.6364 30.4096 33.5068 29.0164 33.5068H5.04562V18.4725C5.04562 17.0902 6.18614 15.9497 7.56843 15.9497H47.2952C48.1183 15.9497 48.9463 15.9298 49.7794 15.9097C55.3841 15.7749 61.2174 15.6345 67.2919 21.5188C70.0756 24.2622 71.7974 28.0563 71.7974 32.2507C71.7974 36.4451 70.0756 40.2391 67.2919 42.9825C64.4968 45.7374 60.6274 47.4414 56.347 47.4414C52.0667 47.4414 48.1973 45.7374 45.4021 42.9825C42.6185 40.2391 40.8967 36.4451 40.8967 32.2507C40.8967 30.9198 41.0737 29.602 41.4193 28.3301C41.7709 27.0353 42.2829 25.8046 42.9459 24.6717C43.6479 23.4743 43.2464 21.9343 42.049 21.2323C40.8516 20.5302 39.3116 20.9318 38.6096 22.1292C37.6978 23.6876 37.0076 25.3289 36.551 27.0096C36.0883 28.7129 35.8507 30.4747 35.8507 32.2507C35.8507 37.8395 38.1523 42.9023 41.8738 46.5699C45.5834 50.226 50.7007 52.4873 56.3467 52.4873C61.9927 52.4873 67.1101 50.226 70.8197 46.5699C74.5408 42.9023 76.8427 37.8395 76.8427 32.2507C76.8427 26.6619 74.5411 21.599 70.8197 17.9314C65.9783 12.9315 61.2038 10.8756 54.3402 10.8756C46.5473 10.8756 38.7517 10.8827 30.9559 10.8897C23.1595 10.8967 15.3629 10.9038 7.56843 10.9038C3.40067 10.9038 0 14.3044 0 18.4722V36.0293V53.5864C0 57.7542 3.40067 61.1548 7.56843 61.1548H92.5403C96.7084 61.1548 100.109 57.7536 100.109 53.5864V51.0699C100.109 49.6768 98.9791 48.5471 97.5859 48.5471Z" fill="#3B1F13"/>
<defs>
<linearGradient id="paint0_linear_166_104" x1="192" y1="35.9999" x2="103.5" y2="15.9999" gradientUnits="userSpaceOnUse">
<stop stop-color="#9D5022"/>
<stop offset="1" stop-color="#371C0C"/>
</linearGradient>
<linearGradient id="paint1_linear_166_104" x1="192" y1="35.9999" x2="103.5" y2="15.9999" gradientUnits="userSpaceOnUse">
<stop stop-color="#9D5022"/>
<stop offset="1" stop-color="#371C0C"/>
</linearGradient>
<linearGradient id="paint2_linear_166_104" x1="192" y1="35.9999" x2="103.5" y2="15.9999" gradientUnits="userSpaceOnUse">
<stop stop-color="#9D5022"/>
<stop offset="1" stop-color="#371C0C"/>
</linearGradient>
<linearGradient id="paint3_linear_166_104" x1="192" y1="35.9999" x2="103.5" y2="15.9999" gradientUnits="userSpaceOnUse">
<stop stop-color="#9D5022"/>
<stop offset="1" stop-color="#371C0C"/>
</linearGradient>
<linearGradient id="paint4_linear_166_104" x1="192" y1="35.9999" x2="103.5" y2="15.9999" gradientUnits="userSpaceOnUse">
<stop stop-color="#9D5022"/>
<stop offset="1" stop-color="#371C0C"/>
</linearGradient>
</defs>
</svg>
