<svg width="60" height="38" viewBox="0 0 60 38" fill="none" xmlns="http://www.w3.org/2000/svg">
<path fill-rule="evenodd" clip-rule="evenodd" d="M5.87884 0.482803H15.3483C15.8493 0.482803 16.2555 0.888966 16.2555 1.38999V4.63172C16.2555 5.13274 15.8493 5.53891 15.3483 5.53891H5.87884C5.37782 5.53891 4.97166 5.13274 4.97166 4.63172V1.38999C4.97166 0.888966 5.37782 0.482803 5.87884 0.482803ZM50.0817 23.5889H56.9759V26.5853C56.9759 27.4203 57.653 28.0973 58.488 28.0973C59.323 28.0973 60 27.4203 60 26.5853V11.5541C60 9.05613 57.9618 7.01794 55.4639 7.01794C53.8462 7.01794 52.2285 7.01744 50.6109 7.01695C48.9933 7.01645 47.3756 7.01595 45.7579 7.01595C44.9229 7.01595 44.2459 7.69298 44.2459 8.52799C44.2459 9.363 44.9229 10.04 45.7579 10.04L55.4639 10.042C56.2923 10.042 56.9759 10.7256 56.9759 11.5541V20.5648H50.0817C49.2467 20.5648 48.5696 21.2419 48.5696 22.0769C48.5696 22.9119 49.2467 23.5889 50.0817 23.5889ZM58.488 29.5794C57.653 29.5794 56.9759 30.2565 56.9759 31.0915V31.0917V32.5999C56.9759 33.4284 56.2923 34.1119 55.4639 34.1119H4.53613C3.70765 34.1119 3.02409 33.4284 3.02409 32.5999V23.5891H17.3909C18.2259 23.5891 18.903 22.9121 18.903 22.0771C18.903 21.2421 18.2259 20.565 17.3909 20.565H3.02409V11.5543C3.02409 10.7258 3.70765 10.0422 4.53613 10.0422H28.3463C28.8396 10.0422 29.3359 10.0303 29.8352 10.0183C33.1944 9.93742 36.6905 9.8533 40.3313 13.3801C41.9997 15.0243 43.0316 17.2983 43.0316 19.8122C43.0316 22.3261 41.9997 24.6 40.3313 26.2443C38.656 27.8955 36.3369 28.9167 33.7715 28.9167C31.2061 28.9167 28.887 27.8955 27.2117 26.2443C25.5433 24.6 24.5113 22.3261 24.5113 19.8122C24.5113 19.0145 24.6174 18.2247 24.8246 17.4624C25.0353 16.6863 25.3422 15.9487 25.7395 15.2697C26.1603 14.552 25.9196 13.6291 25.202 13.2083C24.4843 12.7875 23.5613 13.0282 23.1406 13.7459C22.5941 14.6799 22.1804 15.6636 21.9068 16.6709C21.6294 17.6918 21.4871 18.7477 21.4871 19.8122C21.4871 23.1618 22.8665 26.1962 25.097 28.3944C27.3203 30.5856 30.3874 31.941 33.7713 31.941C37.1552 31.941 40.2223 30.5856 42.4457 28.3944C44.6759 26.1962 46.0555 23.1618 46.0555 19.8122C46.0555 16.4625 44.6761 13.4281 42.4457 11.23C39.544 8.23327 36.6824 7.00108 32.5687 7.00108C27.898 7.00108 23.2258 7.00529 18.5534 7.00951C13.8806 7.01373 9.20771 7.01794 4.53613 7.01794C2.03818 7.01794 0 9.05613 0 11.5541V22.0769V32.5997C0 35.0976 2.03818 37.1358 4.53613 37.1358H55.4639C57.962 37.1358 60 35.0973 60 32.5997V31.0915C60 30.2565 59.323 29.5794 58.488 29.5794Z" fill="#3B1F13"/>
<mask id="mask0_259_497" style="mask-type:alpha" maskUnits="userSpaceOnUse" x="0" y="0" width="60" height="38">
<path fill-rule="evenodd" clip-rule="evenodd" d="M5.86802 0.482803H15.3375C15.8385 0.482803 16.2447 0.888966 16.2447 1.38999V4.63172C16.2447 5.13274 15.8385 5.53891 15.3375 5.53891H5.86802C5.367 5.53891 4.96083 5.13274 4.96083 4.63172V1.38999C4.96083 0.888966 5.367 0.482803 5.86802 0.482803ZM50.0817 23.5889H56.9759V26.5853C56.9759 27.4203 57.653 28.0973 58.488 28.0973C59.323 28.0973 60 27.4203 60 26.5853V11.5541C60 9.05613 57.9618 7.01794 55.4639 7.01794C53.8462 7.01794 52.2285 7.01744 50.6109 7.01695C48.9933 7.01645 47.3756 7.01595 45.7579 7.01595C44.9229 7.01595 44.2459 7.69298 44.2459 8.52799C44.2459 9.363 44.9229 10.04 45.7579 10.04L55.4639 10.042C56.2923 10.042 56.9759 10.7256 56.9759 11.5541V20.5648H50.0817C49.2467 20.5648 48.5696 21.2419 48.5696 22.0769C48.5696 22.9119 49.2467 23.5889 50.0817 23.5889ZM58.488 29.5794C57.653 29.5794 56.9759 30.2565 56.9759 31.0915V31.0917V32.5999C56.9759 33.4284 56.2923 34.1119 55.4639 34.1119H4.53613C3.70765 34.1119 3.02409 33.4284 3.02409 32.5999V23.5891H17.3909C18.2259 23.5891 18.903 22.9121 18.903 22.0771C18.903 21.2421 18.2259 20.565 17.3909 20.565H3.02409V11.5543C3.02409 10.7258 3.70765 10.0422 4.53613 10.0422H28.3463C28.8396 10.0422 29.3359 10.0303 29.8352 10.0183C33.1944 9.93742 36.6905 9.8533 40.3313 13.3801C41.9997 15.0243 43.0316 17.2983 43.0316 19.8122C43.0316 22.3261 41.9997 24.6 40.3313 26.2443C38.656 27.8955 36.3369 28.9167 33.7715 28.9167C31.2061 28.9167 28.887 27.8955 27.2117 26.2443C25.5433 24.6 24.5113 22.3261 24.5113 19.8122C24.5113 19.0145 24.6174 18.2247 24.8246 17.4624C25.0353 16.6863 25.3422 15.9487 25.7395 15.2697C26.1603 14.552 25.9196 13.6291 25.202 13.2083C24.4843 12.7875 23.5613 13.0282 23.1406 13.7459C22.5941 14.6799 22.1804 15.6636 21.9068 16.6709C21.6294 17.6918 21.4871 18.7477 21.4871 19.8122C21.4871 23.1618 22.8665 26.1962 25.097 28.3944C27.3203 30.5856 30.3874 31.941 33.7713 31.941C37.1552 31.941 40.2223 30.5856 42.4457 28.3944C44.6759 26.1962 46.0555 23.1618 46.0555 19.8122C46.0555 16.4625 44.6761 13.4281 42.4457 11.23C39.544 8.23327 36.6824 7.00108 32.5687 7.00108C27.898 7.00108 23.2258 7.00529 18.5534 7.00951C13.8806 7.01373 9.20771 7.01794 4.53613 7.01794C2.03818 7.01794 0 9.05613 0 11.5541V22.0769V32.5997C0 35.0976 2.03818 37.1358 4.53613 37.1358H55.4639C57.962 37.1358 60 35.0973 60 32.5997V31.0915C60 30.2565 59.323 29.5794 58.488 29.5794Z" fill="#3B1F13"/>
</mask>
<g mask="url(#mask0_259_497)">
<path d="M43.6871 4.88353H65.2907V28.8875H47.4877V16.6055L43.6871 10.6845V4.88353Z" fill="url(#paint0_linear_259_497)"/>
<rect x="-2.00021" y="6.00372" width="20.9635" height="32.7255" fill="url(#paint1_linear_259_497)"/>
<rect x="18.9632" y="6.00372" width="10.4017" height="5.36089" fill="url(#paint2_linear_259_497)"/>
<rect x="18.4829" y="33.3683" width="9.68161" height="5.36089" fill="url(#paint3_linear_259_497)"/>
</g>
<defs>
<linearGradient id="paint0_linear_259_497" x1="43.8645" y1="6.3314" x2="61.4103" y2="27.167" gradientUnits="userSpaceOnUse">
<stop stop-color="#9D5022"/>
<stop offset="0.866196" stop-color="#3B1F13"/>
</linearGradient>
<linearGradient id="paint1_linear_259_497" x1="-2.00021" y1="6.00372" x2="24.558" y2="33.2821" gradientUnits="userSpaceOnUse">
<stop stop-color="#9D5022"/>
<stop offset="1" stop-color="#3B1F13"/>
</linearGradient>
<linearGradient id="paint2_linear_259_497" x1="18.9632" y1="8.44413" x2="29.365" y2="8.44413" gradientUnits="userSpaceOnUse">
<stop stop-color="#723A1B"/>
<stop offset="1" stop-color="#3B1F13"/>
</linearGradient>
<linearGradient id="paint3_linear_259_497" x1="18.4829" y1="33.3683" x2="28.8376" y2="36.5123" gradientUnits="userSpaceOnUse">
<stop stop-color="#442314"/>
<stop offset="1" stop-color="#3B1F13"/>
</linearGradient>
</defs>
</svg>
