<svg width="16" height="17" viewBox="0 0 16 17" fill="none" xmlns="http://www.w3.org/2000/svg">
<path d="M1.93268 0.793732C1.82015 0.824067 1.65136 0.87867 1.55759 0.912039C1.46381 0.945408 1.27939 1.03945 1.15123 1.12135C1.02307 1.20326 0.835527 1.34583 0.735501 1.43987C0.638602 1.53694 0.485438 1.71896 0.401041 1.84636C0.313519 1.97681 0.213493 2.15882 0.17911 2.24982C0.144726 2.34083 0.0915873 2.4925 0.0634552 2.58351C0.0134424 2.73519 0.0103166 3.22358 0.00406505 8.43214C-0.00531234 13.935 -0.00218654 14.117 0.0540778 14.3445C0.0884615 14.4749 0.1416 14.6569 0.17911 14.7479C0.213493 14.8389 0.310393 15.0179 0.394789 15.1423C0.479186 15.2667 0.629224 15.4517 0.732375 15.5488C0.832401 15.6489 1.02307 15.7945 1.15123 15.8764C1.27939 15.9583 1.46381 16.0524 1.55759 16.0857C1.65136 16.1191 1.83266 16.1737 1.95456 16.2071C2.17649 16.2617 2.35154 16.2647 7.99672 16.2647C13.6419 16.2647 13.817 16.2617 14.0389 16.2071C14.1608 16.1737 14.3421 16.1191 14.4359 16.0857C14.5296 16.0524 14.7141 15.9583 14.8422 15.8764C14.9704 15.7945 15.161 15.6489 15.2611 15.5488C15.3642 15.4517 15.5143 15.2667 15.5987 15.1423C15.6831 15.0179 15.78 14.8389 15.8143 14.7479C15.8487 14.6569 15.8987 14.5053 15.9269 14.4143C15.9519 14.3232 15.98 14.123 15.9925 13.9744C16.0081 13.7165 16.005 13.6923 15.9269 13.5558C15.88 13.4769 15.7862 13.3768 15.7112 13.3283C15.6018 13.2585 15.5486 13.2463 15.3736 13.2463C15.2048 13.2463 15.1423 13.2615 15.0423 13.3252C14.9766 13.3677 14.8891 13.4496 14.8516 13.5072C14.8016 13.58 14.7703 13.6923 14.7484 13.8834C14.7234 14.0897 14.6891 14.208 14.6109 14.3688C14.5421 14.5022 14.4484 14.6296 14.3515 14.7176C14.2702 14.7904 14.1108 14.8936 13.9983 14.9451L13.7951 15.0361L10.4348 15.0513V10.6223C11.9258 10.6223 12.029 10.6132 12.1384 10.5647C12.2072 10.5344 12.2947 10.4767 12.3322 10.4373C12.3697 10.3979 12.4197 10.316 12.4447 10.2583C12.4697 10.2007 12.5166 9.96104 12.5448 9.72746C12.5916 9.36344 12.5916 9.28153 12.5573 9.16626C12.5323 9.08739 12.4666 8.98425 12.4041 8.92358C12.3447 8.86594 12.2384 8.7992 12.1697 8.781C12.0853 8.7537 11.7821 8.74156 11.2382 8.74156H10.4348C10.4505 6.54226 10.4536 6.47552 10.5161 6.34508C10.5505 6.26924 10.6286 6.157 10.688 6.0933C10.7474 6.02656 10.8725 5.93859 10.9662 5.89612C11.1288 5.81725 11.1694 5.81421 11.7477 5.79905C12.3322 5.78388 12.3635 5.78084 12.4791 5.70804C12.5479 5.66557 12.6385 5.5776 12.6823 5.51389C12.7604 5.40165 12.7636 5.36829 12.7729 4.93753C12.7823 4.57957 12.7729 4.45216 12.7354 4.35812C12.7104 4.29138 12.6479 4.20038 12.601 4.15488C12.5541 4.10937 12.4604 4.05174 12.3947 4.02747C12.3291 4.00017 12.079 3.96376 11.8008 3.94253C11.4476 3.91523 11.2569 3.91523 11.06 3.9395C10.9131 3.9577 10.6536 4.01837 10.4817 4.07297C10.2973 4.13364 10.066 4.23678 9.91909 4.32779C9.78155 4.40969 9.59401 4.54013 9.50336 4.61597C9.40958 4.69181 9.24392 4.86169 9.13451 4.99516C9.02198 5.12864 8.86882 5.35918 8.7938 5.51086C8.71566 5.6595 8.62188 5.89308 8.58437 6.02656C8.51873 6.25407 8.51561 6.33901 8.50623 7.50389L8.49685 8.74156L6.88081 8.75673C6.69327 8.87807 6.60262 8.96605 6.55886 9.03278C6.48384 9.14806 6.48071 9.16626 6.48071 9.68196C6.48071 10.1977 6.48384 10.2159 6.55886 10.3311C6.60262 10.3979 6.69327 10.4858 6.75891 10.5283L6.88081 10.6072L8.49685 10.6223V15.0513L2.19837 15.0361C1.88267 14.8936 1.72325 14.7904 1.64198 14.7176C1.54196 14.6296 1.44818 14.5022 1.37629 14.3566L1.26063 14.1291V2.8717C1.40755 2.56531 1.51382 2.4106 1.58884 2.33173C1.67949 2.23466 1.81077 2.14365 1.96081 2.07388L2.19525 1.96164H13.7982C14.1827 2.14365 14.314 2.23466 14.4046 2.33173C14.4796 2.4106 14.5859 2.56531 14.639 2.67452L14.7328 2.8717L14.7641 11.0046C14.8891 11.1896 14.9798 11.2776 15.0485 11.3201C15.1454 11.3807 15.2111 11.3959 15.3736 11.3959C15.5361 11.3959 15.6018 11.3807 15.7018 11.3201C15.7675 11.2776 15.8644 11.1836 15.9112 11.1077L15.9988 10.9712C15.9988 3.04764 15.9956 2.86259 15.9394 2.64418C15.905 2.51981 15.8518 2.34083 15.8143 2.24982C15.78 2.15882 15.6831 1.97984 15.5987 1.85546C15.5143 1.73109 15.3673 1.54908 15.2704 1.45201C15.1704 1.35797 14.9829 1.20932 14.8485 1.12742C14.7172 1.04248 14.5296 0.945408 14.4359 0.912039C14.3421 0.87867 14.1608 0.824067 14.0358 0.790698C13.817 0.736095 13.645 0.733061 7.97172 0.736095C2.43593 0.739128 2.12648 0.742162 1.93268 0.793732Z" fill="#F5F5F5"/>
</svg>
