<svg width="63" height="65" viewBox="0 0 63 65" fill="none" xmlns="http://www.w3.org/2000/svg">
<path fill-rule="evenodd" clip-rule="evenodd" d="M31.1186 0C35.2898 0 39.6334 0.063487 40.79 0.126974C41.9344 0.203158 43.7924 0.317435 44.9121 0.380922C46.0318 0.457106 47.4961 0.63487 48.1729 0.774541C48.8496 0.914213 49.8955 1.20625 50.5107 1.40941C51.1137 1.62527 52.0857 2.01889 52.6641 2.29823C53.2424 2.57757 54.2391 3.17435 54.8789 3.61876C55.5187 4.06317 56.4908 4.83771 57.0199 5.3583C57.549 5.8662 58.3857 6.8312 58.8656 7.49147C59.3455 8.15173 60.0346 9.2691 60.3791 9.96746C60.7236 10.6658 61.1543 11.6308 61.3389 12.126C61.5111 12.6085 61.7941 13.5608 61.9541 14.2211C62.1141 14.8814 62.3355 15.9733 62.434 16.6336C62.5447 17.2939 62.7047 18.9826 62.8154 20.3793C62.9508 22.2966 63 25.1282 63 31.8705C63 39.2858 62.9754 40.8983 62.8277 41.2666C62.7416 41.5078 62.4955 41.9014 62.3109 42.1427C62.1141 42.3839 61.7326 42.6887 61.4619 42.8029C61.1912 42.9299 60.7359 43.0442 60.4529 43.0442C60.1576 43.0442 59.7393 42.9553 59.5301 42.841C59.3086 42.7267 58.9641 42.4855 58.7795 42.295C58.5826 42.1173 58.3365 41.7871 58.2381 41.584C58.0658 41.2539 58.0412 40.3396 58.0658 34.156C58.0781 30.2833 58.0289 25.3694 57.9674 23.2362C57.8936 21.0015 57.7705 18.7668 57.6475 17.9668C57.5367 17.1923 57.3152 16.0241 57.143 15.3639C56.9707 14.7036 56.6631 13.7259 56.4416 13.2053C56.2324 12.6847 55.7771 11.8213 55.4449 11.3007C55.1127 10.7801 54.4482 9.92937 53.9684 9.42147C53.4885 8.90088 52.6271 8.16443 52.0488 7.77081C51.4705 7.37719 50.56 6.8566 50.0186 6.62804C49.4771 6.39949 48.6158 6.09475 48.1113 5.95508C47.6068 5.82811 46.7701 5.66304 46.2656 5.58686C45.7611 5.52337 44.1 5.39639 42.5742 5.30751C40.8146 5.20593 36.668 5.15514 31.2539 5.15514C24.6586 5.15514 21.9885 5.20593 19.5645 5.371C17.6695 5.49797 16.0084 5.68844 15.3809 5.82811C14.8025 5.96778 13.892 6.24712 13.3506 6.47567C12.8092 6.70423 12.034 7.08515 11.6279 7.3264C11.2219 7.58035 10.582 8.02476 10.2129 8.3168C9.84375 8.60884 9.20391 9.21831 8.79785 9.66272C8.3918 10.1198 7.8627 10.7928 7.6166 11.1737C7.37051 11.5546 7.02598 12.1641 6.85371 12.5069C6.69375 12.8498 6.38613 13.6243 6.17695 14.2211C5.98008 14.8179 5.69707 15.9225 5.54941 16.6971C5.41406 17.4589 5.22949 18.7795 5.16797 19.6175C5.09414 20.4555 5.00801 24.7726 4.97109 29.204C4.92188 34.1052 4.94648 38.9429 5.03262 41.5205C5.10645 43.8568 5.2418 46.3455 5.34023 47.0439C5.43867 47.7422 5.61094 48.7072 5.72168 49.2024C5.83242 49.6849 6.06621 50.4849 6.23848 50.9801C6.41074 51.4626 6.69375 52.1609 6.86602 52.5037C7.02598 52.8466 7.39512 53.4814 7.66582 53.9005C7.94883 54.3195 8.47793 55.0051 8.84707 55.4115C9.22852 55.8178 9.95449 56.478 10.459 56.8717C10.9635 57.2653 11.8002 57.7986 12.3047 58.0525C12.8092 58.3065 13.5721 58.6366 14.0027 58.7763C14.4211 58.9286 15.1348 59.1318 15.59 59.2334C16.0576 59.3349 17.8418 59.5127 19.5645 59.6397C21.9885 59.8048 24.6463 59.8555 31.1924 59.8555C36.668 59.8682 40.6916 59.8048 42.5127 59.7032C44.0631 59.6143 45.7611 59.4873 46.2656 59.4111C46.7701 59.3476 47.5453 59.1953 47.9883 59.0937C48.4313 58.9794 49.2064 58.7128 49.7109 58.5096C50.2154 58.3065 51.0645 57.8621 51.6059 57.5446C52.135 57.2145 53.0209 56.5161 53.5746 55.9828C54.116 55.4495 54.8543 54.5988 55.1988 54.0782C55.5434 53.5576 56.0602 52.6815 56.3309 52.1228C56.6139 51.5641 56.9953 50.9928 57.1799 50.8404C57.3645 50.7007 57.7459 50.4976 58.0166 50.4087C58.2996 50.3198 58.7426 50.2817 59.0625 50.3198C59.3824 50.3579 59.8254 50.5484 60.0961 50.7515C60.3668 50.942 60.7113 51.361 60.8713 51.6784C61.0559 52.0466 61.1543 52.4657 61.1543 52.8466C61.1543 53.3291 61.0066 53.7481 60.4898 54.8147C60.1207 55.5765 59.4809 56.6685 59.0625 57.2653C58.6318 57.8621 57.7828 58.8524 57.1676 59.4746C56.5523 60.0968 55.5187 60.9602 54.8789 61.4046C54.2391 61.8363 53.2424 62.4331 52.6641 62.7125C52.0857 62.9918 51.1137 63.3854 50.5107 63.6013C49.8955 63.8044 48.8496 64.0965 48.1729 64.2361C47.4961 64.3758 46.118 64.5536 45.0967 64.6171C44.0877 64.6806 41.9713 64.8075 40.4209 64.8964C38.5998 64.9853 34.9084 65.0234 30.0234 64.9853C25.8645 64.9472 21.3732 64.8583 20.0566 64.7821C18.74 64.6933 17.1281 64.5663 16.4883 64.5028C15.8484 64.4266 14.7533 64.2361 14.0643 64.0584C13.3629 63.8806 12.2801 63.5378 11.6648 63.2965C11.0373 63.0426 10.016 62.5601 9.41309 62.2046C8.79785 61.8617 7.92422 61.2777 7.44434 60.9094C6.97676 60.5539 6.26309 59.9317 5.85703 59.5508C5.46328 59.1699 4.78652 58.3953 4.36816 57.8367C3.9498 57.278 3.44531 56.5669 3.26074 56.2495C3.06387 55.932 2.67012 55.1829 2.3748 54.5607C2.0918 53.9513 1.68574 52.9609 1.48887 52.3387C1.27969 51.7292 1.00898 50.7134 0.873633 50.0912C0.738281 49.4564 0.541406 48.2628 0.430664 47.4248C0.332227 46.5868 0.18457 44.5806 0.123047 42.9807C0.0615234 41.3681 0 36.2638 0 31.6165C0 26.9693 0.0615234 22.2585 0.123047 21.1412C0.196875 20.0238 0.344531 18.4239 0.442969 17.5859C0.541406 16.7479 0.738281 15.5416 0.873633 14.9194C1.00898 14.2846 1.27969 13.2815 1.48887 12.6593C1.68574 12.0498 2.1041 11.0213 2.41172 10.3738C2.71934 9.73891 3.28535 8.72311 3.6668 8.12634C4.04824 7.52956 4.88496 6.50107 5.53711 5.8408C6.17695 5.18054 7.05059 4.3806 7.46895 4.06317C7.89961 3.74573 8.69941 3.22514 9.25312 2.88231C9.81914 2.55218 10.8281 2.05698 11.5049 1.77764C12.1816 1.51099 13.3137 1.14277 14.0273 0.965002C14.741 0.787239 15.7869 0.58408 16.3652 0.520593C16.9436 0.444409 18.7646 0.330132 20.4258 0.241251C22.0869 0.165066 23.465 0.0761844 23.4896 0.0507896C23.5143 0.0253948 26.9473 0 31.1186 0ZM48.7266 11.6054C49.2311 11.6435 49.7602 11.7832 50.1416 11.9863C50.4861 12.1514 50.9414 12.5069 51.1752 12.7863C51.409 13.0529 51.7166 13.5227 51.852 13.8402C52.0365 14.2592 52.1104 14.6782 52.1104 15.3639C52.1104 16.0495 52.0365 16.4685 51.852 16.8875C51.7166 17.205 51.409 17.6748 51.1752 17.9414C50.9414 18.2208 50.4492 18.589 50.0801 18.7668C49.5264 19.0461 49.2311 19.1096 48.4805 19.1096C47.7299 19.1096 47.4346 19.0461 46.8809 18.7668C46.5117 18.589 46.0195 18.2208 45.7857 17.9414C45.552 17.6748 45.2566 17.205 45.1213 16.8875C44.9859 16.5701 44.8506 16.0622 44.826 15.7448C44.7891 15.4273 44.8137 14.8814 44.8998 14.5385C44.9736 14.183 45.1951 13.6497 45.3797 13.3323C45.5643 13.0148 45.9334 12.5831 46.2041 12.38C46.4625 12.1641 46.967 11.8975 47.2992 11.7705C47.7545 11.6054 48.1482 11.5673 48.7266 11.6054ZM31.2539 16.6463C31.8937 16.6463 32.952 16.7225 33.5918 16.8241C34.2316 16.9256 35.1791 17.1288 35.6836 17.2685C36.1881 17.4081 37.2709 17.8652 38.083 18.2716C38.8951 18.6906 40.0025 19.3635 40.5439 19.7825C41.0854 20.2016 41.9467 20.9888 42.4512 21.5348C42.968 22.0935 43.6816 22.995 44.0508 23.5537C44.4076 24.1124 44.9736 25.1409 45.2936 25.8392C45.6135 26.5376 45.9949 27.5407 46.1426 28.0613C46.2779 28.5818 46.4748 29.5595 46.5732 30.2198C46.6717 30.8801 46.7578 31.9086 46.7578 32.5053C46.7578 33.1021 46.6717 34.1306 46.5732 34.7909C46.4748 35.4511 46.2779 36.4288 46.1426 36.9494C45.9949 37.47 45.6135 38.4731 45.2936 39.1715C44.9736 39.8698 44.4322 40.8729 44.0877 41.3935C43.7555 41.9141 43.0295 42.8283 42.5004 43.4124C41.9713 43.9965 41.0854 44.8091 40.5439 45.2281C40.0025 45.6472 38.8951 46.3201 38.083 46.7391C37.2709 47.1454 36.1881 47.6026 35.6836 47.7422C35.1791 47.8819 34.2316 48.0851 33.5918 48.1866C32.952 48.2882 31.9553 48.3771 31.377 48.3771C30.7986 48.3771 29.802 48.2882 29.1621 48.1866C28.5223 48.0851 27.5748 47.8819 27.0703 47.7422C26.5658 47.5899 25.5938 47.1962 24.917 46.8661C24.2402 46.536 23.2436 45.9646 22.7021 45.5837C22.1607 45.2154 21.1887 44.3647 20.5365 43.6918C19.8844 43.0188 19.06 42.0157 18.7031 41.457C18.334 40.8983 17.7803 39.8698 17.4604 39.1715C17.1404 38.4731 16.759 37.47 16.6113 36.9494C16.476 36.4288 16.2791 35.4511 16.1807 34.7909C16.0822 34.1306 15.9961 33.1021 15.9961 32.5053C15.9961 31.9086 16.0822 30.8801 16.1807 30.2198C16.2791 29.5595 16.476 28.5818 16.6113 28.0613C16.7467 27.5407 17.1896 26.4233 17.5834 25.5853C17.9895 24.7472 18.6416 23.6045 19.0477 23.0458C19.4537 22.4871 20.2166 21.5983 20.7457 21.0777C21.2871 20.5444 22.1607 19.8079 22.7021 19.427C23.2436 19.0588 24.2402 18.4747 24.917 18.1446C25.5938 17.8018 26.5904 17.4081 27.1318 17.2558C27.6732 17.1034 28.5592 16.9002 29.1006 16.8241C29.642 16.7352 30.6141 16.659 31.2539 16.6463ZM28.2393 22.2331C27.7594 22.3855 27.1072 22.6522 26.7627 22.8172C26.4305 22.995 25.8152 23.3759 25.4092 23.668C25.0031 23.9473 24.3633 24.4933 23.9941 24.8869C23.6127 25.2678 23.0836 25.9281 22.8129 26.3471C22.5299 26.7661 22.1854 27.3629 22.0254 27.6803C21.8654 27.9978 21.607 28.6453 21.4594 29.1405C21.2994 29.623 21.1025 30.4865 21.0287 31.0451C20.9426 31.6165 20.918 32.5688 20.9549 33.2037C20.9918 33.8259 21.1764 34.8417 21.3486 35.4511C21.5209 36.0733 21.8039 36.8733 21.9762 37.2288C22.1607 37.597 22.5299 38.2446 22.8129 38.6636C23.0836 39.0826 23.6127 39.7429 23.9941 40.1238C24.3633 40.5174 25.0031 41.0634 25.4092 41.3427C25.8152 41.6348 26.4428 42.0157 26.7996 42.2062C27.1441 42.3839 27.9193 42.6887 28.5223 42.8791C29.4697 43.1712 29.7896 43.2093 31.377 43.2093C32.9643 43.2093 33.2842 43.1712 34.2439 42.8791C34.8346 42.6887 35.6098 42.3839 35.9666 42.2062C36.3111 42.0157 36.9387 41.6348 37.3447 41.3427C37.7508 41.0634 38.3906 40.5174 38.7598 40.1238C39.1412 39.7429 39.6703 39.0826 39.941 38.6636C40.224 38.2446 40.5932 37.597 40.7777 37.2288C40.95 36.8733 41.2453 36.0733 41.4299 35.4511C41.7129 34.4734 41.7498 34.1433 41.7498 32.5053C41.7498 30.8674 41.7129 30.5372 41.4299 29.5469C41.2453 28.9374 40.95 28.1374 40.7777 27.7692C40.5932 27.4137 40.224 26.7661 39.941 26.3471C39.6703 25.9281 39.1412 25.2678 38.7598 24.8869C38.3906 24.4933 37.7508 23.9473 37.3447 23.668C36.9387 23.3759 36.3111 22.995 35.9666 22.8045C35.6098 22.6268 34.8346 22.322 34.2439 22.1443C33.4318 21.903 32.8043 21.8141 31.7461 21.776C30.9709 21.7506 30.0604 21.776 29.7158 21.8395C29.3836 21.903 28.7068 22.0808 28.2393 22.2331Z" fill="#4A4945"/>
</svg>
