<svg width="15" height="16" viewBox="0 0 15 16" fill="none" xmlns="http://www.w3.org/2000/svg">
<path d="M14.5845 0.125418C14.7897 0.305917 14.8064 0.614822 14.6216 0.815376L10.1216 5.70087C9.93692 5.90142 9.62077 5.91768 9.41552 5.73718C9.21026 5.55668 9.19362 5.24778 9.37835 5.04723L13.8784 0.161731C14.0631 -0.0388232 14.3792 -0.0550813 14.5845 0.125418Z" fill="#F5F5F5"/>
<path d="M5.57383 10.1316C5.78423 10.3063 5.80981 10.6146 5.63097 10.8202L1.38097 15.7057C1.20213 15.9113 0.886581 15.9363 0.676177 15.7616C0.465773 15.5868 0.440188 15.2785 0.619032 15.0729L4.86903 10.1874C5.04787 9.98182 5.36342 9.95682 5.57383 10.1316Z" fill="#F5F5F5"/>
<path fill-rule="evenodd" clip-rule="evenodd" d="M3.875 4.20671e-06C4.03922 4.20671e-06 4.19297 0.0787992 4.28634 0.210806L14.9113 15.2337C15.017 15.3831 15.0291 15.5775 14.9428 15.7384C14.8564 15.8992 14.6859 16 14.5 16H11.125C10.9608 16 10.807 15.9212 10.7137 15.7892L0.0886641 0.766301C-0.0170201 0.616871 -0.0291356 0.422488 0.0572101 0.261632C0.143555 0.100775 0.314105 4.20671e-06 0.500001 4.20671e-06H3.875ZM3.61275 0.977103H1.4533L11.3872 15.0229H13.5467L3.61275 0.977103Z" fill="#F5F5F5"/>
</svg>
