<svg width="63" height="50" viewBox="0 0 63 50" fill="none" xmlns="http://www.w3.org/2000/svg">
<g filter="url(#filter0_d_172_3743)">
<path fill-rule="evenodd" clip-rule="evenodd" d="M29.7148 2.70837C50.501 2.72977 51.833 2.74048 52.4346 2.92243C52.7891 3.01875 53.3906 3.26492 53.7773 3.44687C54.2393 3.67164 54.7334 4.04624 55.2275 4.53858C55.7217 5.04162 56.0977 5.54466 56.3232 5.99419C56.5059 6.3795 56.7314 6.97887 56.8281 7.33207C56.9785 7.89933 57 9.72954 57 22.9585C57 36.0696 56.9785 38.0283 56.8281 38.6384C56.7422 39.0237 56.5166 39.6444 56.3232 40.0298C56.0977 40.4793 55.7217 40.993 55.2275 41.4854C54.7334 41.9777 54.2393 42.3523 53.7773 42.5771C53.3906 42.759 52.7676 43.0052 52.3809 43.1015C51.7256 43.2835 50.3721 43.2942 29.5 43.2942C8.64941 43.2942 7.27441 43.2835 6.61914 43.1015C6.23242 43.0052 5.60938 42.759 5.22266 42.5664C4.77148 42.3523 4.25586 41.9563 3.77246 41.4747C3.27832 40.9823 2.90234 40.49 2.67676 40.0298C2.49414 39.6444 2.26855 39.0451 2.17188 38.6919C2.02148 38.1246 2 36.2944 2 23.0655C2 9.9543 2.02148 7.99565 2.17188 7.38558C2.25781 7.00027 2.47266 6.4009 2.64453 6.04771C2.82715 5.69451 3.20312 5.13795 3.48242 4.81686C3.77246 4.49577 4.28809 4.03554 4.64258 3.80007C4.98633 3.57531 5.5127 3.28633 5.81348 3.1793C6.10352 3.07227 6.64062 2.91172 6.99512 2.8368C7.52148 2.71907 11.7754 2.69766 29.7148 2.70837ZM18.3066 16.5045C23.8389 22.0166 28.5332 26.5975 28.7266 26.6938C28.9092 26.7901 29.2637 26.8651 29.5 26.8651C29.7363 26.8651 30.0908 26.7901 30.2842 26.6938C30.4668 26.5975 35.1611 22.0166 40.6934 16.5045C46.2256 10.9818 50.7373 6.44372 50.7051 6.3902C50.6836 6.34739 41.1445 6.31528 29.5 6.31528C17.8662 6.31528 8.32715 6.34739 8.29492 6.3902C8.2627 6.44372 12.7744 10.9818 18.3066 16.5045ZM5.63086 37.0757C5.67383 37.1078 8.00488 34.9565 10.8086 32.3022C13.6123 29.6478 16.0723 27.4109 16.2656 27.336C16.4482 27.2504 16.7705 27.1861 16.9639 27.1861C17.1465 27.1861 17.5225 27.2932 17.7803 27.4216C18.1133 27.5929 18.3281 27.8069 18.5107 28.1494C18.6504 28.417 18.7578 28.7702 18.7578 28.9521C18.7578 29.1234 18.6611 29.4659 18.5537 29.7013C18.4141 30.0117 16.9209 31.478 13.3545 34.8388C10.6045 37.4289 8.38086 39.5802 8.40234 39.6337C8.42383 39.6766 17.9414 39.7087 29.5537 39.7087C41.166 39.7087 50.6836 39.6766 50.7051 39.6337C50.7373 39.5802 48.3418 37.1399 45.377 34.1966C42.2617 31.0927 39.9414 28.6953 39.8555 28.5026C39.7695 28.31 39.7051 27.9889 39.7051 27.8069C39.7051 27.6143 39.8125 27.2397 39.9521 26.9721C40.1348 26.6296 40.3496 26.4155 40.6826 26.2443C40.9404 26.1158 41.2949 26.0088 41.4775 26.0088C41.6494 26.0088 41.9932 26.1051 42.2295 26.2122C42.5195 26.3513 44.4209 28.1708 47.9766 31.7135C50.8984 34.6354 53.3262 37.0008 53.3691 36.9687C53.4229 36.9473 53.4551 30.6753 53.4551 23.0441C53.4551 15.4021 53.4229 9.10877 53.3906 9.06595C53.3477 9.02314 48.6963 13.5826 43.0459 19.191C35.9453 26.255 32.6152 29.498 32.2393 29.7121C31.9385 29.8726 31.4121 30.1081 31.0576 30.2151C30.6387 30.3435 30.0908 30.4185 29.5 30.4185C28.9092 30.4185 28.3613 30.3435 27.9424 30.2151C27.5879 30.1081 27.0508 29.8726 26.7607 29.7121C26.3848 29.498 23.0654 26.2657 15.9648 19.2017C10.3252 13.5826 5.67383 8.99103 5.62012 8.99103C5.57715 8.99103 5.54492 15.2951 5.54492 23.012C5.54492 30.7181 5.57715 37.0543 5.62012 37.0757H5.63086Z" fill="#3B1F13"/>
</g>
<defs>
<filter id="filter0_d_172_3743" x="0" y="0.705933" width="63" height="48.5883" filterUnits="userSpaceOnUse" color-interpolation-filters="sRGB">
<feFlood flood-opacity="0" result="BackgroundImageFix"/>
<feColorMatrix in="SourceAlpha" type="matrix" values="0 0 0 0 0 0 0 0 0 0 0 0 0 0 0 0 0 0 127 0" result="hardAlpha"/>
<feOffset dx="2" dy="2"/>
<feGaussianBlur stdDeviation="2"/>
<feComposite in2="hardAlpha" operator="out"/>
<feColorMatrix type="matrix" values="0 0 0 0 0 0 0 0 0 0 0 0 0 0 0 0 0 0 0.25 0"/>
<feBlend mode="normal" in2="BackgroundImageFix" result="effect1_dropShadow_172_3743"/>
<feBlend mode="normal" in="SourceGraphic" in2="effect1_dropShadow_172_3743" result="shape"/>
</filter>
</defs>
</svg>
