<svg width="35" height="35" viewBox="0 0 35 35" fill="none" xmlns="http://www.w3.org/2000/svg">
<path fill-rule="evenodd" clip-rule="evenodd" d="M17.4999 35C27.1649 35 34.9999 27.165 34.9999 17.5C34.9999 7.83502 27.1649 0 17.4999 0C7.8349 0 -0.00012207 7.83502 -0.00012207 17.5C-0.00012207 27.165 7.8349 35 17.4999 35Z" fill="#9D5022"/>
<path fill-rule="evenodd" clip-rule="evenodd" d="M16.903 9C17.9624 9 19.0655 9.0161 19.3593 9.0322C19.6499 9.05152 20.1218 9.08051 20.4061 9.09661C20.6905 9.11593 21.0624 9.16101 21.2343 9.19643C21.4061 9.23186 21.6718 9.30592 21.828 9.35745C21.9811 9.41219 22.228 9.51202 22.3749 9.58286C22.5218 9.65371 22.7749 9.80506 22.9374 9.91776C23.0999 10.0305 23.3468 10.2269 23.4811 10.3589C23.6155 10.4877 23.828 10.7325 23.9499 10.8999C24.0718 11.0674 24.2468 11.3508 24.3343 11.5279C24.4218 11.705 24.5311 11.9497 24.578 12.0753C24.6218 12.1977 24.6936 12.4392 24.7343 12.6067C24.7749 12.7741 24.8311 13.051 24.8561 13.2185C24.8843 13.3859 24.9249 13.8142 24.953 14.1685C24.9874 14.6547 24.9999 15.3728 24.9999 17.0828C24.9999 18.9634 24.9936 19.3723 24.9561 19.4657C24.9343 19.5269 24.8718 19.6267 24.8249 19.6879C24.7749 19.7491 24.678 19.8264 24.6093 19.8554C24.5405 19.8876 24.4249 19.9166 24.353 19.9166C24.278 19.9166 24.1718 19.894 24.1186 19.865C24.0624 19.8361 23.9749 19.7749 23.928 19.7266C23.878 19.6815 23.8155 19.5978 23.7905 19.5462C23.7468 19.4625 23.7405 19.2307 23.7468 17.6624C23.7499 16.6802 23.7374 15.434 23.7218 14.893C23.703 14.3263 23.6718 13.7595 23.6405 13.5566C23.6124 13.3602 23.5561 13.0639 23.5124 12.8965C23.4686 12.729 23.3905 12.4811 23.3343 12.349C23.2811 12.217 23.1655 11.998 23.0811 11.866C22.9968 11.734 22.828 11.5182 22.7061 11.3894C22.5843 11.2574 22.3655 11.0706 22.2186 10.9708C22.0718 10.871 21.8405 10.7389 21.703 10.681C21.5655 10.623 21.3468 10.5457 21.2186 10.5103C21.0905 10.4781 20.878 10.4362 20.7499 10.4169C20.6218 10.4008 20.1999 10.3686 19.8124 10.3461C19.3655 10.3203 18.3124 10.3074 16.9374 10.3074C15.2624 10.3074 14.5843 10.3203 13.9686 10.3622C13.4874 10.3944 13.0655 10.4427 12.9061 10.4781C12.7593 10.5135 12.528 10.5844 12.3905 10.6423C12.253 10.7003 12.0561 10.7969 11.953 10.8581C11.8499 10.9225 11.6874 11.0352 11.5936 11.1092C11.4999 11.1833 11.3374 11.3379 11.2343 11.4506C11.1311 11.5665 10.9968 11.7372 10.9343 11.8338C10.8718 11.9304 10.7843 12.085 10.7405 12.1719C10.6999 12.2589 10.6218 12.4553 10.5686 12.6067C10.5186 12.758 10.4468 13.0382 10.4093 13.2346C10.3749 13.4278 10.328 13.7627 10.3124 13.9752C10.2936 14.1878 10.2718 15.2827 10.2624 16.4065C10.2499 17.6495 10.2561 18.8764 10.278 19.5301C10.2968 20.1227 10.3311 20.7538 10.3561 20.9309C10.3811 21.1081 10.4249 21.3528 10.453 21.4784C10.4811 21.6007 10.5405 21.8036 10.5843 21.9292C10.628 22.0516 10.6999 22.2287 10.7436 22.3156C10.7843 22.4026 10.878 22.5636 10.9468 22.6699C11.0186 22.7761 11.153 22.95 11.2468 23.0531C11.3436 23.1561 11.528 23.3236 11.6561 23.4234C11.7843 23.5232 11.9968 23.6585 12.1249 23.7229C12.253 23.7873 12.4468 23.871 12.5561 23.9064C12.6624 23.9451 12.8436 23.9966 12.9593 24.0224C13.078 24.0481 13.5311 24.0932 13.9686 24.1254C14.5843 24.1673 15.2593 24.1801 16.9218 24.1801C18.3124 24.1834 19.3343 24.1673 19.7968 24.1415C20.1905 24.119 20.6218 24.0868 20.7499 24.0674C20.878 24.0513 21.0749 24.0127 21.1874 23.9869C21.2999 23.958 21.4968 23.8903 21.6249 23.8388C21.753 23.7873 21.9686 23.6746 22.1061 23.5941C22.2405 23.5103 22.4655 23.3332 22.6061 23.198C22.7436 23.0627 22.9311 22.847 23.0186 22.7149C23.1061 22.5829 23.2374 22.3607 23.3061 22.219C23.378 22.0773 23.4749 21.9324 23.5218 21.8938C23.5686 21.8584 23.6655 21.8068 23.7343 21.7843C23.8061 21.7618 23.9186 21.7521 23.9999 21.7618C24.0811 21.7714 24.1936 21.8197 24.2624 21.8712C24.3311 21.9195 24.4186 22.0258 24.4593 22.1063C24.5061 22.1997 24.5311 22.306 24.5311 22.4026C24.5311 22.525 24.4936 22.6312 24.3624 22.9017C24.2686 23.0949 24.1061 23.3719 23.9999 23.5232C23.8905 23.6746 23.6749 23.9257 23.5186 24.0835C23.3624 24.2413 23.0999 24.4603 22.9374 24.573C22.7749 24.6825 22.5218 24.8339 22.3749 24.9047C22.228 24.9755 21.9811 25.0754 21.828 25.1301C21.6718 25.1816 21.4061 25.2557 21.2343 25.2911C21.0624 25.3265 20.7124 25.3716 20.453 25.3877C20.1968 25.4038 19.6593 25.436 19.2655 25.4586C18.803 25.4811 17.8655 25.4908 16.6249 25.4811C15.5686 25.4715 14.428 25.4489 14.0936 25.4296C13.7593 25.4071 13.3499 25.3749 13.1874 25.3587C13.0249 25.3394 12.7468 25.2911 12.5718 25.246C12.3936 25.201 12.1186 25.114 11.9624 25.0528C11.803 24.9884 11.5436 24.8661 11.3905 24.7759C11.2343 24.6889 11.0124 24.5408 10.8905 24.4474C10.7718 24.3573 10.5905 24.1995 10.4874 24.1029C10.3874 24.0063 10.2155 23.8098 10.1093 23.6681C10.003 23.5264 9.87488 23.3461 9.828 23.2656C9.778 23.1851 9.678 22.9951 9.603 22.8373C9.53113 22.6827 9.428 22.4316 9.378 22.2738C9.32488 22.1192 9.25613 21.8616 9.22175 21.7038C9.18738 21.5428 9.13738 21.2401 9.10925 21.0275C9.08425 20.815 9.04675 20.3062 9.03113 19.9005C9.0155 19.4915 8.99988 18.197 8.99988 17.0184C8.99988 15.8398 9.0155 14.6451 9.03113 14.3617C9.04988 14.0783 9.08738 13.6725 9.11238 13.46C9.13738 13.2475 9.18738 12.9416 9.22175 12.7838C9.25613 12.6228 9.32488 12.3684 9.378 12.2106C9.428 12.056 9.53425 11.7952 9.61238 11.6309C9.6905 11.4699 9.83425 11.2123 9.93113 11.0609C10.028 10.9096 10.2405 10.6488 10.4061 10.4813C10.5686 10.3139 10.7905 10.111 10.8968 10.0305C11.0061 9.94997 11.2093 9.81794 11.3499 9.73099C11.4936 9.64727 11.7499 9.52168 11.9218 9.45083C12.0936 9.38321 12.3811 9.28982 12.5624 9.24474C12.7436 9.19965 13.0093 9.14813 13.1561 9.13203C13.303 9.11271 13.7655 9.08373 14.1874 9.06118C14.6093 9.04186 14.9593 9.01932 14.9655 9.01288C14.9718 9.00644 15.8436 9 16.903 9ZM21.3749 11.9433C21.503 11.9529 21.6374 11.9884 21.7343 12.0399C21.8218 12.0818 21.9374 12.1719 21.9968 12.2428C22.0561 12.3104 22.1343 12.4295 22.1686 12.51C22.2155 12.6163 22.2343 12.7226 22.2343 12.8965C22.2343 13.0704 22.2155 13.1766 22.1686 13.2829C22.1343 13.3634 22.0561 13.4826 21.9968 13.5502C21.9374 13.621 21.8124 13.7144 21.7186 13.7595C21.578 13.8303 21.503 13.8464 21.3124 13.8464C21.1218 13.8464 21.0468 13.8303 20.9061 13.7595C20.8124 13.7144 20.6874 13.621 20.628 13.5502C20.5686 13.4826 20.4936 13.3634 20.4593 13.2829C20.4249 13.2024 20.3905 13.0736 20.3843 12.9931C20.3749 12.9126 20.3811 12.7741 20.403 12.6872C20.4218 12.597 20.478 12.4617 20.5249 12.3812C20.5718 12.3007 20.6655 12.1912 20.7343 12.1397C20.7999 12.085 20.928 12.0174 21.0124 11.9851C21.128 11.9433 21.228 11.9336 21.3749 11.9433ZM16.9374 13.2217C17.0999 13.2217 17.3686 13.241 17.5311 13.2668C17.6936 13.2926 17.9343 13.3441 18.0624 13.3795C18.1905 13.4149 18.4655 13.5309 18.6718 13.6339C18.878 13.7402 19.1593 13.9108 19.2968 14.0171C19.4343 14.1234 19.653 14.323 19.7811 14.4615C19.9124 14.6032 20.0936 14.8318 20.1874 14.9735C20.278 15.1152 20.4218 15.376 20.503 15.5532C20.5843 15.7303 20.6811 15.9847 20.7186 16.1167C20.753 16.2487 20.803 16.4967 20.828 16.6641C20.853 16.8316 20.8749 17.0924 20.8749 17.2438C20.8749 17.3951 20.853 17.656 20.828 17.8234C20.803 17.9909 20.753 18.2388 20.7186 18.3709C20.6811 18.5029 20.5843 18.7573 20.503 18.9344C20.4218 19.1115 20.2843 19.3659 20.1968 19.4979C20.1124 19.63 19.928 19.8618 19.7936 20.01C19.6593 20.1581 19.4343 20.3642 19.2968 20.4704C19.1593 20.5767 18.878 20.7474 18.6718 20.8537C18.4655 20.9567 18.1905 21.0726 18.0624 21.1081C17.9343 21.1435 17.6936 21.195 17.5311 21.2208C17.3686 21.2465 17.1155 21.2691 16.9686 21.2691C16.8218 21.2691 16.5686 21.2465 16.4061 21.2208C16.2436 21.195 16.003 21.1435 15.8749 21.1081C15.7468 21.0694 15.4999 20.9696 15.328 20.8859C15.1561 20.8021 14.903 20.6572 14.7655 20.5606C14.628 20.4672 14.3811 20.2515 14.2155 20.0808C14.0499 19.9101 13.8405 19.6557 13.7499 19.514C13.6561 19.3723 13.5155 19.1115 13.4343 18.9344C13.353 18.7573 13.2561 18.5029 13.2186 18.3709C13.1843 18.2388 13.1343 17.9909 13.1093 17.8234C13.0843 17.656 13.0624 17.3951 13.0624 17.2438C13.0624 17.0924 13.0843 16.8316 13.1093 16.6641C13.1343 16.4967 13.1843 16.2487 13.2186 16.1167C13.253 15.9847 13.3655 15.7013 13.4655 15.4888C13.5686 15.2762 13.7343 14.9864 13.8374 14.8447C13.9405 14.703 14.1343 14.4776 14.2686 14.3456C14.4061 14.2103 14.628 14.0236 14.7655 13.9269C14.903 13.8336 15.1561 13.6854 15.328 13.6017C15.4999 13.5148 15.753 13.4149 15.8905 13.3763C16.028 13.3376 16.253 13.2861 16.3905 13.2668C16.528 13.2443 16.7749 13.2249 16.9374 13.2217ZM16.1718 14.6386C16.0499 14.6773 15.8843 14.7449 15.7968 14.7867C15.7124 14.8318 15.5561 14.9284 15.453 15.0025C15.3499 15.0733 15.1874 15.2118 15.0936 15.3116C14.9968 15.4083 14.8624 15.5757 14.7936 15.682C14.7218 15.7882 14.6343 15.9396 14.5936 16.0201C14.553 16.1006 14.4874 16.2648 14.4499 16.3904C14.4093 16.5128 14.3593 16.7318 14.3405 16.8735C14.3186 17.0184 14.3124 17.2599 14.3218 17.4209C14.3311 17.5787 14.378 17.8363 14.4218 17.9909C14.4655 18.1487 14.5374 18.3515 14.5811 18.4417C14.628 18.5351 14.7218 18.6993 14.7936 18.8056C14.8624 18.9119 14.9968 19.0793 15.0936 19.1759C15.1874 19.2757 15.3499 19.4142 15.453 19.4851C15.5561 19.5591 15.7155 19.6557 15.8061 19.704C15.8936 19.7491 16.0905 19.8264 16.2436 19.8747C16.4843 19.9488 16.5655 19.9584 16.9686 19.9584C17.3718 19.9584 17.453 19.9488 17.6968 19.8747C17.8468 19.8264 18.0436 19.7491 18.1343 19.704C18.2218 19.6557 18.3811 19.5591 18.4843 19.4851C18.5874 19.4142 18.7499 19.2757 18.8436 19.1759C18.9405 19.0793 19.0749 18.9119 19.1436 18.8056C19.2155 18.6993 19.3093 18.5351 19.3561 18.4417C19.3999 18.3515 19.4749 18.1487 19.5218 17.9909C19.5936 17.7429 19.603 17.6592 19.603 17.2438C19.603 16.8284 19.5936 16.7446 19.5218 16.4935C19.4749 16.3389 19.3999 16.136 19.3561 16.0426C19.3093 15.9525 19.2155 15.7882 19.1436 15.682C19.0749 15.5757 18.9405 15.4083 18.8436 15.3116C18.7499 15.2118 18.5874 15.0733 18.4843 15.0025C18.3811 14.9284 18.2218 14.8318 18.1343 14.7835C18.0436 14.7384 17.8468 14.6612 17.6968 14.6161C17.4905 14.5549 17.3311 14.5323 17.0624 14.5227C16.8655 14.5162 16.6343 14.5227 16.5468 14.5388C16.4624 14.5549 16.2905 14.6 16.1718 14.6386Z" fill="#F5F5F5"/>
</svg>
