<svg width="16" height="16" viewBox="0 0 16 16" fill="none" xmlns="http://www.w3.org/2000/svg">
<path fill-rule="evenodd" clip-rule="evenodd" d="M7.95312 0.000452506C8.4375 -0.00269763 8.67188 0.00990292 9 0.0603051C9.23125 0.0949566 9.53437 0.145359 9.67188 0.17371C9.80938 0.202061 10.075 0.271364 10.2656 0.328067C10.4531 0.381619 10.7781 0.495024 10.9844 0.576928C11.1906 0.661981 11.5062 0.806888 11.6875 0.901392C11.8688 0.999046 12.1688 1.1786 12.3594 1.30146C12.5469 1.42746 12.8438 1.64482 13.0156 1.78343C13.1875 1.92204 13.5031 2.2213 13.7188 2.44181C13.9344 2.66547 14.2031 2.96788 14.3156 3.11594C14.4313 3.264 14.6156 3.52546 14.7281 3.69871C14.8375 3.87197 14.9937 4.13343 15.0719 4.28149C15.15 4.42955 15.2844 4.71306 15.3687 4.91152C15.4531 5.10998 15.5719 5.42814 15.6344 5.6203C15.6937 5.80931 15.7719 6.10542 15.8094 6.27553C15.8437 6.44248 15.9031 6.7764 15.9375 7.01266C15.9812 7.30877 16 7.61433 16 7.96715C16 8.25381 15.9781 8.65703 15.9531 8.86494C15.925 9.07285 15.875 9.39101 15.8406 9.57372C15.8031 9.75643 15.7281 10.0651 15.6687 10.2604C15.6094 10.4526 15.5062 10.7582 15.4344 10.9346C15.3656 11.1141 15.2156 11.4355 15.1031 11.6528C14.9937 11.8702 14.8281 12.16 14.7375 12.2986C14.65 12.4372 14.5344 12.5821 14.4844 12.6168C14.4312 12.6546 14.3281 12.7018 14.25 12.7239C14.1406 12.7522 14.075 12.7522 13.9531 12.7207C13.8438 12.6924 13.7594 12.642 13.6687 12.5538C13.575 12.4592 13.5313 12.3836 13.5063 12.2671C13.4875 12.1789 13.4812 12.0592 13.4969 11.9993C13.5094 11.9395 13.5969 11.7599 13.6938 11.6056C13.7906 11.4481 13.9438 11.1803 14.0312 11.007C14.1187 10.8338 14.2437 10.5503 14.3094 10.377C14.375 10.2037 14.4687 9.92654 14.5125 9.76273C14.5562 9.59892 14.6219 9.29336 14.6562 9.08545C14.6938 8.87754 14.7281 8.50267 14.7406 8.25066C14.75 7.98605 14.7438 7.63639 14.7219 7.41588C14.7031 7.20797 14.6531 6.87405 14.6125 6.67559C14.5719 6.47714 14.4781 6.12747 14.4031 5.90381C14.3281 5.677 14.175 5.30213 14.0594 5.06902C13.9437 4.83591 13.7531 4.49885 13.6344 4.32244C13.5187 4.14603 13.3 3.85622 13.1531 3.67666C13.0062 3.49711 12.7563 3.23249 12.5969 3.08444C12.4375 2.93638 12.1781 2.71902 12.0219 2.60247C11.8625 2.48276 11.6156 2.31265 11.4688 2.22445C11.3219 2.13625 11.0469 1.99134 10.8594 1.89999C10.6688 1.80863 10.3438 1.67633 10.1313 1.60702C9.92188 1.53457 9.57813 1.44322 9.36563 1.40226C9.15625 1.35816 8.82812 1.30776 8.64062 1.29201C8.45 1.27311 8.1625 1.25736 8 1.25736C7.8375 1.25736 7.55625 1.26996 7.375 1.28886C7.19375 1.30776 6.9 1.35186 6.71875 1.38651C6.5375 1.42116 6.2625 1.48732 6.10938 1.53142C5.95312 1.57552 5.69062 1.66372 5.52187 1.73303C5.35625 1.79918 5.10312 1.91574 4.95937 1.98504C4.81875 2.05749 4.59687 2.18035 4.46875 2.2591C4.34063 2.33785 4.1 2.50166 3.9375 2.62452C3.775 2.74737 3.50312 2.98363 3.33125 3.14744C3.15937 3.31125 2.91562 3.57271 2.7875 3.73022C2.65937 3.88457 2.46875 4.13973 2.36562 4.29724C2.2625 4.4516 2.10313 4.72251 2.0125 4.89577C1.92188 5.06902 1.79062 5.35569 1.72187 5.53524C1.65 5.71165 1.55312 6.00146 1.50312 6.18102C1.45312 6.35743 1.39062 6.62204 1.3625 6.7701C1.3375 6.91815 1.29688 7.20797 1.27813 7.41588C1.25625 7.63639 1.25 7.97975 1.25937 8.23491C1.27187 8.47747 1.3 8.81139 1.32812 8.97519C1.35625 9.139 1.41875 9.42881 1.46563 9.62097C1.51563 9.80998 1.60938 10.1092 1.67188 10.2825C1.7375 10.4558 1.89062 10.8023 2.01875 11.0543C2.2 11.4166 2.24687 11.5394 2.25 11.6528C2.25 11.7316 2.11875 12.3868 1.9625 13.1082C1.80312 13.8296 1.67812 14.4312 1.6875 14.4407C1.69688 14.4501 2.3 14.3241 3.03125 14.1572C3.7625 13.9902 4.42188 13.8516 4.5 13.8516C4.60625 13.8516 4.73125 13.8957 5.03125 14.0438C5.24688 14.1477 5.6125 14.2958 5.84375 14.3745C6.075 14.4533 6.44062 14.5509 6.65625 14.595C6.87188 14.6391 7.21563 14.6927 7.42188 14.7116C7.63438 14.7336 7.98438 14.7399 8.23438 14.7305C8.475 14.721 8.81875 14.6895 9 14.6612C9.18125 14.6328 9.44062 14.5824 9.57812 14.5478C9.71563 14.5131 10.0031 14.4281 10.2188 14.3556C10.4375 14.28 10.8313 14.1068 11.1156 13.9619C11.5531 13.7382 11.6469 13.7004 11.7812 13.7004C11.8719 13.7004 11.9844 13.7256 12.0531 13.7603C12.1188 13.7918 12.2031 13.8548 12.2406 13.8957C12.2781 13.9335 12.3312 14.0217 12.3562 14.0879C12.3844 14.1509 12.4062 14.258 12.4062 14.3241C12.4062 14.3871 12.3781 14.4974 12.3469 14.5667C12.3156 14.636 12.2437 14.7368 12.1844 14.7872C12.125 14.8408 11.8937 14.9762 11.6719 15.0928C11.4469 15.2062 11.1219 15.3605 10.9438 15.4298C10.7688 15.5023 10.4875 15.5999 10.3188 15.6503C10.1531 15.7007 9.87813 15.77 9.70938 15.8078C9.54375 15.8456 9.2125 15.9023 8.975 15.937C8.675 15.9811 8.38125 16 8 16C7.61562 16 7.32188 15.9811 7.01562 15.937C6.775 15.9023 6.41563 15.8362 6.21875 15.7921C6.02187 15.748 5.69688 15.6566 5.5 15.5905C5.30312 15.5243 5.00625 15.4109 4.84375 15.3385C4.68125 15.266 4.5125 15.1936 4.46875 15.1747C4.40625 15.1463 4.0625 15.2156 2.64062 15.5432C1.23125 15.8645 0.8625 15.9401 0.75 15.9244C0.671875 15.9118 0.559375 15.8708 0.5 15.833C0.440625 15.7921 0.359375 15.7102 0.321875 15.6503C0.284375 15.5905 0.24375 15.4802 0.23125 15.4015C0.215625 15.2881 0.2875 14.9195 0.975 11.7946L0.865625 11.5741C0.80625 11.4512 0.7 11.2181 0.63125 11.0543C0.5625 10.8905 0.4625 10.6196 0.40625 10.4558C0.353125 10.292 0.26875 9.98639 0.21875 9.77848C0.16875 9.57057 0.1 9.202 0.0625 8.95944C0.01875 8.65388 0 8.36092 0 7.99865C0 7.71199 0.021875 7.30877 0.046875 7.10086C0.075 6.89295 0.125 6.58739 0.15625 6.42358C0.190625 6.25978 0.259375 5.97626 0.309375 5.79356C0.3625 5.61085 0.4625 5.31473 0.534375 5.13203C0.603125 4.94932 0.746875 4.63115 0.85 4.42325C0.953125 4.21534 1.15313 3.86882 1.29688 3.65146C1.44062 3.4341 1.65313 3.13799 1.77188 2.98993C1.8875 2.84188 2.1375 2.56466 2.32812 2.37566C2.51875 2.1835 2.80625 1.92204 2.96875 1.78973C3.13125 1.65742 3.39062 1.46527 3.54688 1.36131C3.7 1.25421 3.96875 1.0904 4.14062 0.995896C4.3125 0.898242 4.61562 0.750185 4.8125 0.665132C5.00938 0.580078 5.34687 0.450922 5.5625 0.381619C5.77813 0.312316 6.1 0.224112 6.28125 0.186311C6.4625 0.145359 6.77187 0.0886564 6.96875 0.0603051C7.20312 0.0256536 7.54375 0.00360264 7.95312 0.000452506ZM5.67812 4.4768C5.96562 4.48625 6.00312 4.49255 6.07812 4.565C6.125 4.6091 6.20312 4.72881 6.25 4.83276C6.29688 4.93672 6.45 5.31158 6.59375 5.66755C6.79375 6.17157 6.84688 6.33538 6.83125 6.40783C6.82188 6.45823 6.77188 6.56534 6.72188 6.64409C6.675 6.72285 6.54063 6.8898 6.425 7.01581C6.2875 7.16702 6.21875 7.26782 6.21875 7.32137C6.21875 7.36862 6.325 7.56078 6.475 7.78759C6.6625 8.06796 6.8375 8.27901 7.125 8.56883C7.38125 8.83029 7.61562 9.0319 7.8125 9.16105C7.975 9.27131 8.2625 9.43826 8.45312 9.52962C8.64062 9.62412 8.84688 9.70603 8.90625 9.71863C8.99375 9.73438 9.03437 9.72178 9.10625 9.66192C9.15625 9.62412 9.3375 9.41306 9.50937 9.1957C9.68125 8.97834 9.85313 8.78619 9.89688 8.77044C9.95313 8.74838 10.0094 8.75154 10.1187 8.79249C10.2 8.82084 10.5844 9.00355 10.975 9.19255C11.5125 9.45717 11.7 9.56427 11.7406 9.63042C11.7813 9.69973 11.7906 9.75958 11.7719 9.93599C11.7625 10.0557 11.725 10.2479 11.6906 10.3613C11.6563 10.4747 11.5812 10.629 11.525 10.7046C11.4687 10.7802 11.3375 10.9062 11.2344 10.985C11.1313 11.0637 10.9469 11.174 10.8281 11.2307C10.7062 11.2874 10.5062 11.3504 10.375 11.3724C10.2406 11.3914 10.0344 11.4008 9.89062 11.3882C9.75312 11.3787 9.46563 11.322 9.25 11.2622C9.03437 11.2023 8.68438 11.0889 8.46875 11.007C8.25312 10.9251 7.95937 10.796 7.8125 10.7235C7.66563 10.6511 7.41875 10.503 7.26562 10.3991C7.10938 10.2951 6.85 10.0966 6.6875 9.95804C6.525 9.82258 6.25938 9.56742 6.09688 9.39731C5.93438 9.2272 5.7 8.95629 5.57812 8.80194C5.45312 8.64443 5.25625 8.37667 5.13438 8.20341C5.01563 8.03015 4.85625 7.78129 4.78125 7.65214C4.70625 7.52298 4.60625 7.31507 4.55625 7.19537C4.50625 7.07251 4.44375 6.8898 4.41563 6.78585C4.37813 6.65669 4.3625 6.47083 4.3625 6.20307C4.3625 5.85341 4.37187 5.78095 4.45 5.5573C4.49687 5.41869 4.56875 5.24858 4.60938 5.17928C4.65312 5.10998 4.75938 4.96192 4.85313 4.84851C4.96563 4.70991 5.075 4.6154 5.19063 4.55555C5.34688 4.47365 5.38125 4.46735 5.67812 4.4768Z" fill="#F5F5F5"/>
</svg>
