<svg width="35" height="35" viewBox="0 0 35 35" fill="none" xmlns="http://www.w3.org/2000/svg">
<path fill-rule="evenodd" clip-rule="evenodd" d="M17.4999 35C27.1649 35 34.9999 27.165 34.9999 17.5C34.9999 7.83502 27.1649 0 17.4999 0C7.8349 0 -0.00012207 7.83502 -0.00012207 17.5C-0.00012207 27.165 7.8349 35 17.4999 35Z" fill="#9D5022"/>
<path fill-rule="evenodd" clip-rule="evenodd" d="M16.953 9.00045C17.4374 8.9973 17.6718 9.0099 17.9999 9.06031C18.2311 9.09496 18.5343 9.14536 18.6718 9.17371C18.8093 9.20206 19.0749 9.27136 19.2655 9.32807C19.453 9.38162 19.778 9.49502 19.9843 9.57693C20.1905 9.66198 20.5061 9.80689 20.6874 9.90139C20.8686 9.99905 21.1686 10.1786 21.3593 10.3015C21.5468 10.4275 21.8436 10.6448 22.0155 10.7834C22.1874 10.922 22.503 11.2213 22.7186 11.4418C22.9343 11.6655 23.203 11.9679 23.3155 12.1159C23.4311 12.264 23.6155 12.5255 23.728 12.6987C23.8374 12.872 23.9936 13.1334 24.0718 13.2815C24.1499 13.4295 24.2843 13.7131 24.3686 13.9115C24.453 14.11 24.5718 14.4281 24.6343 14.6203C24.6936 14.8093 24.7718 15.1054 24.8093 15.2755C24.8436 15.4425 24.903 15.7764 24.9374 16.0127C24.9811 16.3088 24.9999 16.6143 24.9999 16.9672C24.9999 17.2538 24.978 17.657 24.953 17.8649C24.9249 18.0728 24.8749 18.391 24.8405 18.5737C24.803 18.7564 24.728 19.0651 24.6686 19.2604C24.6093 19.4526 24.5061 19.7582 24.4343 19.9346C24.3655 20.1141 24.2155 20.4355 24.103 20.6528C23.9936 20.8702 23.828 21.16 23.7374 21.2986C23.6499 21.4372 23.5343 21.5821 23.4843 21.6168C23.4311 21.6546 23.328 21.7018 23.2499 21.7239C23.1405 21.7522 23.0749 21.7522 22.953 21.7207C22.8436 21.6924 22.7593 21.642 22.6686 21.5538C22.5749 21.4592 22.5311 21.3836 22.5061 21.2671C22.4874 21.1789 22.4811 21.0592 22.4968 20.9993C22.5093 20.9395 22.5968 20.7599 22.6936 20.6056C22.7905 20.4481 22.9436 20.1803 23.0311 20.007C23.1186 19.8338 23.2436 19.5503 23.3093 19.377C23.3749 19.2037 23.4686 18.9265 23.5124 18.7627C23.5561 18.5989 23.6218 18.2934 23.6561 18.0854C23.6936 17.8775 23.728 17.5027 23.7405 17.2507C23.7499 16.9861 23.7436 16.6364 23.7218 16.4159C23.703 16.208 23.653 15.8741 23.6124 15.6756C23.5718 15.4771 23.478 15.1275 23.403 14.9038C23.328 14.677 23.1749 14.3021 23.0593 14.069C22.9436 13.8359 22.753 13.4988 22.6343 13.3224C22.5186 13.146 22.2999 12.8562 22.153 12.6767C22.0061 12.4971 21.7561 12.2325 21.5968 12.0844C21.4374 11.9364 21.178 11.719 21.0218 11.6025C20.8624 11.4828 20.6155 11.3127 20.4686 11.2244C20.3218 11.1362 20.0468 10.9913 19.8593 10.9C19.6686 10.8086 19.3436 10.6763 19.1311 10.607C18.9218 10.5346 18.578 10.4432 18.3655 10.4023C18.1561 10.3582 17.828 10.3078 17.6405 10.292C17.4499 10.2731 17.1624 10.2574 16.9999 10.2574C16.8374 10.2574 16.5561 10.27 16.3749 10.2889C16.1936 10.3078 15.8999 10.3519 15.7186 10.3865C15.5374 10.4212 15.2624 10.4873 15.1093 10.5314C14.953 10.5755 14.6905 10.6637 14.5218 10.733C14.3561 10.7992 14.103 10.9157 13.9593 10.985C13.8186 11.0575 13.5968 11.1803 13.4686 11.2591C13.3405 11.3379 13.0999 11.5017 12.9374 11.6245C12.7749 11.7474 12.503 11.9836 12.3311 12.1474C12.1593 12.3112 11.9155 12.5727 11.7874 12.7302C11.6593 12.8846 11.4686 13.1397 11.3655 13.2972C11.2624 13.4516 11.103 13.7225 11.0124 13.8958C10.9218 14.069 10.7905 14.3557 10.7218 14.5352C10.6499 14.7117 10.553 15.0015 10.503 15.181C10.453 15.3574 10.3905 15.622 10.3624 15.7701C10.3374 15.9182 10.2968 16.208 10.278 16.4159C10.2561 16.6364 10.2499 16.9798 10.2593 17.2349C10.2718 17.4775 10.2999 17.8114 10.328 17.9752C10.3561 18.139 10.4186 18.4288 10.4655 18.621C10.5155 18.81 10.6093 19.1092 10.6718 19.2825C10.7374 19.4558 10.8905 19.8023 11.0186 20.0543C11.1999 20.4166 11.2468 20.5394 11.2499 20.6528C11.2499 20.7316 11.1186 21.3868 10.9624 22.1082C10.803 22.8296 10.678 23.4312 10.6874 23.4407C10.6968 23.4501 11.2999 23.3241 12.0311 23.1572C12.7624 22.9902 13.4218 22.8516 13.4999 22.8516C13.6061 22.8516 13.7311 22.8957 14.0311 23.0438C14.2468 23.1477 14.6124 23.2958 14.8436 23.3745C15.0749 23.4533 15.4405 23.5509 15.6561 23.595C15.8718 23.6391 16.2155 23.6927 16.4218 23.7116C16.6343 23.7336 16.9843 23.7399 17.2343 23.7305C17.4749 23.721 17.8186 23.6895 17.9999 23.6612C18.1811 23.6328 18.4405 23.5824 18.578 23.5478C18.7155 23.5131 19.003 23.4281 19.2186 23.3556C19.4374 23.28 19.8311 23.1068 20.1155 22.9619C20.553 22.7382 20.6468 22.7004 20.7811 22.7004C20.8718 22.7004 20.9843 22.7256 21.053 22.7603C21.1186 22.7918 21.203 22.8548 21.2405 22.8957C21.278 22.9335 21.3311 23.0217 21.3561 23.0879C21.3843 23.1509 21.4061 23.258 21.4061 23.3241C21.4061 23.3871 21.378 23.4974 21.3468 23.5667C21.3155 23.636 21.2436 23.7368 21.1843 23.7872C21.1249 23.8408 20.8936 23.9762 20.6718 24.0928C20.4468 24.2062 20.1218 24.3605 19.9436 24.4298C19.7686 24.5023 19.4874 24.5999 19.3186 24.6503C19.153 24.7007 18.878 24.77 18.7093 24.8078C18.5436 24.8456 18.2124 24.9023 17.9749 24.937C17.6749 24.9811 17.3811 25 16.9999 25C16.6155 25 16.3218 24.9811 16.0155 24.937C15.7749 24.9023 15.4155 24.8362 15.2186 24.7921C15.0218 24.748 14.6968 24.6566 14.4999 24.5905C14.303 24.5243 14.0061 24.4109 13.8436 24.3385C13.6811 24.266 13.5124 24.1936 13.4686 24.1747C13.4061 24.1463 13.0624 24.2156 11.6405 24.5432C10.2311 24.8645 9.86238 24.9401 9.74988 24.9244C9.67175 24.9118 9.55925 24.8708 9.49988 24.833C9.4405 24.7921 9.35925 24.7102 9.32175 24.6503C9.28425 24.5905 9.24363 24.4802 9.23113 24.4015C9.2155 24.2881 9.28738 23.9195 9.97488 20.7946L9.8655 20.5741C9.80613 20.4512 9.69988 20.2181 9.63113 20.0543C9.56238 19.8905 9.46238 19.6196 9.40613 19.4558C9.353 19.292 9.26863 18.9864 9.21863 18.7785C9.16863 18.5706 9.09988 18.202 9.06238 17.9594C9.01863 17.6539 8.99988 17.3609 8.99988 16.9987C8.99988 16.712 9.02175 16.3088 9.04675 16.1009C9.07488 15.893 9.12488 15.5874 9.15613 15.4236C9.1905 15.2598 9.25925 14.9763 9.30925 14.7936C9.36238 14.6108 9.46238 14.3147 9.53425 14.132C9.603 13.9493 9.74675 13.6312 9.84988 13.4232C9.953 13.2153 10.153 12.8688 10.2968 12.6515C10.4405 12.4341 10.653 12.138 10.7718 11.9899C10.8874 11.8419 11.1374 11.5647 11.328 11.3757C11.5186 11.1835 11.8061 10.922 11.9686 10.7897C12.1311 10.6574 12.3905 10.4653 12.5468 10.3613C12.6999 10.2542 12.9686 10.0904 13.1405 9.9959C13.3124 9.89824 13.6155 9.75019 13.8124 9.66513C14.0093 9.58008 14.3468 9.45092 14.5624 9.38162C14.778 9.31232 15.0999 9.22411 15.2811 9.18631C15.4624 9.14536 15.7718 9.08866 15.9686 9.06031C16.203 9.02565 16.5436 9.0036 16.953 9.00045ZM14.678 13.4768C14.9655 13.4862 15.003 13.4925 15.078 13.565C15.1249 13.6091 15.203 13.7288 15.2499 13.8328C15.2968 13.9367 15.4499 14.3116 15.5936 14.6675C15.7936 15.1716 15.8468 15.3354 15.8311 15.4078C15.8218 15.4582 15.7718 15.5653 15.7218 15.6441C15.6749 15.7228 15.5405 15.8898 15.4249 16.0158C15.2874 16.167 15.2186 16.2678 15.2186 16.3214C15.2186 16.3686 15.3249 16.5608 15.4749 16.7876C15.6624 17.068 15.8374 17.279 16.1249 17.5688C16.3811 17.8303 16.6155 18.0319 16.8124 18.1611C16.9749 18.2713 17.2624 18.4383 17.453 18.5296C17.6405 18.6241 17.8468 18.706 17.9061 18.7186C17.9936 18.7344 18.0343 18.7218 18.1061 18.6619C18.1561 18.6241 18.3374 18.4131 18.5093 18.1957C18.6811 17.9783 18.853 17.7862 18.8968 17.7704C18.953 17.7484 19.0093 17.7515 19.1186 17.7925C19.1999 17.8208 19.5843 18.0035 19.9749 18.1926C20.5124 18.4572 20.6999 18.5643 20.7405 18.6304C20.7811 18.6997 20.7905 18.7596 20.7718 18.936C20.7624 19.0557 20.7249 19.2479 20.6905 19.3613C20.6561 19.4747 20.5811 19.629 20.5249 19.7046C20.4686 19.7802 20.3374 19.9062 20.2343 19.985C20.1311 20.0637 19.9468 20.174 19.828 20.2307C19.7061 20.2874 19.5061 20.3504 19.3749 20.3724C19.2405 20.3913 19.0343 20.4008 18.8905 20.3882C18.753 20.3787 18.4655 20.322 18.2499 20.2622C18.0343 20.2023 17.6843 20.0889 17.4686 20.007C17.253 19.9251 16.9593 19.796 16.8124 19.7235C16.6655 19.6511 16.4186 19.503 16.2655 19.3991C16.1093 19.2951 15.8499 19.0966 15.6874 18.958C15.5249 18.8226 15.2593 18.5674 15.0968 18.3973C14.9343 18.2272 14.6999 17.9563 14.578 17.8019C14.453 17.6444 14.2561 17.3767 14.1343 17.2034C14.0155 17.0302 13.8561 16.7813 13.7811 16.6521C13.7061 16.523 13.6061 16.3151 13.5561 16.1954C13.5061 16.0725 13.4436 15.8898 13.4155 15.7858C13.378 15.6567 13.3624 15.4708 13.3624 15.2031C13.3624 14.8534 13.3718 14.781 13.4499 14.5573C13.4968 14.4187 13.5686 14.2486 13.6093 14.1793C13.653 14.11 13.7593 13.9619 13.853 13.8485C13.9655 13.7099 14.0749 13.6154 14.1905 13.5556C14.3468 13.4736 14.3811 13.4673 14.678 13.4768Z" fill="#F5F5F5"/>
</svg>
