<svg width="60" height="65" viewBox="0 0 60 65" fill="none" xmlns="http://www.w3.org/2000/svg">
<path d="M58.3379 0.50951C59.1589 1.24279 59.2255 2.49771 58.4866 3.31246L40.4866 23.1598C39.7477 23.9745 38.4831 24.0406 37.6621 23.3073C36.841 22.574 36.7745 21.3191 37.5134 20.5044L55.5134 0.657033C56.2523 -0.157719 57.5169 -0.223768 58.3379 0.50951Z" fill="#4A4945"/>
<path d="M22.2953 41.1595C23.1369 41.8694 23.2393 43.122 22.5239 43.9572L5.52388 63.8045C4.80851 64.6397 3.54632 64.7412 2.70471 64.0313C1.86309 63.3214 1.76075 62.0689 2.47613 61.2337L19.4761 41.3863C20.1915 40.5512 21.4537 40.4496 22.2953 41.1595Z" fill="#4A4945"/>
<path fill-rule="evenodd" clip-rule="evenodd" d="M15.5 1.70897e-05C16.1569 1.70897e-05 16.7719 0.320122 17.1453 0.856401L59.6453 61.8869C60.0681 62.494 60.1165 63.2837 59.7712 63.9371C59.4258 64.5906 58.7436 65 58 65H44.5C43.8431 65 43.2281 64.6799 42.8547 64.1436L0.354657 3.1131C-0.0680805 2.50604 -0.116542 1.71636 0.22884 1.06288C0.574219 0.409399 1.25642 1.70897e-05 2 1.70897e-05H15.5ZM14.451 3.96948H5.81322L45.549 61.0305H54.1868L14.451 3.96948Z" fill="#4A4945"/>
</svg>
