<svg width="55" height="42" viewBox="0 0 55 42" fill="none" xmlns="http://www.w3.org/2000/svg">
<path fill-rule="evenodd" clip-rule="evenodd" d="M27.7148 0.708367C48.501 0.729773 49.833 0.740476 50.4346 0.922428C50.7891 1.01875 51.3906 1.26492 51.7773 1.44687C52.2393 1.67164 52.7334 2.04624 53.2275 2.53858C53.7217 3.04162 54.0977 3.54466 54.3232 3.99419C54.5059 4.3795 54.7314 4.97887 54.8281 5.33207C54.9785 5.89933 55 7.72954 55 20.9585C55 34.0696 54.9785 36.0283 54.8281 36.6384C54.7422 37.0237 54.5166 37.6444 54.3232 38.0298C54.0977 38.4793 53.7217 38.993 53.2275 39.4854C52.7334 39.9777 52.2393 40.3523 51.7773 40.5771C51.3906 40.759 50.7676 41.0052 50.3809 41.1015C49.7256 41.2835 48.3721 41.2942 27.5 41.2942C6.64941 41.2942 5.27441 41.2835 4.61914 41.1015C4.23242 41.0052 3.60938 40.759 3.22266 40.5664C2.77148 40.3523 2.25586 39.9563 1.77246 39.4747C1.27832 38.9823 0.902344 38.49 0.676758 38.0298C0.494141 37.6444 0.268555 37.0451 0.171875 36.6919C0.0214844 36.1246 0 34.2944 0 21.0655C0 7.9543 0.0214844 5.99565 0.171875 5.38558C0.257812 5.00027 0.472656 4.4009 0.644531 4.04771C0.827148 3.69451 1.20312 3.13795 1.48242 2.81686C1.77246 2.49577 2.28809 2.03554 2.64258 1.80007C2.98633 1.57531 3.5127 1.28633 3.81348 1.1793C4.10352 1.07227 4.64062 0.911725 4.99512 0.836803C5.52148 0.71907 9.77539 0.697664 27.7148 0.708367ZM16.3066 14.5045C21.8389 20.0166 26.5332 24.5975 26.7266 24.6938C26.9092 24.7901 27.2637 24.8651 27.5 24.8651C27.7363 24.8651 28.0908 24.7901 28.2842 24.6938C28.4668 24.5975 33.1611 20.0166 38.6934 14.5045C44.2256 8.98179 48.7373 4.44372 48.7051 4.3902C48.6836 4.34739 39.1445 4.31528 27.5 4.31528C15.8662 4.31528 6.32715 4.34739 6.29492 4.3902C6.2627 4.44372 10.7744 8.98179 16.3066 14.5045ZM3.63086 35.0757C3.67383 35.1078 6.00488 32.9565 8.80859 30.3022C11.6123 27.6478 14.0723 25.4109 14.2656 25.336C14.4482 25.2504 14.7705 25.1861 14.9639 25.1861C15.1465 25.1861 15.5225 25.2932 15.7803 25.4216C16.1133 25.5929 16.3281 25.8069 16.5107 26.1494C16.6504 26.417 16.7578 26.7702 16.7578 26.9521C16.7578 27.1234 16.6611 27.4659 16.5537 27.7013C16.4141 28.0117 14.9209 29.478 11.3545 32.8388C8.60449 35.4289 6.38086 37.5802 6.40234 37.6337C6.42383 37.6766 15.9414 37.7087 27.5537 37.7087C39.166 37.7087 48.6836 37.6766 48.7051 37.6337C48.7373 37.5802 46.3418 35.1399 43.377 32.1966C40.2617 29.0927 37.9414 26.6953 37.8555 26.5026C37.7695 26.31 37.7051 25.9889 37.7051 25.8069C37.7051 25.6143 37.8125 25.2397 37.9521 24.9721C38.1348 24.6296 38.3496 24.4155 38.6826 24.2443C38.9404 24.1158 39.2949 24.0088 39.4775 24.0088C39.6494 24.0088 39.9932 24.1051 40.2295 24.2122C40.5195 24.3513 42.4209 26.1708 45.9766 29.7135C48.8984 32.6354 51.3262 35.0008 51.3691 34.9687C51.4229 34.9473 51.4551 28.6753 51.4551 21.0441C51.4551 13.4021 51.4229 7.10877 51.3906 7.06595C51.3477 7.02314 46.6963 11.5826 41.0459 17.191C33.9453 24.255 30.6152 27.498 30.2393 27.7121C29.9385 27.8726 29.4121 28.1081 29.0576 28.2151C28.6387 28.3435 28.0908 28.4185 27.5 28.4185C26.9092 28.4185 26.3613 28.3435 25.9424 28.2151C25.5879 28.1081 25.0508 27.8726 24.7607 27.7121C24.3848 27.498 21.0654 24.2657 13.9648 17.2017C8.3252 11.5826 3.67383 6.99103 3.62012 6.99103C3.57715 6.99103 3.54492 13.2951 3.54492 21.012C3.54492 28.7181 3.57715 35.0543 3.62012 35.0757H3.63086Z" fill="#3B1F13"/>
</svg>
