<svg width="67" height="65" viewBox="0 0 67 65" fill="none" xmlns="http://www.w3.org/2000/svg">
<path d="M8.0931 0.244611C7.62189 0.371582 6.91507 0.600131 6.52239 0.739799C6.12971 0.879468 5.35744 1.27308 4.82078 1.6159C4.28412 1.95872 3.49877 2.55549 3.07991 2.9491C2.67414 3.35541 2.03277 4.11724 1.67936 4.65052C1.31286 5.19649 0.894003 5.95832 0.750021 6.33924C0.606039 6.72015 0.383522 7.35501 0.265718 7.73592C0.0562902 8.37078 0.0432009 10.415 0.0170224 32.216C-0.0222454 55.2486 -0.00915614 56.0104 0.226451 56.9627C0.370433 57.5087 0.59295 58.2705 0.750021 58.6514C0.894003 59.0323 1.29977 59.7815 1.65318 60.3021C2.00659 60.8226 2.63488 61.5972 3.06682 62.0035C3.48568 62.4225 4.28412 63.0319 4.82078 63.3748C5.35744 63.7176 6.12971 64.1112 6.52239 64.2509C6.91507 64.3905 7.67424 64.6191 8.18473 64.7588C9.11406 64.9873 9.84706 65 33.4863 65C57.1255 65 57.8585 64.9873 58.7878 64.7588C59.2983 64.6191 60.0575 64.3905 60.4502 64.2509C60.8428 64.1112 61.6151 63.7176 62.1518 63.3748C62.6884 63.0319 63.4869 62.4225 63.9057 62.0035C64.3377 61.5972 64.966 60.8226 65.3194 60.3021C65.6728 59.7815 66.0786 59.0323 66.2225 58.6514C66.3665 58.2705 66.576 57.6357 66.6938 57.2547C66.7985 56.8738 66.9163 56.0358 66.9686 55.4137C67.0341 54.3344 67.021 54.2328 66.6938 53.6615C66.4974 53.3313 66.1047 52.9123 65.7906 52.7092C65.3325 52.4171 65.11 52.3664 64.377 52.3664C63.6701 52.3664 63.4083 52.4298 62.9895 52.6965C62.7146 52.8742 62.3481 53.2171 62.191 53.4583C61.9816 53.763 61.8507 54.2328 61.7591 55.0327C61.6544 55.8962 61.5104 56.3913 61.1832 57.0643C60.8952 57.623 60.5025 58.1562 60.0968 58.5245C59.7564 58.8292 59.0889 59.2609 58.6177 59.4767L57.7669 59.8577L43.6959 59.9211V41.3833C49.9395 41.3833 50.3714 41.3452 50.8296 41.1421C51.1175 41.0151 51.484 40.7739 51.6411 40.6088C51.7982 40.4437 52.0076 40.1009 52.1123 39.8597C52.217 39.6184 52.4134 38.6154 52.5312 37.6377C52.7275 36.114 52.7275 35.7712 52.5835 35.2887C52.4788 34.9586 52.2039 34.5269 51.9421 34.2729C51.6935 34.0317 51.2484 33.7523 50.9605 33.6762C50.607 33.5619 49.3374 33.5111 47.0599 33.5111H43.6959C43.7614 24.3057 43.7744 24.0263 44.0362 23.4804C44.1802 23.1629 44.5074 22.6931 44.7561 22.4265C45.0048 22.1472 45.5284 21.7789 45.9211 21.6012C46.6017 21.2711 46.7719 21.2584 49.1934 21.1949C51.6411 21.1314 51.772 21.1187 52.2563 20.814C52.5443 20.6362 52.9238 20.268 53.1071 20.0014C53.4343 19.5316 53.4474 19.3919 53.4867 17.5889C53.5259 16.0906 53.4867 15.5574 53.3296 15.1637C53.2249 14.8844 52.9631 14.5035 52.7668 14.313C52.5704 14.1226 52.1778 13.8813 51.9029 13.7798C51.628 13.6655 50.5809 13.5131 49.4159 13.4242C47.9368 13.31 47.1384 13.31 46.3138 13.4115C45.6986 13.4877 44.6122 13.7417 43.8923 13.9702C43.12 14.2242 42.1514 14.6559 41.5362 15.0368C40.9603 15.3796 40.1749 15.9256 39.7953 16.243C39.4026 16.5604 38.7089 17.2715 38.2508 17.8301C37.7796 18.3888 37.1382 19.3538 36.824 19.9887C36.4968 20.6108 36.1041 21.5885 35.9471 22.1472C35.6722 23.0995 35.6591 23.455 35.6198 28.3307L35.5806 33.5111L28.8134 33.5746C28.0281 34.0825 27.6485 34.4507 27.4652 34.73C27.1511 35.2125 27.138 35.2887 27.138 37.4472C27.138 39.6057 27.1511 39.6819 27.4652 40.1644C27.6485 40.4437 28.0281 40.812 28.3029 40.9897L28.8134 41.3198L35.5806 41.3833V59.9211L9.20569 59.8577C7.88367 59.2609 7.21612 58.8292 6.8758 58.5245C6.45694 58.1562 6.06426 57.623 5.76321 57.0135L5.27891 56.0612V8.94215C5.8941 7.65974 6.33914 7.01218 6.65328 6.68206C7.03287 6.27575 7.58262 5.89484 8.2109 5.6028L9.1926 5.13301H57.78C59.3899 5.89484 59.9397 6.27575 60.3193 6.68206C60.6334 7.01218 61.0785 7.65974 61.301 8.11683L61.6937 8.94215L61.8245 42.9832C62.3481 43.7577 62.7277 44.1259 63.0157 44.3037C63.4214 44.5576 63.6963 44.6211 64.377 44.6211C65.0576 44.6211 65.3325 44.5576 65.7513 44.3037C66.0262 44.1259 66.432 43.7323 66.6283 43.4149L66.9948 42.8435C66.9948 9.67858 66.9817 8.90406 66.7461 7.98986C66.6021 7.46928 66.3796 6.72015 66.2225 6.33924C66.0786 5.95832 65.6728 5.20919 65.3194 4.68861C64.966 4.16803 64.3508 3.4062 63.945 2.99989C63.5262 2.60628 62.7408 1.98412 62.178 1.6413C61.6282 1.28578 60.8428 0.879468 60.4502 0.739799C60.0575 0.600131 59.2983 0.371582 58.7747 0.231914C57.8585 0.00336548 57.1386 -0.00933165 33.3816 0.00336548C10.2005 0.0160626 8.90464 0.0287597 8.0931 0.244611Z" fill="#4A4945"/>
</svg>
