<svg width="35" height="35" viewBox="0 0 35 35" fill="none" xmlns="http://www.w3.org/2000/svg">
<path fill-rule="evenodd" clip-rule="evenodd" d="M17.4999 35C27.1649 35 34.9999 27.165 34.9999 17.5C34.9999 7.83502 27.1649 0 17.4999 0C7.83489 0 -0.00012207 7.83502 -0.00012207 17.5C-0.00012207 27.165 7.83489 35 17.4999 35Z" fill="#9D5022"/>
<path d="M11.9326 9.79379C11.82 9.82413 11.6512 9.87873 11.5575 9.9121C11.4637 9.94547 11.2793 10.0395 11.1511 10.1214C11.023 10.2033 10.8354 10.3459 10.7354 10.4399C10.6385 10.537 10.4853 10.719 10.4009 10.8464C10.3134 10.9769 10.2134 11.1589 10.179 11.2499C10.1446 11.3409 10.0915 11.4926 10.0633 11.5836C10.0133 11.7352 10.0102 12.2236 10.0039 17.4322C9.99457 22.935 9.99769 23.117 10.054 23.3445C10.0883 23.475 10.1415 23.657 10.179 23.748C10.2134 23.839 10.3103 24.018 10.3947 24.1424C10.4791 24.2667 10.6291 24.4518 10.7323 24.5489C10.8323 24.649 11.023 24.7946 11.1511 24.8765C11.2793 24.9584 11.4637 25.0524 11.5575 25.0858C11.6512 25.1192 11.8325 25.1738 11.9544 25.2071C12.1764 25.2617 12.3514 25.2648 17.9966 25.2648C23.6418 25.2648 23.8168 25.2617 24.0388 25.2071C24.1607 25.1738 24.342 25.1192 24.4357 25.0858C24.5295 25.0524 24.7139 24.9584 24.8421 24.8765C24.9703 24.7946 25.1609 24.649 25.261 24.5489C25.3641 24.4518 25.5141 24.2667 25.5985 24.1424C25.6829 24.018 25.7798 23.839 25.8142 23.748C25.8486 23.657 25.8986 23.5053 25.9267 23.4143C25.9518 23.3233 25.9799 23.1231 25.9924 22.9745C26.008 22.7166 26.0049 22.6923 25.9267 22.5558C25.8799 22.477 25.7861 22.3769 25.7111 22.3283C25.6017 22.2585 25.5485 22.2464 25.3735 22.2464C25.2047 22.2464 25.1422 22.2616 25.0421 22.3253C24.9765 22.3677 24.889 22.4497 24.8515 22.5073C24.8015 22.5801 24.7702 22.6923 24.7483 22.8834C24.7233 23.0897 24.6889 23.208 24.6108 23.3688C24.542 23.5023 24.4482 23.6297 24.3513 23.7177C24.2701 23.7905 24.1107 23.8936 23.9981 23.9452L23.795 24.0362L20.4347 24.0514V19.6224C21.9257 19.6224 22.0289 19.6133 22.1383 19.5648C22.207 19.5344 22.2946 19.4768 22.3321 19.4374C22.3696 19.3979 22.4196 19.316 22.4446 19.2584C22.4696 19.2008 22.5165 18.9611 22.5446 18.7275C22.5915 18.3635 22.5915 18.2816 22.5571 18.1663C22.5321 18.0874 22.4665 17.9843 22.404 17.9236C22.3446 17.866 22.2383 17.7993 22.1695 17.7811C22.0851 17.7538 21.7819 17.7416 21.2381 17.7416H20.4347C20.4504 15.5423 20.4535 15.4756 20.516 15.3451C20.5504 15.2693 20.6285 15.1571 20.6879 15.0934C20.7473 15.0266 20.8723 14.9386 20.9661 14.8962C21.1286 14.8173 21.1693 14.8143 21.7476 14.7991C22.3321 14.7839 22.3633 14.7809 22.479 14.7081C22.5478 14.6656 22.6384 14.5777 22.6822 14.514C22.7603 14.4017 22.7634 14.3683 22.7728 13.9376C22.7822 13.5796 22.7728 13.4522 22.7353 13.3582C22.7103 13.2914 22.6478 13.2004 22.6009 13.1549C22.554 13.1094 22.4602 13.0518 22.3946 13.0275C22.329 13.0002 22.0789 12.9638 21.8007 12.9426C21.4475 12.9153 21.2568 12.9153 21.0599 12.9396C20.913 12.9578 20.6535 13.0184 20.4816 13.073C20.2972 13.1337 20.0659 13.2368 19.919 13.3278C19.7814 13.4098 19.5939 13.5402 19.5032 13.616C19.4095 13.6919 19.2438 13.8617 19.1344 13.9952C19.0219 14.1287 18.8687 14.3592 18.7937 14.5109C18.7155 14.6596 18.6218 14.8931 18.5843 15.0266C18.5186 15.2541 18.5155 15.3391 18.5061 16.5039L18.4967 17.7416L16.8807 17.7568C16.6931 17.8781 16.6025 17.9661 16.5587 18.0328C16.4837 18.1481 16.4806 18.1663 16.4806 18.682C16.4806 19.1977 16.4837 19.2159 16.5587 19.3312C16.6025 19.3979 16.6931 19.4859 16.7588 19.5284L16.8807 19.6072L18.4967 19.6224V24.0514L12.1983 24.0362C11.8825 23.8936 11.7231 23.7905 11.6419 23.7177C11.5418 23.6297 11.4481 23.5023 11.3762 23.3567L11.2605 23.1292V11.8718C11.4074 11.5654 11.5137 11.4107 11.5887 11.3318C11.6794 11.2347 11.8107 11.1437 11.9607 11.0739L12.1951 10.9617H23.7981C24.1826 11.1437 24.3138 11.2347 24.4045 11.3318C24.4795 11.4107 24.5858 11.5654 24.6389 11.6746L24.7327 11.8718L24.7639 20.0046C24.889 20.1897 24.9796 20.2777 25.0484 20.3201C25.1453 20.3808 25.2109 20.396 25.3735 20.396C25.536 20.396 25.6017 20.3808 25.7017 20.3201C25.7673 20.2777 25.8642 20.1836 25.9111 20.1078L25.9986 19.9713C25.9986 12.0477 25.9955 11.8627 25.9392 11.6442C25.9049 11.5199 25.8517 11.3409 25.8142 11.2499C25.7798 11.1589 25.6829 10.9799 25.5985 10.8555C25.5141 10.7312 25.3672 10.5491 25.2703 10.4521C25.1703 10.358 24.9828 10.2094 24.8483 10.1275C24.7171 10.0425 24.5295 9.94547 24.4357 9.9121C24.342 9.87873 24.1607 9.82413 24.0356 9.79076C23.8168 9.73616 23.6449 9.73312 17.9716 9.73616C12.4358 9.73919 12.1264 9.74222 11.9326 9.79379Z" fill="#F5F5F5"/>
</svg>
