<svg width="56" height="56" viewBox="0 0 56 56" fill="none" xmlns="http://www.w3.org/2000/svg">
<path fill-rule="evenodd" clip-rule="evenodd" d="M27.8389 0.501555C29.5039 0.490727 30.3096 0.534041 31.4375 0.707299C32.2324 0.826413 33.2744 0.999671 33.7471 1.09713C34.2197 1.19459 35.1328 1.43281 35.7881 1.62773C36.4326 1.81182 37.5498 2.20165 38.2588 2.48319C38.9678 2.77556 40.0527 3.27368 40.6758 3.59853C41.2988 3.93422 42.3301 4.55145 42.9854 4.97377C43.6299 5.40691 44.6504 6.15408 45.2412 6.63054C45.832 7.107 46.917 8.13572 47.6582 8.89372C48.3994 9.66255 49.3232 10.7021 49.71 11.211C50.1074 11.72 50.7412 12.6188 51.1279 13.2143C51.5039 13.8099 52.041 14.7087 52.3096 15.2176C52.5781 15.7266 53.04 16.7011 53.3301 17.3833C53.6201 18.0655 54.0283 19.1592 54.2432 19.8198C54.4473 20.4695 54.7158 21.4874 54.8447 22.0721C54.9629 22.646 55.167 23.7939 55.2852 24.606C55.4355 25.6239 55.5 26.6743 55.5 27.8871C55.5 28.8725 55.4248 30.2585 55.3389 30.9732C55.2422 31.6879 55.0703 32.7816 54.9521 33.4097C54.8232 34.0377 54.5654 35.0989 54.3613 35.7703C54.1572 36.4308 53.8027 37.4812 53.5557 38.0876C53.3193 38.7048 52.8037 39.8094 52.417 40.5565C52.041 41.3037 51.4717 42.2999 51.1602 42.7764C50.8594 43.2529 50.4619 43.751 50.29 43.8701C50.1074 44 49.7529 44.1625 49.4844 44.2383C49.1084 44.3357 48.8828 44.3357 48.4639 44.2274C48.0879 44.13 47.7979 43.9567 47.4863 43.6535C47.1641 43.3287 47.0137 43.0688 46.9277 42.6681C46.8633 42.3649 46.8418 41.9534 46.8955 41.7477C46.9385 41.5419 47.2393 40.9247 47.5723 40.3941C47.9053 39.8527 48.4316 38.9322 48.7324 38.3367C49.0332 37.7411 49.4629 36.7665 49.6885 36.171C49.9141 35.5754 50.2363 34.6225 50.3867 34.0594C50.5371 33.4963 50.7627 32.4459 50.8809 31.7312C51.0098 31.0165 51.1279 29.7279 51.1709 28.8617C51.2031 27.9521 51.1816 26.7501 51.1064 25.9921C51.042 25.2774 50.8701 24.1296 50.7305 23.4474C50.5908 22.7652 50.2686 21.5632 50.0107 20.7943C49.7529 20.0147 49.2266 18.7261 48.8291 17.9248C48.4316 17.1235 47.7764 15.9648 47.3682 15.3584C46.9707 14.752 46.2188 13.7558 45.7139 13.1385C45.209 12.5213 44.3496 11.6117 43.8018 11.1028C43.2539 10.5938 42.3623 9.84663 41.8252 9.44598C41.2773 9.03449 40.4287 8.44975 39.9238 8.14654C39.4189 7.84334 38.4736 7.34523 37.8291 7.0312C37.1738 6.71717 36.0566 6.26237 35.3262 6.02414C34.6064 5.77508 33.4248 5.46105 32.6943 5.32028C31.9746 5.16868 30.8467 4.99542 30.2021 4.94128C29.5469 4.87631 28.5586 4.82217 28 4.82217C27.4414 4.82217 26.4746 4.86548 25.8516 4.93045C25.2285 4.99542 24.2188 5.14702 23.5957 5.26614C22.9727 5.38525 22.0273 5.61265 21.501 5.76425C20.9639 5.91585 20.0615 6.21905 19.4814 6.45728C18.9121 6.68468 18.042 7.08534 17.5479 7.32357C17.0645 7.57263 16.3018 7.99495 15.8613 8.26566C15.4209 8.53638 14.5938 9.09946 14.0352 9.52178C13.4766 9.94409 12.542 10.7562 11.9512 11.3193C11.3604 11.8824 10.5225 12.7812 10.082 13.3226C9.6416 13.8532 8.98633 14.7303 8.63184 15.2718C8.27734 15.8024 7.72949 16.7336 7.41797 17.3292C7.10645 17.9248 6.65527 18.9102 6.41895 19.5274C6.17188 20.1338 5.83887 21.13 5.66699 21.7473C5.49512 22.3537 5.28027 23.2633 5.18359 23.7722C5.09766 24.2812 4.95801 25.2774 4.89355 25.9921C4.81836 26.7501 4.79688 27.9304 4.8291 28.8075C4.87207 29.6413 4.96875 30.7891 5.06543 31.3522C5.16211 31.9153 5.37695 32.9115 5.53809 33.5721C5.70996 34.2218 6.03223 35.2505 6.24707 35.8461C6.47266 36.4417 6.99902 37.6328 7.43945 38.4991C8.0625 39.7444 8.22363 40.1667 8.23438 40.5565C8.23438 40.8273 7.7832 43.0796 7.24609 45.5593C6.69824 48.0391 6.26855 50.1074 6.30078 50.1398C6.33301 50.1723 8.40625 49.7392 10.9199 49.1653C13.4336 48.5914 15.7002 48.1149 15.9688 48.1149C16.334 48.1149 16.7637 48.2665 17.7949 48.7754C18.5361 49.1328 19.793 49.6417 20.5879 49.9124C21.3828 50.1832 22.6396 50.5188 23.3809 50.6704C24.1221 50.822 25.3037 51.0061 26.0127 51.0711C26.7432 51.1469 27.9463 51.1686 28.8057 51.1361C29.6328 51.1036 30.8145 50.9953 31.4375 50.8978C32.0605 50.8004 32.9521 50.6271 33.4248 50.508C33.8975 50.3889 34.8857 50.0965 35.627 49.8475C36.3789 49.5876 37.7324 48.992 38.71 48.4939C40.2139 47.7251 40.5361 47.5951 40.998 47.5951C41.3096 47.5951 41.6963 47.6818 41.9326 47.8009C42.1582 47.9092 42.4482 48.1257 42.5771 48.2665C42.7061 48.3964 42.8887 48.6996 42.9746 48.927C43.0713 49.1436 43.1465 49.5118 43.1465 49.7392C43.1465 49.9558 43.0498 50.3348 42.9424 50.573C42.835 50.8112 42.5879 51.1577 42.3838 51.331C42.1797 51.5151 41.3848 51.9807 40.6221 52.3814C39.8486 52.7712 38.7314 53.3018 38.1191 53.54C37.5176 53.7891 36.5508 54.1248 35.9707 54.298C35.4014 54.4713 34.4561 54.7095 33.876 54.8395C33.3066 54.9694 32.168 55.1643 31.3516 55.2834C30.3203 55.435 29.3105 55.5 28 55.5C26.6787 55.5 25.6689 55.435 24.6162 55.2834C23.7891 55.1643 22.5537 54.9369 21.877 54.7853C21.2002 54.6337 20.083 54.3197 19.4062 54.0923C18.7295 53.8649 17.709 53.4751 17.1504 53.226C16.5918 52.9769 16.0117 52.7279 15.8613 52.6629C15.6465 52.5654 14.4648 52.8037 9.57715 53.9299C4.73242 55.0344 3.46484 55.2943 3.07812 55.2401C2.80957 55.1968 2.42285 55.056 2.21875 54.9261C2.01465 54.7853 1.73535 54.5038 1.60645 54.298C1.47754 54.0923 1.33789 53.7133 1.29492 53.4426C1.24121 53.0527 1.48828 51.7858 3.85156 41.0438L3.47559 40.2858C3.27148 39.8635 2.90625 39.0622 2.66992 38.4991C2.43359 37.936 2.08984 37.0048 1.89648 36.4417C1.71387 35.8786 1.42383 34.8282 1.25195 34.1135C1.08008 33.3988 0.84375 32.1319 0.714844 31.2981C0.564453 30.2477 0.5 29.2407 0.5 27.9954C0.5 27.01 0.575195 25.6239 0.661133 24.9092C0.757812 24.1945 0.929688 23.1442 1.03711 22.5811C1.15527 22.018 1.3916 21.0434 1.56348 20.4153C1.74609 19.7873 2.08984 18.7694 2.33691 18.1413C2.57324 17.5133 3.06738 16.4196 3.42188 15.7049C3.77637 14.9902 4.46387 13.7991 4.95801 13.0519C5.45215 12.3047 6.18262 11.2868 6.59082 10.7779C6.98828 10.2689 7.84766 9.31603 8.50293 8.66632C9.1582 8.00577 10.1465 7.107 10.7051 6.6522C11.2637 6.1974 12.1553 5.53685 12.6924 5.17951C13.2188 4.81134 14.1426 4.24825 14.7334 3.92339C15.3242 3.58771 16.3662 3.07876 17.043 2.78639C17.7197 2.49402 18.8799 2.05004 19.6211 1.81182C20.3623 1.57359 21.4688 1.27039 22.0918 1.14044C22.7148 0.999671 23.7783 0.804756 24.4551 0.707299C25.2607 0.588184 26.4316 0.512384 27.8389 0.501555ZM20.0186 15.889C21.0068 15.9215 21.1357 15.9431 21.3936 16.1922C21.5547 16.3438 21.8232 16.7553 21.9844 17.1126C22.1455 17.47 22.6719 18.7586 23.166 19.9822C23.8535 21.7148 24.0361 22.2779 23.9824 22.5269C23.9502 22.7002 23.7783 23.0684 23.6064 23.3391C23.4453 23.6098 22.9834 24.1837 22.5859 24.6168C22.1133 25.1366 21.877 25.4831 21.877 25.6672C21.877 25.8296 22.2422 26.4902 22.7578 27.2698C23.4023 28.2336 24.0039 28.9591 24.9922 29.9553C25.873 30.8541 26.6787 31.5471 27.3555 31.9911C27.9141 32.3701 28.9023 32.944 29.5576 33.2581C30.2021 33.5829 30.9111 33.8645 31.1152 33.9078C31.416 33.9619 31.5557 33.9186 31.8027 33.7129C31.9746 33.5829 32.5977 32.8574 33.1885 32.1102C33.7793 31.3631 34.3701 30.7025 34.5205 30.6484C34.7139 30.5726 34.9072 30.5834 35.2832 30.7242C35.5625 30.8216 36.8838 31.4497 38.2266 32.0994C40.0742 33.009 40.7188 33.3772 40.8584 33.6046C40.998 33.8428 41.0303 34.0485 40.9658 34.6549C40.9336 35.0664 40.8047 35.727 40.6865 36.1168C40.5684 36.5066 40.3105 37.0372 40.1172 37.2971C39.9238 37.557 39.4727 37.9902 39.1182 38.2609C38.7637 38.5316 38.1299 38.9106 37.7217 39.1055C37.3027 39.3004 36.6152 39.517 36.1641 39.5928C35.7021 39.6578 34.9932 39.6903 34.499 39.6469C34.0264 39.6144 33.0381 39.4195 32.2969 39.2138C31.5557 39.008 30.3525 38.6182 29.6113 38.3367C28.8701 38.0551 27.8604 37.6112 27.3555 37.3621C26.8506 37.113 26.002 36.6041 25.4756 36.2468C24.9385 35.8894 24.0469 35.2072 23.4883 34.7308C22.9297 34.2651 22.0166 33.388 21.458 32.8033C20.8994 32.2185 20.0938 31.2873 19.6748 30.7567C19.2451 30.2152 18.5684 29.2948 18.1494 28.6992C17.7412 28.1036 17.1934 27.2482 16.9355 26.8042C16.6777 26.3602 16.334 25.6456 16.1621 25.2341C15.9902 24.8118 15.7754 24.1837 15.6787 23.8264C15.5498 23.3824 15.4961 22.7435 15.4961 21.8231C15.4961 20.6211 15.5283 20.372 15.7969 19.6032C15.958 19.1267 16.2051 18.542 16.3447 18.3038C16.4951 18.0655 16.8604 17.5566 17.1826 17.1668C17.5693 16.6903 17.9453 16.3655 18.3428 16.1597C18.8799 15.8782 18.998 15.8565 20.0186 15.889Z" fill="#3B1F13"/>
</svg>
